  0
SECTION
  2
HEADER
  9
$ACADVER
  1
AC1015
  9
$ACADMAINTVER
 70
     6
  9
$DWGCODEPAGE
  3
ANSI_1252
  9
$INSBASE
 10
0.0
 20
0.0
 30
0.0
  9
$EXTMIN
 10
0.0
 20
0.0
 30
0.0
  9
$EXTMAX
 10
297.0
 20
210.0
 30
0.0
  9
$LIMMIN
 10
0.0
 20
0.0
  9
$LIMMAX
 10
297.0
 20
210.0
  9
$ORTHOMODE
 70
     0
  9
$REGENMODE
 70
     1
  9
$FILLMODE
 70
     1
  9
$QTEXTMODE
 70
     0
  9
$MIRRTEXT
 70
     1
  9
$LTSCALE
 40
1.0
  9
$ATTMODE
 70
     1
  9
$TEXTSIZE
 40
3.5
  9
$TRACEWID
 40
1.0
  9
$TEXTSTYLE
  7
Standard
  9
$CLAYER
  8
0
  9
$CELTYPE
  6
ByLayer
  9
$CECOLOR
 62
   256
  9
$CELTSCALE
 40
1.0
  9
$DISPSILH
 70
     0
  9
$DIMSCALE
 40
1.0
  9
$DIMASZ
 40
3.302
  9
$DIMEXO
 40
1.0
  9
$DIMDLI
 40
3.75
  9
$DIMRND
 40
0.0
  9
$DIMDLE
 40
0.0
  9
$DIMEXE
 40
1.0
  9
$DIMTP
 40
0.0
  9
$DIMTM
 40
0.0
  9
$DIMTXT
 40
3.5
  9
$DIMCEN
 40
2.5
  9
$DIMTSZ
 40
0.0
  9
$DIMTOL
 70
     0
  9
$DIMLIM
 70
     0
  9
$DIMTIH
 70
     1
  9
$DIMTOH
 70
     1
  9
$DIMSE1
 70
     0
  9
$DIMSE2
 70
     0
  9
$DIMTAD
 70
     1
  9
$DIMZIN
 70
     0
  9
$DIMBLK
  1

  9
$DIMASO
 70
     1
  9
$DIMSHO
 70
     1
  9
$DIMPOST
  1

  9
$DIMAPOST
  1

  9
$DIMALT
 70
     0
  9
$DIMALTD
 70
     3
  9
$DIMALTF
 40
0.0393700787
  9
$DIMLFAC
 40
0.5
  9
$DIMTOFL
 70
     1
  9
$DIMTVP
 40
0.0
  9
$DIMTIX
 70
     0
  9
$DIMSOXD
 70
     0
  9
$DIMSAH
 70
     0
  9
$DIMBLK1
  1

  9
$DIMBLK2
  1

  9
$DIMSTYLE
  2
ISO-25
  9
$DIMCLRD
 70
     0
  9
$DIMCLRE
 70
     0
  9
$DIMCLRT
 70
     0
  9
$DIMTFAC
 40
1.0
  9
$DIMGAP
 40
1.524
  9
$DIMJUST
 70
     0
  9
$DIMSD1
 70
     0
  9
$DIMSD2
 70
     0
  9
$DIMTOLJ
 70
     0
  9
$DIMTZIN
 70
     0
  9
$DIMALTZ
 70
     0
  9
$DIMALTTZ
 70
     0
  9
$DIMUPT
 70
     0
  9
$DIMDEC
 70
     2
  9
$DIMTDEC
 70
     2
  9
$DIMALTU
 70
     2
  9
$DIMALTTD
 70
     3
  9
$DIMTXSTY
  7
Standard
  9
$DIMAUNIT
 70
     0
  9
$DIMADEC
 70
     2
  9
$DIMALTRND
 40
0.0
  9
$DIMAZIN
 70
     0
  9
$DIMDSEP
 70
    44
  9
$DIMATFIT
 70
     3
  9
$DIMFRAC
 70
     0
  9
$DIMLDRBLK
  1

  9
$DIMLUNIT
 70
     2
  9
$DIMLWD
 70
    -2
  9
$DIMLWE
 70
    -2
  9
$DIMTMOVE
 70
     0
  9
$LUNITS
 70
     2
  9
$LUPREC
 70
     2
  9
$SKETCHINC
 40
1.0
  9
$FILLETRAD
 40
10.0
  9
$AUNITS
 70
     0
  9
$AUPREC
 70
     2
  9
$MENU
  1
.
  9
$ELEVATION
 40
0.0
  9
$PELEVATION
 40
0.0
  9
$THICKNESS
 40
0.0
  9
$LIMCHECK
 70
     0
  9
$CHAMFERA
 40
0.0
  9
$CHAMFERB
 40
0.0
  9
$CHAMFERC
 40
0.0
  9
$CHAMFERD
 40
0.0
  9
$SKPOLY
 70
     0
  9
$TDCREATE
 40
2458226.464670116
  9
$TDUCREATE
 40
2458226.423003449
  9
$TDUPDATE
 40
2458226.464678391
  9
$TDUUPDATE
 40
2458226.423011724
  9
$TDINDWG
 40
0.0000000116
  9
$TDUSRTIMER
 40
0.0000000116
  9
$USRTIMER
 70
     1
  9
$ANGBASE
 50
0.0
  9
$ANGDIR
 70
     0
  9
$PDMODE
 70
     0
  9
$PDSIZE
 40
-1.0
  9
$PLINEWID
 40
0.0
  9
$SPLFRAME
 70
     0
  9
$SPLINETYPE
 70
     6
  9
$SPLINESEGS
 70
     8
  9
$HANDSEED
  5
363
  9
$SURFTAB1
 70
     6
  9
$SURFTAB2
 70
     6
  9
$SURFTYPE
 70
     6
  9
$SURFU
 70
     6
  9
$SURFV
 70
     6
  9
$UCSBASE
  2

  9
$UCSNAME
  2

  9
$UCSORG
 10
0.0
 20
0.0
 30
0.0
  9
$UCSXDIR
 10
1.0
 20
0.0
 30
0.0
  9
$UCSYDIR
 10
0.0
 20
1.0
 30
0.0
  9
$UCSORTHOREF
  2

  9
$UCSORTHOVIEW
 70
     0
  9
$UCSORGTOP
 10
0.0
 20
0.0
 30
0.0
  9
$UCSORGBOTTOM
 10
0.0
 20
0.0
 30
0.0
  9
$UCSORGLEFT
 10
0.0
 20
0.0
 30
0.0
  9
$UCSORGRIGHT
 10
0.0
 20
0.0
 30
0.0
  9
$UCSORGFRONT
 10
0.0
 20
0.0
 30
0.0
  9
$UCSORGBACK
 10
0.0
 20
0.0
 30
0.0
  9
$PUCSBASE
  2

  9
$PUCSNAME
  2

  9
$PUCSORG
 10
0.0
 20
0.0
 30
0.0
  9
$PUCSXDIR
 10
1.0
 20
0.0
 30
0.0
  9
$PUCSYDIR
 10
0.0
 20
1.0
 30
0.0
  9
$PUCSORTHOREF
  2

  9
$PUCSORTHOVIEW
 70
     0
  9
$PUCSORGTOP
 10
0.0
 20
0.0
 30
0.0
  9
$PUCSORGBOTTOM
 10
0.0
 20
0.0
 30
0.0
  9
$PUCSORGLEFT
 10
0.0
 20
0.0
 30
0.0
  9
$PUCSORGRIGHT
 10
0.0
 20
0.0
 30
0.0
  9
$PUCSORGFRONT
 10
0.0
 20
0.0
 30
0.0
  9
$PUCSORGBACK
 10
0.0
 20
0.0
 30
0.0
  9
$USERI1
 70
     0
  9
$USERI2
 70
     0
  9
$USERI3
 70
     0
  9
$USERI4
 70
     0
  9
$USERI5
 70
     0
  9
$USERR1
 40
0.0
  9
$USERR2
 40
0.0
  9
$USERR3
 40
0.0
  9
$USERR4
 40
0.0
  9
$USERR5
 40
0.0
  9
$WORLDVIEW
 70
     1
  9
$SHADEDGE
 70
     3
  9
$SHADEDIF
 70
    70
  9
$TILEMODE
 70
     0
  9
$MAXACTVP
 70
    64
  9
$PINSBASE
 10
0.0
 20
0.0
 30
0.0
  9
$PLIMCHECK
 70
     0
  9
$PEXTMIN
 10
0.0
 20
0.0
 30
0.0
  9
$PEXTMAX
 10
297.0
 20
210.0
 30
0.0
  9
$PLIMMIN
 10
0.0
 20
0.0
  9
$PLIMMAX
 10
297.0
 20
210.0
  9
$UNITMODE
 70
     0
  9
$VISRETAIN
 70
     1
  9
$PLINEGEN
 70
     0
  9
$PSLTSCALE
 70
     1
  9
$TREEDEPTH
 70
  3020
  9
$CMLSTYLE
  2
Standard
  9
$CMLJUST
 70
     0
  9
$CMLSCALE
 40
20.0
  9
$PROXYGRAPHICS
 70
     1
  9
$MEASUREMENT
 70
     1
  9
$CELWEIGHT
370
    -1
  9
$ENDCAPS
280
     0
  9
$JOINSTYLE
280
     0
  9
$LWDISPLAY
290
     1
  9
$INSUNITS
 70
     4
  9
$HYPERLINKBASE
  1

  9
$STYLESHEET
  1

  9
$XEDIT
290
     1
  9
$CEPSNTYPE
380
     0
  9
$PSTYLEMODE
290
     1
  9
$FINGERPRINTGUID
  2
{5F7E11EA-4093-423E-8502-31E14061A6A4}
  9
$VERSIONGUID
  2
{FAEB1C32-E019-11D5-929B-00C0DF256EC4}
  9
$EXTNAMES
290
     1
  9
$PSVPSCALE
 40
0.0
  9
$OLESTARTUP
290
     0
  0
ENDSEC
  0
SECTION
  2
CLASSES
  0
CLASS
  1
ACDBDICTIONARYWDFLT
  2
AcDbDictionaryWithDefault
  3
ObjectDBX Classes
 90
        0
280
     0
281
     0
  0
CLASS
  1
VISUALSTYLE
  2
AcDbVisualStyle
  3
ObjectDBX Classes
 90
     4095
280
     0
281
     0
  0
CLASS
  1
MATERIAL
  2
AcDbMaterial
  3
ObjectDBX Classes
 90
     1153
280
     0
281
     0
  0
CLASS
  1
SCALE
  2
AcDbScale
  3
ObjectDBX Classes
 90
     1153
280
     0
281
     0
  0
CLASS
  1
TABLESTYLE
  2
AcDbTableStyle
  3
ObjectDBX Classes
 90
     4095
280
     0
281
     0
  0
CLASS
  1
MLEADERSTYLE
  2
AcDbMLeaderStyle
  3
ACDB_MLEADERSTYLE_CLASS
 90
     4095
280
     0
281
     0
  0
CLASS
  1
SUN
  2
AcDbSun
  3
SCENEOE
 90
     1153
280
     0
281
     0
  0
CLASS
  1
ACDBPLACEHOLDER
  2
AcDbPlaceHolder
  3
ObjectDBX Classes
 90
        0
280
     0
281
     0
  0
CLASS
  1
LAYOUT
  2
AcDbLayout
  3
ObjectDBX Classes
 90
        0
280
     0
281
     0
  0
ENDSEC
  0
SECTION
  2
TABLES
  0
TABLE
  2
VPORT
  5
8
330
0
100
AcDbSymbolTable
 70
     1
  0
VPORT
  5
29
330
8
100
AcDbSymbolTableRecord
100
AcDbViewportTableRecord
  2
*Active
 70
     0
 10
0.0
 20
0.0
 11
1.0
 21
1.0
 12
148.5
 22
105.0
 13
0.0
 23
0.0
 14
10.0
 24
10.0
 15
10.0
 25
10.0
 16
0.0
 26
0.0
 36
1.0
 17
0.0
 27
0.0
 37
0.0
 40
210.0
 41
1.4142857143
 42
50.0
 43
0.0
 44
0.0
 50
0.0
 51
0.0
 71
     0
 72
  2000
 73
     1
 74
     3
 75
     0
 76
     0
 77
     0
 78
     0
281
     0
 65
     1
110
0.0
120
0.0
130
0.0
111
1.0
121
0.0
131
0.0
112
0.0
122
1.0
132
0.0
 79
     0
146
0.0
  0
ENDTAB
  0
TABLE
  2
LTYPE
  5
5
330
0
100
AcDbSymbolTable
 70
     6
  0
LTYPE
  5
14
330
5
100
AcDbSymbolTableRecord
100
AcDbLinetypeTableRecord
  2
ByBlock
 70
     0
  3

 72
    65
 73
     0
 40
0.0
  0
LTYPE
  5
15
330
5
100
AcDbSymbolTableRecord
100
AcDbLinetypeTableRecord
  2
ByLayer
 70
     0
  3

 72
    65
 73
     0
 40
0.0
  0
LTYPE
  5
16
330
5
100
AcDbSymbolTableRecord
100
AcDbLinetypeTableRecord
  2
Continuous
 70
     0
  3
Solid line
 72
    65
 73
     0
 40
0.0
  0
LTYPE
  5
6E
330
5
100
AcDbSymbolTableRecord
100
AcDbLinetypeTableRecord
  2
HIDDEN
 70
     0
  3
Hidden __ __ __ __ __ __ __ __ __ __ __ __ __ __
 72
    65
 73
     2
 40
1.905
 49
1.27
 74
     0
 49
-0.635
 74
     0
  0
LTYPE
  5
6F
330
5
100
AcDbSymbolTableRecord
100
AcDbLinetypeTableRecord
  2
PHANTOM
 70
     0
  3
Phantom ______  __  __  ______  __  __  ______
 72
    65
 73
     6
 40
12.7
 49
6.35
 74
     0
 49
-1.27
 74
     0
 49
1.27
 74
     0
 49
-1.27
 74
     0
 49
1.27
 74
     0
 49
-1.27
 74
     0
  0
LTYPE
  5
70
330
5
100
AcDbSymbolTableRecord
100
AcDbLinetypeTableRecord
  2
CENTER
 70
     0
  3
Center ____ _ ____ _ ____ _ ____ _ ____ _ ____
 72
    65
 73
     4
 40
10.16
 49
6.35
 74
     0
 49
-1.27
 74
     0
 49
1.27
 74
     0
 49
-1.27
 74
     0
  0
LTYPE
  5
71
330
5
100
AcDbSymbolTableRecord
100
AcDbLinetypeTableRecord
  2
CENTERX2
 70
     0
  3
Center (2x) ________  __  ________  __  _____
 72
    65
 73
     4
 40
20.32
 49
12.7
 74
     0
 49
-2.54
 74
     0
 49
2.54
 74
     0
 49
-2.54
 74
     0
  0
LTYPE
  5
72
330
5
100
AcDbSymbolTableRecord
100
AcDbLinetypeTableRecord
  2
DOT2
 70
     0
  3
Dot (.5x) ........................................
 72
    65
 73
     2
 40
0.635
 49
0.0
 74
     0
 49
-0.635
 74
     0
  0
ENDTAB
  0
TABLE
  2
LAYER
  5
2
330
0
100
AcDbSymbolTable
 70
     1
  0
LAYER
  5
10
330
2
100
AcDbSymbolTableRecord
100
AcDbLayerTableRecord
  2
0
 70
     0
 62
     7
  6
Continuous
370
    -3
390
F
  0
ENDTAB
  0
TABLE
  2
STYLE
  5
3
330
0
100
AcDbSymbolTable
 70
     5
  0
STYLE
  5
11
330
3
100
AcDbSymbolTableRecord
100
AcDbTextStyleTableRecord
  2
Standard
 70
     0
 40
0.0
 41
1.0
 50
0.0
 71
     0
 42
3.5
  3
txt
  4

  0
STYLE
  5
A1
330
3
100
AcDbSymbolTableRecord
100
AcDbTextStyleTableRecord
  2
SLDTEXTSTYLE0
 70
     0
 40
0.0
 41
0.75
 50
0.0
 71
     0
 42
3.5
  3
TXT
  4

  0
STYLE
  5
B6
330
3
100
AcDbSymbolTableRecord
100
AcDbTextStyleTableRecord
  2
SLDTEXTSTYLE1
 70
     0
 40
0.0
 41
0.6875
 50
0.0
 71
     0
 42
3.5
  3
TXT
  4

  0
STYLE
  5
125
330
3
100
AcDbSymbolTableRecord
100
AcDbTextStyleTableRecord
  2
SLDTEXTSTYLE2
 70
     0
 40
0.0
 41
0.6944444444
 50
0.0
 71
     0
 42
3.5
  3
TXT
  4

  0
STYLE
  5
200
330
3
100
AcDbSymbolTableRecord
100
AcDbTextStyleTableRecord
  2
SLDTEXTSTYLE3
 70
     0
 40
0.0
 41
0.6666666667
 50
0.0
 71
     0
 42
3.5
  3
TXT
  4

  0
ENDTAB
  0
TABLE
  2
VIEW
  5
6
330
0
100
AcDbSymbolTable
 70
     0
  0
ENDTAB
  0
TABLE
  2
UCS
  5
7
330
0
100
AcDbSymbolTable
 70
     0
  0
ENDTAB
  0
TABLE
  2
APPID
  5
9
330
0
100
AcDbSymbolTable
 70
     1
  0
APPID
  5
12
330
9
100
AcDbSymbolTableRecord
100
AcDbRegAppTableRecord
  2
ACAD
 70
     0
  0
ENDTAB
  0
TABLE
  2
DIMSTYLE
  5
A
330
0
100
AcDbSymbolTable
 70
     6
100
AcDbDimStyleTable
  0
DIMSTYLE
105
27
330
A
100
AcDbSymbolTableRecord
100
AcDbDimStyleTableRecord
  2
ISO-25
 70
     0
 41
2.5
 42
0.625
 43
3.75
 44
1.25
 73
     0
 74
     0
 77
     1
 78
     8
140
2.5
141
2.5
143
0.0393700787
147
0.625
171
     3
172
     1
178
     0
271
     2
272
     2
274
     3
278
    44
283
     0
284
     8
340
11
  0
DIMSTYLE
105
F2
102
{ACAD_REACTORS
330
F1
330
1BE
330
208
330
212
102
}
330
A
100
AcDbSymbolTableRecord
100
AcDbDimStyleTableRecord
  2
SLDDIMSTYLE0
 70
     0
 41
3.302
 44
0.0
 45
0.000000001
 73
     0
 74
     0
 77
     2
 78
    12
 79
     3
140
3.5
144
0.6666666667
147
0.875
173
     1
178
     0
271
     2
272
     2
276
     2
284
    12
340
A1
341
F3
343
F3
344
F3
  0
DIMSTYLE
105
104
102
{ACAD_REACTORS
330
103
330
160
330
16C
330
178
330
184
330
1A6
330
1B2
330
1C8
102
}
330
A
100
AcDbSymbolTableRecord
100
AcDbDimStyleTableRecord
  2
SLDDIMSTYLE1
 70
     0
 41
3.302
 44
0.0
 45
0.000000001
 73
     0
 74
     0
 77
     2
 78
    12
 79
     3
140
3.5
144
0.6666666667
147
0.875
172
     1
173
     1
178
     0
271
     2
272
     2
276
     2
284
    12
289
     0
340
A1
341
F3
343
F3
344
F3
  0
DIMSTYLE
105
110
102
{ACAD_REACTORS
330
10F
330
1D3
330
1F8
102
}
330
A
100
AcDbSymbolTableRecord
100
AcDbDimStyleTableRecord
  2
SLDDIMSTYLE2
 70
     0
 41
3.302
 44
0.0
 45
0.000000001
 78
     4
 79
     1
140
3.5
141
0.0
144
0.6666666667
147
0.875
172
     1
173
     1
178
     0
271
     2
272
     2
276
     2
284
    12
340
A1
341
111
343
111
344
F3
  0
DIMSTYLE
105
21D
102
{ACAD_REACTORS
330
21C
102
}
330
A
100
AcDbSymbolTableRecord
100
AcDbDimStyleTableRecord
  2
SLDDIMSTYLE3
 70
     0
 41
3.302
 44
0.0
 45
0.000000001
 78
    12
 79
     3
140
3.5
141
0.0
144
0.6666666667
147
0.875
172
     1
173
     1
178
     0
271
     2
272
     2
276
     2
284
    12
340
A1
341
111
343
111
344
F3
  0
DIMSTYLE
105
32C
330
A
100
AcDbSymbolTableRecord
100
AcDbDimStyleTableRecord
  2
SLDDIMSTYLE4
 70
     0
 41
1.016
 44
0.0
 45
0.000000001
146
1.016
147
0.0
173
     1
178
     0
271
     0
272
     0
276
     2
340
11
341
32D
343
32D
344
32D
  0
ENDTAB
  0
TABLE
  2
BLOCK_RECORD
  5
1
330
0
100
AcDbSymbolTable
 70
    38
  0
BLOCK_RECORD
  5
1F
330
1
100
AcDbSymbolTableRecord
100
AcDbBlockTableRecord
  2
*Model_Space
340
22
  0
BLOCK_RECORD
  5
1B
330
1
100
AcDbSymbolTableRecord
100
AcDbBlockTableRecord
  2
*Paper_Space
340
1E
  0
BLOCK_RECORD
  5
9E
330
1
100
AcDbSymbolTableRecord
100
AcDbBlockTableRecord
  2
SW_NOTE_0
340
0
102
{BLKREFS
331
A4
102
}
  0
BLOCK_RECORD
  5
A5
330
1
100
AcDbSymbolTableRecord
100
AcDbBlockTableRecord
  2
SW_NOTE_1
340
0
102
{BLKREFS
331
AB
102
}
  0
BLOCK_RECORD
  5
AE
330
1
100
AcDbSymbolTableRecord
100
AcDbBlockTableRecord
  2
SW_NOTE_2
340
0
102
{BLKREFS
331
B3
102
}
  0
BLOCK_RECORD
  5
BB
330
1
100
AcDbSymbolTableRecord
100
AcDbBlockTableRecord
  2
SW_NOTE_3
340
0
102
{BLKREFS
331
C0
102
}
  0
BLOCK_RECORD
  5
C1
330
1
100
AcDbSymbolTableRecord
100
AcDbBlockTableRecord
  2
SW_NOTE_4
340
0
102
{BLKREFS
331
C6
102
}
  0
BLOCK_RECORD
  5
F3
330
1
100
AcDbSymbolTableRecord
100
AcDbBlockTableRecord
  2
_CLOSED
340
0
102
{BLKREFS
331
FD
331
FE
331
108
331
109
331
117
331
164
331
165
331
170
331
171
331
17C
331
17D
331
188
331
189
331
1AA
331
1AB
331
1B6
331
1B7
331
1C2
331
1C3
331
1CC
331
1CD
331
1D7
331
1FC
331
20C
331
20D
331
216
331
217
331
221
102
}
  0
BLOCK_RECORD
  5
FA
330
1
100
AcDbSymbolTableRecord
100
AcDbBlockTableRecord
  2
_D
340
0
  0
BLOCK_RECORD
  5
105
330
1
100
AcDbSymbolTableRecord
100
AcDbBlockTableRecord
  2
_D_1
340
0
  0
BLOCK_RECORD
  5
111
330
1
100
AcDbSymbolTableRecord
100
AcDbBlockTableRecord
  2
_NONE
340
0
  0
BLOCK_RECORD
  5
114
330
1
100
AcDbSymbolTableRecord
100
AcDbBlockTableRecord
  2
_D_2
340
0
  0
BLOCK_RECORD
  5
11E
330
1
100
AcDbSymbolTableRecord
100
AcDbBlockTableRecord
  2
SW_SYMBOL_HOLE_SINK
340
0
102
{BLKREFS
331
123
331
1DE
331
205
102
}
  0
BLOCK_RECORD
  5
127
330
1
100
AcDbSymbolTableRecord
100
AcDbBlockTableRecord
  2
SW_CENTERMARKSYMBOL_0
340
0
102
{BLKREFS
331
132
102
}
  0
BLOCK_RECORD
  5
161
330
1
100
AcDbSymbolTableRecord
100
AcDbBlockTableRecord
  2
_D_3
340
0
  0
BLOCK_RECORD
  5
16D
330
1
100
AcDbSymbolTableRecord
100
AcDbBlockTableRecord
  2
_D_4
340
0
  0
BLOCK_RECORD
  5
179
330
1
100
AcDbSymbolTableRecord
100
AcDbBlockTableRecord
  2
_D_5
340
0
  0
BLOCK_RECORD
  5
185
330
1
100
AcDbSymbolTableRecord
100
AcDbBlockTableRecord
  2
_D_6
340
0
  0
BLOCK_RECORD
  5
1A7
330
1
100
AcDbSymbolTableRecord
100
AcDbBlockTableRecord
  2
_D_7
340
0
  0
BLOCK_RECORD
  5
1B3
330
1
100
AcDbSymbolTableRecord
100
AcDbBlockTableRecord
  2
_D_8
340
0
  0
BLOCK_RECORD
  5
1BF
330
1
100
AcDbSymbolTableRecord
100
AcDbBlockTableRecord
  2
_D_9
340
0
  0
BLOCK_RECORD
  5
1C9
330
1
100
AcDbSymbolTableRecord
100
AcDbBlockTableRecord
  2
_D_10
340
0
  0
BLOCK_RECORD
  5
1D4
330
1
100
AcDbSymbolTableRecord
100
AcDbBlockTableRecord
  2
_D_11
340
0
  0
BLOCK_RECORD
  5
1E1
330
1
100
AcDbSymbolTableRecord
100
AcDbBlockTableRecord
  2
SW_CENTERMARKSYMBOL_1
340
0
102
{BLKREFS
331
1EC
102
}
  0
BLOCK_RECORD
  5
1F9
330
1
100
AcDbSymbolTableRecord
100
AcDbBlockTableRecord
  2
_D_12
340
0
  0
BLOCK_RECORD
  5
209
330
1
100
AcDbSymbolTableRecord
100
AcDbBlockTableRecord
  2
_D_13
340
0
  0
BLOCK_RECORD
  5
213
330
1
100
AcDbSymbolTableRecord
100
AcDbBlockTableRecord
  2
_D_14
340
0
  0
BLOCK_RECORD
  5
21E
330
1
100
AcDbSymbolTableRecord
100
AcDbBlockTableRecord
  2
_D_15
340
0
  0
BLOCK_RECORD
  5
229
330
1
100
AcDbSymbolTableRecord
100
AcDbBlockTableRecord
  2
SW_CENTERMARKSYMBOL_2
340
0
102
{BLKREFS
331
234
102
}
  0
BLOCK_RECORD
  5
235
330
1
100
AcDbSymbolTableRecord
100
AcDbBlockTableRecord
  2
SW_CENTERMARKSYMBOL_3
340
0
102
{BLKREFS
331
240
102
}
  0
BLOCK_RECORD
  5
241
330
1
100
AcDbSymbolTableRecord
100
AcDbBlockTableRecord
  2
SW_CENTERMARKSYMBOL_4
340
0
102
{BLKREFS
331
24C
102
}
  0
BLOCK_RECORD
  5
24D
330
1
100
AcDbSymbolTableRecord
100
AcDbBlockTableRecord
  2
SW_CENTERMARKSYMBOL_5
340
0
102
{BLKREFS
331
258
102
}
  0
BLOCK_RECORD
  5
28C
330
1
100
AcDbSymbolTableRecord
100
AcDbBlockTableRecord
  2
SW_NOTE_5
340
0
102
{BLKREFS
331
291
102
}
  0
BLOCK_RECORD
  5
292
330
1
100
AcDbSymbolTableRecord
100
AcDbBlockTableRecord
  2
SW_NOTE_6
340
0
102
{BLKREFS
331
298
102
}
  0
BLOCK_RECORD
  5
29B
330
1
100
AcDbSymbolTableRecord
100
AcDbBlockTableRecord
  2
SW_NOTE_7
340
0
102
{BLKREFS
331
2A0
102
}
  0
BLOCK_RECORD
  5
2BB
330
1
100
AcDbSymbolTableRecord
100
AcDbBlockTableRecord
  2
SW_NOTE_8
340
0
102
{BLKREFS
331
2C0
102
}
  0
BLOCK_RECORD
  5
2C1
330
1
100
AcDbSymbolTableRecord
100
AcDbBlockTableRecord
  2
SW_NOTE_9
340
0
102
{BLKREFS
331
2C6
102
}
  0
BLOCK_RECORD
  5
31F
330
1
100
AcDbSymbolTableRecord
100
AcDbBlockTableRecord
  2
SW_NOTE_10
340
0
102
{BLKREFS
331
32B
102
}
  0
BLOCK_RECORD
  5
32D
330
1
100
AcDbSymbolTableRecord
100
AcDbBlockTableRecord
  2
_DOT
340
0
  0
ENDTAB
  0
ENDSEC
  0
SECTION
  2
BLOCKS
  0
BLOCK
  5
20
330
1F
100
AcDbEntity
  8
0
100
AcDbBlockBegin
  2
*Model_Space
 70
     0
 10
0.0
 20
0.0
 30
0.0
  3
*Model_Space
  1

  0
ENDBLK
  5
21
330
1F
100
AcDbEntity
  8
0
100
AcDbBlockEnd
  0
BLOCK
  5
1C
330
1B
100
AcDbEntity
 67
     1
  8
0
100
AcDbBlockBegin
  2
*Paper_Space
 70
     0
 10
0.0
 20
0.0
 30
0.0
  3
*Paper_Space
  1

  0
ENDBLK
  5
1D
330
1B
100
AcDbEntity
 67
     1
  8
0
100
AcDbBlockEnd
  0
BLOCK
  5
9F
330
9E
100
AcDbEntity
  8
0
100
AcDbBlockBegin
  2
SW_NOTE_0
 70
     0
 10
0.0
 20
0.0
 30
0.0
  3
SW_NOTE_0
  1

  0
MTEXT
  5
A2
330
9E
100
AcDbEntity
  8
0
  6
Continuous
 62
     0
370
     0
100
AcDbMText
 10
0.0
 20
3.0695925553
 30
0.0
 40
2.38125
 41
0.0
 71
     1
 72
     1
  1
FINISH
  7
SLDTEXTSTYLE0
 73
     1
 44
1.0
  0
MTEXT
  5
A3
330
9E
100
AcDbEntity
  8
0
  6
Continuous
 62
     0
370
     0
100
AcDbMText
 10
9.1391494498
 20
3.0695925553
 30
0.0
 40
2.38125
 41
0.0
 71
     1
 72
     1
  1
: Anodize per ISO 7599, black, sealed
  7
SLDTEXTSTYLE0
 73
     1
 44
1.0
  0
ENDBLK
  5
A0
330
9E
100
AcDbEntity
  8
0
100
AcDbBlockEnd
  0
BLOCK
  5
A6
330
A5
100
AcDbEntity
  8
0
100
AcDbBlockBegin
  2
SW_NOTE_1
 70
     0
 10
0.0
 20
0.0
 30
0.0
  3
SW_NOTE_1
  1

  0
MTEXT
  5
A8
330
A5
100
AcDbEntity
  8
0
  6
Continuous
 62
     0
370
     0
100
AcDbMText
 10
0.0
 20
3.0695925553
 30
0.0
 40
2.38125
 41
0.0
 71
     1
 72
     1
  1
SURFACE PREPERATION
  7
SLDTEXTSTYLE0
 73
     1
 44
1.0
  0
MTEXT
  5
A9
330
A5
100
AcDbEntity
  8
0
  6
Continuous
 62
     0
370
     0
100
AcDbMText
 10
33.7619371712
 20
3.0695925553
 30
0.0
 40
2.38125
 41
0.0
 71
     1
 72
     1
  1
: Before finish, remove all machine
  7
SLDTEXTSTYLE0
 73
     1
 44
1.0
  0
MTEXT
  5
AA
330
A5
100
AcDbEntity
  8
0
  6
Continuous
 62
     0
370
     0
100
AcDbMText
 10
0.0
 20
-0.1054074063
 30
0.0
 40
2.38125
 41
0.0
 71
     1
 72
     1
  1
marks, burrs and sharp edges. All holes to be debris free.
  7
SLDTEXTSTYLE0
 73
     1
 44
1.0
  0
ENDBLK
  5
A7
330
A5
100
AcDbEntity
  8
0
100
AcDbBlockEnd
  0
BLOCK
  5
AF
330
AE
100
AcDbEntity
  8
0
100
AcDbBlockBegin
  2
SW_NOTE_2
 70
     0
 10
0.0
 20
0.0
 30
0.0
  3
SW_NOTE_2
  1

  0
MTEXT
  5
B1
330
AE
100
AcDbEntity
  8
0
  6
Continuous
 62
     0
370
     0
100
AcDbMText
 10
0.0
 20
3.0695925553
 30
0.0
 40
2.38125
 41
0.0
 71
     1
 72
     1
  1
MATERIAL
  7
SLDTEXTSTYLE0
 73
     1
 44
1.0
  0
MTEXT
  5
B2
330
AE
100
AcDbEntity
  8
0
  6
Continuous
 62
     0
370
     0
100
AcDbMText
 10
14.403254725
 20
3.0695925553
 30
0.0
 40
2.38125
 41
0.0
 71
     1
 72
     1
  1
: Aluminum Alloy 6061-T6
  7
SLDTEXTSTYLE0
 73
     1
 44
1.0
  0
ENDBLK
  5
B0
330
AE
100
AcDbEntity
  8
0
100
AcDbBlockEnd
  0
BLOCK
  5
BC
330
BB
100
AcDbEntity
  8
0
100
AcDbBlockBegin
  2
SW_NOTE_3
 70
     0
 10
0.0
 20
0.0
 30
0.0
  3
SW_NOTE_3
  1

  0
MTEXT
  5
BE
330
BB
100
AcDbEntity
  8
0
  6
Continuous
 62
     0
370
     0
100
AcDbMText
 10
3.1501953125
 20
2.0463950369
 30
0.0
 40
1.5875
 41
0.0
 71
     2
 72
     1
  1
PAPER
  7
SLDTEXTSTYLE0
 73
     1
 44
1.0
  0
MTEXT
  5
BF
330
BB
100
AcDbEntity
  8
0
  6
Continuous
 62
     0
370
     0
100
AcDbMText
 10
3.2626432646
 20
-1.0702715353
 30
0.0
 40
1.5875
 41
0.0
 71
     2
 72
     1
  1
SIZE
  7
SLDTEXTSTYLE0
 73
     1
 44
1.0
  0
ENDBLK
  5
BD
330
BB
100
AcDbEntity
  8
0
100
AcDbBlockEnd
  0
BLOCK
  5
C2
330
C1
100
AcDbEntity
  8
0
100
AcDbBlockBegin
  2
SW_NOTE_4
 70
     0
 10
0.0
 20
0.0
 30
0.0
  3
SW_NOTE_4
  1

  0
MTEXT
  5
C4
330
C1
100
AcDbEntity
  8
0
  6
Continuous
 62
     0
370
     0
100
AcDbMText
 10
0.0
 20
2.7285267159
 30
0.0
 40
2.1166666667
 41
0.0
 71
     1
 72
     1
  1
UNLESS OTHERWISE SPECIFIED:
  7
SLDTEXTSTYLE0
 73
     1
 44
1.0
  0
MTEXT
  5
C5
330
C1
100
AcDbEntity
  8
0
  6
Continuous
 62
     0
370
     0
100
AcDbMText
 10
0.0
 20
-0.0936954723
 30
0.0
 40
2.1166666667
 41
0.0
 71
     1
 72
     1
  1
DIMENSIONS ARE IN MILLIMETERS
  7
SLDTEXTSTYLE0
 73
     1
 44
1.0
  0
ENDBLK
  5
C3
330
C1
100
AcDbEntity
  8
0
100
AcDbBlockEnd
  0
BLOCK
  5
F4
330
F3
100
AcDbEntity
  8
0
100
AcDbBlockBegin
  2
_CLOSED
 70
     0
 10
0.0
 20
0.0
 30
0.0
  3
_CLOSED
  1

  0
LINE
  5
F6
330
F3
100
AcDbEntity
  8
0
  6
ByBlock
 62
     0
370
    -2
100
AcDbLine
 10
-1.0
 20
0.166667
 30
0.0
 11
0.0
 21
0.0
 31
0.0
  0
LINE
  5
F7
330
F3
100
AcDbEntity
  8
0
  6
ByBlock
 62
     0
370
    -2
100
AcDbLine
 10
0.0
 20
0.0
 30
0.0
 11
-1.0
 21
-0.166667
 31
0.0
  0
LINE
  5
F8
330
F3
100
AcDbEntity
  8
0
  6
ByBlock
 62
     0
370
    -2
100
AcDbLine
 10
-1.0
 20
0.166667
 30
0.0
 11
-1.0
 21
-0.166667
 31
0.0
  0
LINE
  5
F9
330
F3
100
AcDbEntity
  8
0
  6
ByBlock
 62
     0
370
    -2
100
AcDbLine
 10
0.0
 20
0.0
 30
0.0
 11
-1.0
 21
0.0
 31
0.0
  0
ENDBLK
  5
F5
330
F3
100
AcDbEntity
  8
0
100
AcDbBlockEnd
  0
BLOCK
  5
FB
330
FA
100
AcDbEntity
  8
0
100
AcDbBlockBegin
  2
_D
 70
     0
 10
0.0
 20
0.0
 30
0.0
  3
_D
  1

  0
INSERT
  5
FD
330
FA
100
AcDbEntity
  8
0
  6
Continuous
 62
     7
370
    18
100
AcDbBlockReference
  2
_CLOSED
 10
132.5375
 20
129.825
 30
0.0
 41
3.302
 42
3.302
 50
90.0
  0
INSERT
  5
FE
330
FA
100
AcDbEntity
  8
0
  6
Continuous
 62
     7
370
    18
100
AcDbBlockReference
  2
_CLOSED
 10
132.5375
 20
69.825
 30
0.0
 41
3.302
 42
3.302
 50
270.0
  0
LINE
  5
FF
330
FA
100
AcDbEntity
  8
0
  6
Continuous
 62
     7
370
    18
100
AcDbLine
 10
141.5375
 20
129.825
 30
0.0
 11
131.5375
 21
129.825
 31
0.0
  0
LINE
  5
100
330
FA
100
AcDbEntity
  8
0
  6
Continuous
 62
     7
370
    18
100
AcDbLine
 10
141.5375
 20
69.825
 30
0.0
 11
131.5375
 21
69.825
 31
0.0
  0
LINE
  5
101
330
FA
100
AcDbEntity
  8
0
  6
Continuous
 62
     7
370
    18
100
AcDbLine
 10
132.5375
 20
129.825
 30
0.0
 11
132.5375
 21
69.825
 31
0.0
  0
MTEXT
  5
102
330
FA
100
AcDbEntity
  8
0
  6
Continuous
 62
     7
370
    18
100
AcDbMText
 10
128.0257630854
 20
97.2388888065
 30
0.0
 40
3.5
 41
0.0
 71
     1
 72
     1
  1
40
  7
SLDTEXTSTYLE0
 11
-7.044195017643634E-15
 21
1.0
 31
0.0
 73
     1
 44
1.0
  0
ENDBLK
  5
FC
330
FA
100
AcDbEntity
  8
0
100
AcDbBlockEnd
  0
BLOCK
  5
106
330
105
100
AcDbEntity
  8
0
100
AcDbBlockBegin
  2
_D_1
 70
     0
 10
0.0
 20
0.0
 30
0.0
  3
_D_1
  1

  0
INSERT
  5
108
330
105
100
AcDbEntity
  8
0
  6
Continuous
 62
     7
370
    18
100
AcDbBlockReference
  2
_CLOSED
 10
147.0375
 20
110.625
 30
0.0
 41
3.302
 42
3.302
 50
180.0
  0
INSERT
  5
109
330
105
100
AcDbEntity
  8
0
  6
Continuous
 62
     7
370
    18
100
AcDbBlockReference
  2
_CLOSED
 10
142.5375
 20
110.625
 30
0.0
 41
3.302
 42
3.302
 50
0.0
  0
LINE
  5
10A
330
105
100
AcDbEntity
  8
0
  6
Continuous
 62
     7
370
    18
100
AcDbLine
 10
147.0375
 20
107.05
 30
0.0
 11
147.0375
 21
111.625
 31
0.0
  0
LINE
  5
10B
330
105
100
AcDbEntity
  8
0
  6
Continuous
 62
     7
370
    18
100
AcDbLine
 10
147.0375
 20
110.625
 30
0.0
 11
158.4555555968
 21
110.625
 31
0.0
  0
LINE
  5
10C
330
105
100
AcDbEntity
  8
0
  6
Continuous
 62
     7
370
    18
100
AcDbLine
 10
147.0375
 20
110.625
 30
0.0
 11
142.5375
 21
110.625
 31
0.0
  0
LINE
  5
10D
330
105
100
AcDbEntity
  8
0
  6
Continuous
 62
     7
370
    18
100
AcDbLine
 10
142.5375
 20
110.625
 30
0.0
 11
136.1875
 21
110.625
 31
0.0
  0
MTEXT
  5
10E
330
105
100
AcDbEntity
  8
0
  6
Continuous
 62
     7
370
    18
100
AcDbMText
 10
155.8694444032
 20
115.1367369146
 30
0.0
 40
3.5
 41
0.0
 71
     1
 72
     1
  1
3
  7
SLDTEXTSTYLE0
 73
     1
 44
1.0
  0
ENDBLK
  5
107
330
105
100
AcDbEntity
  8
0
100
AcDbBlockEnd
  0
BLOCK
  5
112
330
111
100
AcDbEntity
  8
0
100
AcDbBlockBegin
  2
_NONE
 70
     0
 10
0.0
 20
0.0
 30
0.0
  3
_NONE
  1

  0
ENDBLK
  5
113
330
111
100
AcDbEntity
  8
0
100
AcDbBlockEnd
  0
BLOCK
  5
115
330
114
100
AcDbEntity
  8
0
100
AcDbBlockBegin
  2
_D_2
 70
     0
 10
0.0
 20
0.0
 30
0.0
  3
_D_2
  1

  0
INSERT
  5
117
330
114
100
AcDbEntity
  8
0
  6
Continuous
 62
     7
370
    18
100
AcDbBlockReference
  2
_CLOSED
 10
147.2039734765
 20
96.8296224643
 30
0.0
 41
3.302
 42
3.302
 50
93.1810431763
  0
LINE
  5
118
330
114
100
AcDbEntity
  8
0
  6
Continuous
 62
     7
370
    18
100
AcDbLine
 10
147.2039734765
 20
96.8296224643
 30
0.0
 11
150.0127912469
 21
46.2902222733
 31
0.0
  0
LINE
  5
119
330
114
100
AcDbEntity
  8
0
  6
Continuous
 62
     7
370
    18
100
AcDbLine
 10
146.8710265235
 20
102.8203775357
 30
0.0
 11
147.2039734765
 21
96.8296224643
 31
0.0
  0
LINE
  5
11A
330
114
100
AcDbEntity
  8
0
  6
Continuous
 62
     7
370
    18
100
AcDbLine
 10
150.0127912469
 20
46.2902222733
 30
0.0
 11
207.1188029297
 21
46.2902222733
 31
0.0
  0
MTEXT
  5
11B
330
114
100
AcDbEntity
  8
0
  6
Continuous
 62
     7
370
    18
100
AcDbMText
 10
151.6002912469
 20
61.9679326272
 30
0.0
 40
3.5
 41
0.0
 71
     1
 72
     1
  1
%%c
  7
SLDTEXTSTYLE0
 73
     1
 44
1.0
  0
MTEXT
  5
11C
330
114
100
AcDbEntity
  8
0
  6
Continuous
 62
     7
370
    18
100
AcDbMText
 10
158.1912286453
 20
62.0214048038
 30
0.0
 40
3.5
 41
0.0
 71
     1
 72
     1
  1
3.30 THRU
  7
SLDTEXTSTYLE0
 73
     1
 44
1.0
  0
MTEXT
  5
11D
330
114
100
AcDbEntity
  8
0
  6
Continuous
 62
     7
370
    18
100
AcDbMText
 10
151.6002912469
 20
56.4116824615
 30
0.0
 40
3.5
 41
0.0
 71
     1
 72
     1
  1
M4x0.7  THRU
  7
SLDTEXTSTYLE0
 73
     1
 44
1.0
  0
INSERT
  5
123
330
114
100
AcDbEntity
  8
0
  6
Continuous
 62
     7
370
    18
100
AcDbBlockReference
  2
SW_SYMBOL_HOLE_SINK
 10
151.6002912469
 20
46.7755747671
 30
0.0
 41
0.0044707031
 42
0.0044707031
 43
0.0044707031
  0
MTEXT
  5
124
330
114
100
AcDbEntity
  8
0
  6
Continuous
 62
     7
370
    18
100
AcDbMText
 10
161.0459166042
 20
50.8019602938
 30
0.0
 40
3.5
 41
0.0
 71
     1
 72
     1
  1
%%c
  7
SLDTEXTSTYLE0
 73
     1
 44
1.0
  0
MTEXT
  5
126
330
114
100
AcDbEntity
  8
0
  6
Continuous
 62
     7
370
    18
100
AcDbMText
 10
167.6368540026
 20
50.8554324704
 30
0.0
 40
3.5
 41
0.0
 71
     1
 72
     1
  1
4 X 90°, Near Side
  7
SLDTEXTSTYLE2
 73
     1
 44
1.0
  0
ENDBLK
  5
116
330
114
100
AcDbEntity
  8
0
100
AcDbBlockEnd
  0
BLOCK
  5
11F
330
11E
100
AcDbEntity
  8
0
100
AcDbBlockBegin
  2
SW_SYMBOL_HOLE_SINK
 70
     0
 10
0.0
 20
0.0
 30
0.0
  3
SW_SYMBOL_HOLE_SINK
  1

  0
LINE
  5
121
330
11E
100
AcDbEntity
  8
0
  6
Continuous
 62
     0
370
    18
100
AcDbLine
 10
0.0
 20
875.0
 30
0.0
 11
800.0
 21
75.0
 31
0.0
  0
LINE
  5
122
330
11E
100
AcDbEntity
  8
0
  6
Continuous
 62
     0
370
    18
100
AcDbLine
 10
800.0
 20
75.0
 30
0.0
 11
1600.0
 21
875.0
 31
0.0
  0
ENDBLK
  5
120
330
11E
100
AcDbEntity
  8
0
100
AcDbBlockEnd
  0
BLOCK
  5
128
330
127
100
AcDbEntity
  8
0
100
AcDbBlockBegin
  2
SW_CENTERMARKSYMBOL_0
 70
     0
 10
0.0
 20
0.0
 30
0.0
  3
SW_CENTERMARKSYMBOL_0
  1

  0
LINE
  5
12A
330
127
100
AcDbEntity
  8
0
  6
Continuous
 62
     0
370
     0
100
AcDbLine
 10
0.0
 20
0.0
 30
0.0
 11
0.0
 21
3.75
 31
0.0
  0
LINE
  5
12B
330
127
100
AcDbEntity
  8
0
  6
Continuous
 62
     0
370
     0
100
AcDbLine
 10
0.0
 20
0.0
 30
0.0
 11
-3.75
 21
0.0
 31
0.0
  0
LINE
  5
12C
330
127
100
AcDbEntity
  8
0
  6
Continuous
 62
     0
370
     0
100
AcDbLine
 10
0.0
 20
0.0
 30
0.0
 11
0.0
 21
-3.75
 31
0.0
  0
LINE
  5
12D
330
127
100
AcDbEntity
  8
0
  6
Continuous
 62
     0
370
     0
100
AcDbLine
 10
0.0
 20
0.0
 30
0.0
 11
3.75
 21
0.0
 31
0.0
  0
LINE
  5
12E
330
127
100
AcDbEntity
  8
0
  6
Continuous
 62
     0
370
     0
100
AcDbLine
 10
0.0
 20
3.75
 30
0.0
 11
0.0
 21
6.225
 31
0.0
  0
LINE
  5
12F
330
127
100
AcDbEntity
  8
0
  6
Continuous
 62
     0
370
     0
100
AcDbLine
 10
-3.75
 20
0.0
 30
0.0
 11
-6.225
 21
0.0
 31
0.0
  0
LINE
  5
130
330
127
100
AcDbEntity
  8
0
  6
Continuous
 62
     0
370
     0
100
AcDbLine
 10
0.0
 20
-3.75
 30
0.0
 11
0.0
 21
-6.225
 31
0.0
  0
LINE
  5
131
330
127
100
AcDbEntity
  8
0
  6
Continuous
 62
     0
370
     0
100
AcDbLine
 10
3.75
 20
0.0
 30
0.0
 11
6.225
 21
0.0
 31
0.0
  0
ENDBLK
  5
129
330
127
100
AcDbEntity
  8
0
100
AcDbBlockEnd
  0
BLOCK
  5
162
330
161
100
AcDbEntity
  8
0
100
AcDbBlockBegin
  2
_D_3
 70
     0
 10
0.0
 20
0.0
 30
0.0
  3
_D_3
  1

  0
INSERT
  5
164
330
161
100
AcDbEntity
  8
0
  6
Continuous
 62
     7
370
    18
100
AcDbBlockReference
  2
_CLOSED
 10
197.2125
 20
96.825
 30
-0.75
 41
3.302
 42
3.302
 50
90.0
  0
INSERT
  5
165
330
161
100
AcDbEntity
  8
0
  6
Continuous
 62
     7
370
    18
100
AcDbBlockReference
  2
_CLOSED
 10
197.2125
 20
102.825
 30
-0.75
 41
3.302
 42
3.302
 50
270.0
  0
LINE
  5
166
330
161
100
AcDbEntity
  8
0
  6
Continuous
 62
     7
370
    18
100
AcDbLine
 10
204.4625
 20
96.825
 30
0.0
 11
196.2125
 21
96.825
 31
0.0
  0
LINE
  5
167
330
161
100
AcDbEntity
  8
0
  6
Continuous
 62
     7
370
    18
100
AcDbLine
 10
204.4625
 20
102.825
 30
0.0
 11
196.2125
 21
102.825
 31
0.0
  0
LINE
  5
168
330
161
100
AcDbEntity
  8
0
  6
Continuous
 62
     7
370
    18
100
AcDbLine
 10
197.2125
 20
96.825
 30
0.0
 11
197.2125
 21
90.475
 31
0.0
  0
LINE
  5
169
330
161
100
AcDbEntity
  8
0
  6
Continuous
 62
     7
370
    18
100
AcDbLine
 10
197.2125
 20
96.825
 30
0.0
 11
197.2125
 21
102.825
 31
0.0
  0
LINE
  5
16A
330
161
100
AcDbEntity
  8
0
  6
Continuous
 62
     7
370
    18
100
AcDbLine
 10
197.2125
 20
102.825
 30
0.0
 11
197.2125
 21
109.175
 31
0.0
  0
MTEXT
  5
16B
330
161
100
AcDbEntity
  8
0
  6
Continuous
 62
     7
370
    18
100
AcDbMText
 10
192.7007630854
 20
98.5319444032
 30
0.0
 40
3.5
 41
0.0
 71
     1
 72
     1
  1
4
  7
SLDTEXTSTYLE0
 11
6.123233995736766E-17
 21
1.0
 31
0.0
 73
     1
 44
1.0
  0
ENDBLK
  5
163
330
161
100
AcDbEntity
  8
0
100
AcDbBlockEnd
  0
BLOCK
  5
16E
330
16D
100
AcDbEntity
  8
0
100
AcDbBlockBegin
  2
_D_4
 70
     0
 10
0.0
 20
0.0
 30
0.0
  3
_D_4
  1

  0
INSERT
  5
170
330
16D
100
AcDbEntity
  8
0
  6
Continuous
 62
     7
370
    18
100
AcDbBlockReference
  2
_CLOSED
 10
238.4625
 20
61.125
 30
-0.75
 41
3.302
 42
3.302
 50
180.0
  0
INSERT
  5
171
330
16D
100
AcDbEntity
  8
0
  6
Continuous
 62
     7
370
    18
100
AcDbBlockReference
  2
_CLOSED
 10
232.4625
 20
61.125
 30
-0.75
 41
3.302
 42
3.302
 50
0.0
  0
LINE
  5
172
330
16D
100
AcDbEntity
  8
0
  6
Continuous
 62
     7
370
    18
100
AcDbLine
 10
238.4625
 20
68.825
 30
0.0
 11
238.4625
 21
60.125
 31
0.0
  0
LINE
  5
173
330
16D
100
AcDbEntity
  8
0
  6
Continuous
 62
     7
370
    18
100
AcDbLine
 10
232.4625
 20
68.825
 30
0.0
 11
232.4625
 21
60.125
 31
0.0
  0
LINE
  5
174
330
16D
100
AcDbEntity
  8
0
  6
Continuous
 62
     7
370
    18
100
AcDbLine
 10
238.4625
 20
61.125
 30
0.0
 11
244.8125
 21
61.125
 31
0.0
  0
LINE
  5
175
330
16D
100
AcDbEntity
  8
0
  6
Continuous
 62
     7
370
    18
100
AcDbLine
 10
238.4625
 20
61.125
 30
0.0
 11
232.4625
 21
61.125
 31
0.0
  0
LINE
  5
176
330
16D
100
AcDbEntity
  8
0
  6
Continuous
 62
     7
370
    18
100
AcDbLine
 10
232.4625
 20
61.125
 30
0.0
 11
226.1125
 21
61.125
 31
0.0
  0
MTEXT
  5
177
330
16D
100
AcDbEntity
  8
0
  6
Continuous
 62
     7
370
    18
100
AcDbMText
 10
234.1694444032
 20
65.6367369146
 30
0.0
 40
3.5
 41
0.0
 71
     1
 72
     1
  1
4
  7
SLDTEXTSTYLE0
 73
     1
 44
1.0
  0
ENDBLK
  5
16F
330
16D
100
AcDbEntity
  8
0
100
AcDbBlockEnd
  0
BLOCK
  5
17A
330
179
100
AcDbEntity
  8
0
100
AcDbBlockBegin
  2
_D_5
 70
     0
 10
0.0
 20
0.0
 30
0.0
  3
_D_5
  1

  0
INSERT
  5
17C
330
179
100
AcDbEntity
  8
0
  6
Continuous
 62
     7
370
    18
100
AcDbBlockReference
  2
_CLOSED
 10
253.4625
 20
139.825
 30
-0.75
 41
3.302
 42
3.302
 50
0.0
  0
INSERT
  5
17D
330
179
100
AcDbEntity
  8
0
  6
Continuous
 62
     7
370
    18
100
AcDbBlockReference
  2
_CLOSED
 10
265.4625
 20
139.825
 30
-0.75
 41
3.302
 42
3.302
 50
180.0
  0
LINE
  5
17E
330
179
100
AcDbEntity
  8
0
  6
Continuous
 62
     7
370
    18
100
AcDbLine
 10
253.4625
 20
130.825
 30
0.0
 11
253.4625
 21
140.825
 31
0.0
  0
LINE
  5
17F
330
179
100
AcDbEntity
  8
0
  6
Continuous
 62
     7
370
    18
100
AcDbLine
 10
265.4625
 20
130.825
 30
0.0
 11
265.4625
 21
140.825
 31
0.0
  0
LINE
  5
180
330
179
100
AcDbEntity
  8
0
  6
Continuous
 62
     7
370
    18
100
AcDbLine
 10
253.4625
 20
139.825
 30
0.0
 11
247.1125
 21
139.825
 31
0.0
  0
LINE
  5
181
330
179
100
AcDbEntity
  8
0
  6
Continuous
 62
     7
370
    18
100
AcDbLine
 10
253.4625
 20
139.825
 30
0.0
 11
265.4625
 21
139.825
 31
0.0
  0
LINE
  5
182
330
179
100
AcDbEntity
  8
0
  6
Continuous
 62
     7
370
    18
100
AcDbLine
 10
265.4625
 20
139.825
 30
0.0
 11
271.8125
 21
139.825
 31
0.0
  0
MTEXT
  5
183
330
179
100
AcDbEntity
  8
0
  6
Continuous
 62
     7
370
    18
100
AcDbMText
 10
258.1694444032
 20
144.3367369146
 30
0.0
 40
3.5
 41
0.0
 71
     1
 72
     1
  1
8
  7
SLDTEXTSTYLE0
 73
     1
 44
1.0
  0
ENDBLK
  5
17B
330
179
100
AcDbEntity
  8
0
100
AcDbBlockEnd
  0
BLOCK
  5
186
330
185
100
AcDbEntity
  8
0
100
AcDbBlockBegin
  2
_D_6
 70
     0
 10
0.0
 20
0.0
 30
0.0
  3
_D_6
  1

  0
INSERT
  5
188
330
185
100
AcDbEntity
  8
0
  6
Continuous
 62
     7
370
    18
100
AcDbBlockReference
  2
_CLOSED
 10
275.4625
 20
129.825
 30
-0.75
 41
3.302
 42
3.302
 50
270.0
  0
INSERT
  5
189
330
185
100
AcDbEntity
  8
0
  6
Continuous
 62
     7
370
    18
100
AcDbBlockReference
  2
_CLOSED
 10
275.4625
 20
117.825
 30
-0.75
 41
3.302
 42
3.302
 50
90.0
  0
LINE
  5
18A
330
185
100
AcDbEntity
  8
0
  6
Continuous
 62
     7
370
    18
100
AcDbLine
 10
266.4625
 20
129.825
 30
0.0
 11
276.4625
 21
129.825
 31
0.0
  0
LINE
  5
18B
330
185
100
AcDbEntity
  8
0
  6
Continuous
 62
     7
370
    18
100
AcDbLine
 10
266.4625
 20
117.825
 30
0.0
 11
276.4625
 21
117.825
 31
0.0
  0
LINE
  5
18C
330
185
100
AcDbEntity
  8
0
  6
Continuous
 62
     7
370
    18
100
AcDbLine
 10
275.4625
 20
129.825
 30
0.0
 11
275.4625
 21
136.175
 31
0.0
  0
LINE
  5
18D
330
185
100
AcDbEntity
  8
0
  6
Continuous
 62
     7
370
    18
100
AcDbLine
 10
275.4625
 20
129.825
 30
0.0
 11
275.4625
 21
117.825
 31
0.0
  0
LINE
  5
18E
330
185
100
AcDbEntity
  8
0
  6
Continuous
 62
     7
370
    18
100
AcDbLine
 10
275.4625
 20
117.825
 30
0.0
 11
275.4625
 21
111.475
 31
0.0
  0
MTEXT
  5
18F
330
185
100
AcDbEntity
  8
0
  6
Continuous
 62
     7
370
    18
100
AcDbMText
 10
270.9507630854
 20
122.5319444032
 30
0.0
 40
3.5
 41
0.0
 71
     1
 72
     1
  1
8
  7
SLDTEXTSTYLE0
 11
-7.044195017643634E-15
 21
1.0
 31
0.0
 73
     1
 44
1.0
  0
ENDBLK
  5
187
330
185
100
AcDbEntity
  8
0
100
AcDbBlockEnd
  0
BLOCK
  5
1A8
330
1A7
100
AcDbEntity
  8
0
100
AcDbBlockBegin
  2
_D_7
 70
     0
 10
0.0
 20
0.0
 30
0.0
  3
_D_7
  1

  0
INSERT
  5
1AA
330
1A7
100
AcDbEntity
  8
0
  6
Continuous
 62
     7
370
    18
100
AcDbBlockReference
  2
_CLOSED
 10
192.3
 20
167.55
 30
0.0
 41
3.302
 42
3.302
 50
90.0
  0
INSERT
  5
1AB
330
1A7
100
AcDbEntity
  8
0
  6
Continuous
 62
     7
370
    18
100
AcDbBlockReference
  2
_CLOSED
 10
192.3
 20
181.05
 30
0.0
 41
3.302
 42
3.302
 50
270.0
  0
LINE
  5
1AC
330
1A7
100
AcDbEntity
  8
0
  6
Continuous
 62
     7
370
    18
100
AcDbLine
 10
231.4625
 20
167.55
 30
0.0
 11
191.3
 21
167.55
 31
0.0
  0
LINE
  5
1AD
330
1A7
100
AcDbEntity
  8
0
  6
Continuous
 62
     7
370
    18
100
AcDbLine
 10
204.4625
 20
181.05
 30
0.0
 11
191.3
 21
181.05
 31
0.0
  0
LINE
  5
1AE
330
1A7
100
AcDbEntity
  8
0
  6
Continuous
 62
     7
370
    18
100
AcDbLine
 10
192.3
 20
167.55
 30
0.0
 11
192.3
 21
161.2
 31
0.0
  0
LINE
  5
1AF
330
1A7
100
AcDbEntity
  8
0
  6
Continuous
 62
     7
370
    18
100
AcDbLine
 10
192.3
 20
167.55
 30
0.0
 11
192.3
 21
181.05
 31
0.0
  0
LINE
  5
1B0
330
1A7
100
AcDbEntity
  8
0
  6
Continuous
 62
     7
370
    18
100
AcDbLine
 10
192.3
 20
181.05
 30
0.0
 11
192.3
 21
187.4
 31
0.0
  0
MTEXT
  5
1B1
330
1A7
100
AcDbEntity
  8
0
  6
Continuous
 62
     7
370
    18
100
AcDbMText
 10
187.7882630854
 20
173.0069444032
 30
0.0
 40
3.5
 41
0.0
 71
     1
 72
     1
  1
9
  7
SLDTEXTSTYLE0
 11
6.123233995736766E-17
 21
1.0
 31
0.0
 73
     1
 44
1.0
  0
ENDBLK
  5
1A9
330
1A7
100
AcDbEntity
  8
0
100
AcDbBlockEnd
  0
BLOCK
  5
1B4
330
1B3
100
AcDbEntity
  8
0
100
AcDbBlockBegin
  2
_D_8
 70
     0
 10
0.0
 20
0.0
 30
0.0
  3
_D_8
  1

  0
INSERT
  5
1B6
330
1B3
100
AcDbEntity
  8
0
  6
Continuous
 62
     7
370
    18
100
AcDbBlockReference
  2
_CLOSED
 10
197.9625
 20
169.05
 30
0.0
 41
3.302
 42
3.302
 50
90.0
  0
INSERT
  5
1B7
330
1B3
100
AcDbEntity
  8
0
  6
Continuous
 62
     7
370
    18
100
AcDbBlockReference
  2
_CLOSED
 10
197.9625
 20
181.05
 30
0.0
 41
3.302
 42
3.302
 50
270.0
  0
LINE
  5
1B8
330
1B3
100
AcDbEntity
  8
0
  6
Continuous
 62
     7
370
    18
100
AcDbLine
 10
204.4625
 20
169.05
 30
0.0
 11
196.9625
 21
169.05
 31
0.0
  0
LINE
  5
1B9
330
1B3
100
AcDbEntity
  8
0
  6
Continuous
 62
     7
370
    18
100
AcDbLine
 10
204.4625
 20
181.05
 30
0.0
 11
196.9625
 21
181.05
 31
0.0
  0
LINE
  5
1BA
330
1B3
100
AcDbEntity
  8
0
  6
Continuous
 62
     7
370
    18
100
AcDbLine
 10
197.9625
 20
169.05
 30
0.0
 11
197.9625
 21
162.7
 31
0.0
  0
LINE
  5
1BB
330
1B3
100
AcDbEntity
  8
0
  6
Continuous
 62
     7
370
    18
100
AcDbLine
 10
197.9625
 20
169.05
 30
0.0
 11
197.9625
 21
181.05
 31
0.0
  0
LINE
  5
1BC
330
1B3
100
AcDbEntity
  8
0
  6
Continuous
 62
     7
370
    18
100
AcDbLine
 10
197.9625
 20
181.05
 30
0.0
 11
197.9625
 21
187.4
 31
0.0
  0
MTEXT
  5
1BD
330
1B3
100
AcDbEntity
  8
0
  6
Continuous
 62
     7
370
    18
100
AcDbMText
 10
193.4507630854
 20
173.7569444032
 30
0.0
 40
3.5
 41
0.0
 71
     1
 72
     1
  1
8
  7
SLDTEXTSTYLE0
 11
6.123233995736766E-17
 21
1.0
 31
0.0
 73
     1
 44
1.0
  0
ENDBLK
  5
1B5
330
1B3
100
AcDbEntity
  8
0
100
AcDbBlockEnd
  0
BLOCK
  5
1C0
330
1BF
100
AcDbEntity
  8
0
100
AcDbBlockBegin
  2
_D_9
 70
     0
 10
0.0
 20
0.0
 30
0.0
  3
_D_9
  1

  0
INSERT
  5
1C2
330
1BF
100
AcDbEntity
  8
0
  6
Continuous
 62
     7
370
    18
100
AcDbBlockReference
  2
_CLOSED
 10
265.4625
 20
191.05
 30
0.0
 41
3.302
 42
3.302
 50
0.0
  0
INSERT
  5
1C3
330
1BF
100
AcDbEntity
  8
0
  6
Continuous
 62
     7
370
    18
100
AcDbBlockReference
  2
_CLOSED
 10
205.4625
 20
191.05
 30
0.0
 41
3.302
 42
3.302
 50
180.0
  0
LINE
  5
1C4
330
1BF
100
AcDbEntity
  8
0
  6
Continuous
 62
     7
370
    18
100
AcDbLine
 10
265.4625
 20
182.05
 30
0.0
 11
265.4625
 21
192.05
 31
0.0
  0
LINE
  5
1C5
330
1BF
100
AcDbEntity
  8
0
  6
Continuous
 62
     7
370
    18
100
AcDbLine
 10
205.4625
 20
182.05
 30
0.0
 11
205.4625
 21
192.05
 31
0.0
  0
LINE
  5
1C6
330
1BF
100
AcDbEntity
  8
0
  6
Continuous
 62
     7
370
    18
100
AcDbLine
 10
265.4625
 20
191.05
 30
0.0
 11
205.4625
 21
191.05
 31
0.0
  0
MTEXT
  5
1C7
330
1BF
100
AcDbEntity
  8
0
  6
Continuous
 62
     7
370
    18
100
AcDbMText
 10
232.8763888065
 20
195.5617369146
 30
0.0
 40
3.5
 41
0.0
 71
     1
 72
     1
  1
40
  7
SLDTEXTSTYLE0
 73
     1
 44
1.0
  0
ENDBLK
  5
1C1
330
1BF
100
AcDbEntity
  8
0
100
AcDbBlockEnd
  0
BLOCK
  5
1CA
330
1C9
100
AcDbEntity
  8
0
100
AcDbBlockBegin
  2
_D_10
 70
     0
 10
0.0
 20
0.0
 30
0.0
  3
_D_10
  1

  0
INSERT
  5
1CC
330
1C9
100
AcDbEntity
  8
0
  6
Continuous
 62
     7
370
    18
100
AcDbBlockReference
  2
_CLOSED
 10
248.90625
 20
176.55
 30
0.0
 41
3.302
 42
3.302
 50
90.0
  0
INSERT
  5
1CD
330
1C9
100
AcDbEntity
  8
0
  6
Continuous
 62
     7
370
    18
100
AcDbBlockReference
  2
_CLOSED
 10
248.90625
 20
181.05
 30
0.0
 41
3.302
 42
3.302
 50
270.0
  0
LINE
  5
1CE
330
1C9
100
AcDbEntity
  8
0
  6
Continuous
 62
     7
370
    18
100
AcDbLine
 10
242.6875
 20
176.55
 30
0.0
 11
249.90625
 21
176.55
 31
0.0
  0
LINE
  5
1CF
330
1C9
100
AcDbEntity
  8
0
  6
Continuous
 62
     7
370
    18
100
AcDbLine
 10
248.90625
 20
176.55
 30
0.0
 11
248.90625
 21
164.0069444032
 31
0.0
  0
LINE
  5
1D0
330
1C9
100
AcDbEntity
  8
0
  6
Continuous
 62
     7
370
    18
100
AcDbLine
 10
248.90625
 20
176.55
 30
0.0
 11
248.90625
 21
181.05
 31
0.0
  0
LINE
  5
1D1
330
1C9
100
AcDbEntity
  8
0
  6
Continuous
 62
     7
370
    18
100
AcDbLine
 10
248.90625
 20
181.05
 30
0.0
 11
248.90625
 21
187.4
 31
0.0
  0
MTEXT
  5
1D2
330
1C9
100
AcDbEntity
  8
0
  6
Continuous
 62
     7
370
    18
100
AcDbMText
 10
244.3945130854
 20
164.0069444032
 30
0.0
 40
3.5
 41
0.0
 71
     1
 72
     1
  1
3
  7
SLDTEXTSTYLE0
 11
6.123233995736766E-17
 21
1.0
 31
0.0
 73
     1
 44
1.0
  0
ENDBLK
  5
1CB
330
1C9
100
AcDbEntity
  8
0
100
AcDbBlockEnd
  0
BLOCK
  5
1D5
330
1D4
100
AcDbEntity
  8
0
100
AcDbBlockBegin
  2
_D_11
 70
     0
 10
0.0
 20
0.0
 30
0.0
  3
_D_11
  1

  0
INSERT
  5
1D7
330
1D4
100
AcDbEntity
  8
0
  6
Continuous
 62
     7
370
    18
100
AcDbBlockReference
  2
_CLOSED
 10
233.3402116994
 20
174.4296480554
 30
0.0
 41
3.302
 42
3.302
 50
44.9738500048
  0
LINE
  5
1D8
330
1D4
100
AcDbEntity
  8
0
  6
Continuous
 62
     7
370
    18
100
AcDbLine
 10
233.3402116994
 20
174.4296480554
 30
0.0
 11
206.1598362803
 21
147.2740717575
 31
0.0
  0
LINE
  5
1D9
330
1D4
100
AcDbEntity
  8
0
  6
Continuous
 62
     7
370
    18
100
AcDbLine
 10
237.5847883006
 20
178.6703519446
 30
0.0
 11
233.3402116994
 21
174.4296480554
 31
0.0
  0
LINE
  5
1DA
330
1D4
100
AcDbEntity
  8
0
  6
Continuous
 62
     7
370
    18
100
AcDbLine
 10
206.1598362803
 20
147.2740717575
 30
0.0
 11
149.0538245976
 21
147.2740717575
 31
0.0
  0
MTEXT
  5
1DB
330
1D4
100
AcDbEntity
  8
0
  6
Continuous
 62
     7
370
    18
100
AcDbMText
 10
149.0538245976
 20
162.9517821114
 30
0.0
 40
3.5
 41
0.0
 71
     1
 72
     1
  1
%%c
  7
SLDTEXTSTYLE0
 73
     1
 44
1.0
  0
MTEXT
  5
1DC
330
1D4
100
AcDbEntity
  8
0
  6
Continuous
 62
     7
370
    18
100
AcDbMText
 10
155.644761996
 20
163.0052542881
 30
0.0
 40
3.5
 41
0.0
 71
     1
 72
     1
  1
3.30 THRU
  7
SLDTEXTSTYLE0
 73
     1
 44
1.0
  0
MTEXT
  5
1DD
330
1D4
100
AcDbEntity
  8
0
  6
Continuous
 62
     7
370
    18
100
AcDbMText
 10
149.0538245976
 20
157.3955319457
 30
0.0
 40
3.5
 41
0.0
 71
     1
 72
     1
  1
M4x0.7  THRU
  7
SLDTEXTSTYLE0
 73
     1
 44
1.0
  0
INSERT
  5
1DE
330
1D4
100
AcDbEntity
  8
0
  6
Continuous
 62
     7
370
    18
100
AcDbBlockReference
  2
SW_SYMBOL_HOLE_SINK
 10
149.0538245976
 20
147.7594242513
 30
0.0
 41
0.0044707031
 42
0.0044707031
 43
0.0044707031
  0
MTEXT
  5
1DF
330
1D4
100
AcDbEntity
  8
0
  6
Continuous
 62
     7
370
    18
100
AcDbMText
 10
158.4994499549
 20
151.785809778
 30
0.0
 40
3.5
 41
0.0
 71
     1
 72
     1
  1
%%c
  7
SLDTEXTSTYLE0
 73
     1
 44
1.0
  0
MTEXT
  5
1E0
330
1D4
100
AcDbEntity
  8
0
  6
Continuous
 62
     7
370
    18
100
AcDbMText
 10
165.0903873533
 20
151.8392819547
 30
0.0
 40
3.5
 41
0.0
 71
     1
 72
     1
  1
4 X 90°, Near Side
  7
SLDTEXTSTYLE2
 73
     1
 44
1.0
  0
ENDBLK
  5
1D6
330
1D4
100
AcDbEntity
  8
0
100
AcDbBlockEnd
  0
BLOCK
  5
1E2
330
1E1
100
AcDbEntity
  8
0
100
AcDbBlockBegin
  2
SW_CENTERMARKSYMBOL_1
 70
     0
 10
0.0
 20
0.0
 30
0.0
  3
SW_CENTERMARKSYMBOL_1
  1

  0
LINE
  5
1E4
330
1E1
100
AcDbEntity
  8
0
  6
Continuous
 62
     0
370
     0
100
AcDbLine
 10
0.0
 20
0.0
 30
0.0
 11
0.0
 21
3.75
 31
0.0
  0
LINE
  5
1E5
330
1E1
100
AcDbEntity
  8
0
  6
Continuous
 62
     0
370
     0
100
AcDbLine
 10
0.0
 20
0.0
 30
0.0
 11
-3.75
 21
0.0
 31
0.0
  0
LINE
  5
1E6
330
1E1
100
AcDbEntity
  8
0
  6
Continuous
 62
     0
370
     0
100
AcDbLine
 10
0.0
 20
0.0
 30
0.0
 11
0.0
 21
-3.75
 31
0.0
  0
LINE
  5
1E7
330
1E1
100
AcDbEntity
  8
0
  6
Continuous
 62
     0
370
     0
100
AcDbLine
 10
0.0
 20
0.0
 30
0.0
 11
3.75
 21
0.0
 31
0.0
  0
LINE
  5
1E8
330
1E1
100
AcDbEntity
  8
0
  6
Continuous
 62
     0
370
     0
100
AcDbLine
 10
0.0
 20
3.75
 30
0.0
 11
0.0
 21
6.225
 31
0.0
  0
LINE
  5
1E9
330
1E1
100
AcDbEntity
  8
0
  6
Continuous
 62
     0
370
     0
100
AcDbLine
 10
-3.75
 20
0.0
 30
0.0
 11
-6.225
 21
0.0
 31
0.0
  0
LINE
  5
1EA
330
1E1
100
AcDbEntity
  8
0
  6
Continuous
 62
     0
370
     0
100
AcDbLine
 10
0.0
 20
-3.75
 30
0.0
 11
0.0
 21
-6.225
 31
0.0
  0
LINE
  5
1EB
330
1E1
100
AcDbEntity
  8
0
  6
Continuous
 62
     0
370
     0
100
AcDbLine
 10
3.75
 20
0.0
 30
0.0
 11
6.225
 21
0.0
 31
0.0
  0
ENDBLK
  5
1E3
330
1E1
100
AcDbEntity
  8
0
100
AcDbBlockEnd
  0
BLOCK
  5
1FA
330
1F9
100
AcDbEntity
  8
0
100
AcDbBlockBegin
  2
_D_12
 70
     0
 10
0.0
 20
0.0
 30
0.0
  3
_D_12
  1

  0
INSERT
  5
1FC
330
1F9
100
AcDbEntity
  8
0
  6
Continuous
 62
     7
370
    18
100
AcDbBlockReference
  2
_CLOSED
 10
44.25
 20
123.9487976321
 30
0.75
 41
3.302
 42
3.302
 50
240.0
  0
LINE
  5
1FD
330
1F9
100
AcDbEntity
  8
0
  6
Continuous
 62
     7
370
    18
100
AcDbLine
 10
44.25
 20
123.9487976321
 30
0.0
 11
57.6414065198
 21
147.1433941091
 31
0.0
  0
LINE
  5
1FE
330
1F9
100
AcDbEntity
  8
0
  6
Continuous
 62
     7
370
    18
100
AcDbLine
 10
42.375
 20
120.7012023679
 30
0.0
 11
44.25
 21
123.9487976321
 31
0.0
  0
LINE
  5
1FF
330
1F9
100
AcDbEntity
  8
0
  6
Continuous
 62
     7
370
    18
100
AcDbLine
 10
57.6414065198
 20
147.1433941091
 30
0.0
 11
114.7474182025
 21
147.1433941091
 31
0.0
  0
MTEXT
  5
201
330
1F9
100
AcDbEntity
  8
0
  6
Continuous
 62
     7
370
    18
100
AcDbMText
 10
59.2289065198
 20
162.8745766397
 30
0.0
 40
3.5
 41
0.0
 71
     1
 72
     1
  1
4 x
  7
SLDTEXTSTYLE3
 73
     1
 44
1.0
  0
MTEXT
  5
202
330
1F9
100
AcDbEntity
  8
0
  6
Continuous
 62
     7
370
    18
100
AcDbMText
 10
66.6421010346
 20
162.821104463
 30
0.0
 40
3.5
 41
0.0
 71
     1
 72
     1
  1
%%c
  7
SLDTEXTSTYLE0
 73
     1
 44
1.0
  0
MTEXT
  5
203
330
1F9
100
AcDbEntity
  8
0
  6
Continuous
 62
     7
370
    18
100
AcDbMText
 10
73.2330384329
 20
162.8745766397
 30
0.0
 40
3.5
 41
0.0
 71
     1
 72
     1
  1
2.50 THRU ALL
  7
SLDTEXTSTYLE0
 73
     1
 44
1.0
  0
MTEXT
  5
204
330
1F9
100
AcDbEntity
  8
0
  6
Continuous
 62
     7
370
    18
100
AcDbMText
 10
59.2289065198
 20
157.2648542974
 30
0.0
 40
3.5
 41
0.0
 71
     1
 72
     1
  1
M3x0.5  THRU ALL
  7
SLDTEXTSTYLE0
 73
     1
 44
1.0
  0
INSERT
  5
205
330
1F9
100
AcDbEntity
  8
0
  6
Continuous
 62
     7
370
    18
100
AcDbBlockReference
  2
SW_SYMBOL_HOLE_SINK
 10
59.2289065198
 20
147.6287466029
 30
0.0
 41
0.0044707031
 42
0.0044707031
 43
0.0044707031
  0
MTEXT
  5
206
330
1F9
100
AcDbEntity
  8
0
  6
Continuous
 62
     7
370
    18
100
AcDbMText
 10
68.6745318771
 20
151.6551321296
 30
0.0
 40
3.5
 41
0.0
 71
     1
 72
     1
  1
%%c
  7
SLDTEXTSTYLE0
 73
     1
 44
1.0
  0
MTEXT
  5
207
330
1F9
100
AcDbEntity
  8
0
  6
Continuous
 62
     7
370
    18
100
AcDbMText
 10
75.2654692755
 20
151.7086043063
 30
0.0
 40
3.5
 41
0.0
 71
     1
 72
     1
  1
3 X 90°, Near Side
  7
SLDTEXTSTYLE2
 73
     1
 44
1.0
  0
ENDBLK
  5
1FB
330
1F9
100
AcDbEntity
  8
0
100
AcDbBlockEnd
  0
BLOCK
  5
20A
330
209
100
AcDbEntity
  8
0
100
AcDbBlockBegin
  2
_D_13
 70
     0
 10
0.0
 20
0.0
 30
0.0
  3
_D_13
  1

  0
INSERT
  5
20C
330
209
100
AcDbEntity
  8
0
  6
Continuous
 62
     7
370
    18
100
AcDbBlockReference
  2
_CLOSED
 10
25.8125
 20
122.325
 30
0.75
 41
3.302
 42
3.302
 50
90.0
  0
INSERT
  5
20D
330
209
100
AcDbEntity
  8
0
  6
Continuous
 62
     7
370
    18
100
AcDbBlockReference
  2
_CLOSED
 10
25.8125
 20
77.325
 30
0.75
 41
3.302
 42
3.302
 50
270.0
  0
LINE
  5
20E
330
209
100
AcDbEntity
  8
0
  6
Continuous
 62
     7
370
    18
100
AcDbLine
 10
81.6875
 20
122.325
 30
0.0
 11
24.8125
 21
122.325
 31
0.0
  0
LINE
  5
20F
330
209
100
AcDbEntity
  8
0
  6
Continuous
 62
     7
370
    18
100
AcDbLine
 10
81.6875
 20
77.325
 30
0.0
 11
24.8125
 21
77.325
 31
0.0
  0
LINE
  5
210
330
209
100
AcDbEntity
  8
0
  6
Continuous
 62
     7
370
    18
100
AcDbLine
 10
25.8125
 20
122.325
 30
0.0
 11
25.8125
 21
77.325
 31
0.0
  0
MTEXT
  5
211
330
209
100
AcDbEntity
  8
0
  6
Continuous
 62
     7
370
    18
100
AcDbMText
 10
21.3007630854
 20
97.2388888065
 30
0.0
 40
3.5
 41
0.0
 71
     1
 72
     1
  1
30
  7
SLDTEXTSTYLE0
 11
-7.044195017643634E-15
 21
1.0
 31
0.0
 73
     1
 44
1.0
  0
ENDBLK
  5
20B
330
209
100
AcDbEntity
  8
0
100
AcDbBlockEnd
  0
BLOCK
  5
214
330
213
100
AcDbEntity
  8
0
100
AcDbBlockBegin
  2
_D_14
 70
     0
 10
0.0
 20
0.0
 30
0.0
  3
_D_14
  1

  0
INSERT
  5
216
330
213
100
AcDbEntity
  8
0
  6
Continuous
 62
     7
370
    18
100
AcDbBlockReference
  2
_CLOSED
 10
43.3125
 20
59.825
 30
0.75
 41
3.302
 42
3.302
 50
180.0
  0
INSERT
  5
217
330
213
100
AcDbEntity
  8
0
  6
Continuous
 62
     7
370
    18
100
AcDbBlockReference
  2
_CLOSED
 10
88.3125
 20
59.825
 30
0.75
 41
3.302
 42
3.302
 50
0.0
  0
LINE
  5
218
330
213
100
AcDbEntity
  8
0
  6
Continuous
 62
     7
370
    18
100
AcDbLine
 10
43.3125
 20
115.7
 30
0.0
 11
43.3125
 21
58.825
 31
0.0
  0
LINE
  5
219
330
213
100
AcDbEntity
  8
0
  6
Continuous
 62
     7
370
    18
100
AcDbLine
 10
88.3125
 20
115.7
 30
0.0
 11
88.3125
 21
58.825
 31
0.0
  0
LINE
  5
21A
330
213
100
AcDbEntity
  8
0
  6
Continuous
 62
     7
370
    18
100
AcDbLine
 10
43.3125
 20
59.825
 30
0.0
 11
88.3125
 21
59.825
 31
0.0
  0
MTEXT
  5
21B
330
213
100
AcDbEntity
  8
0
  6
Continuous
 62
     7
370
    18
100
AcDbMText
 10
63.2263888065
 20
64.3367369146
 30
0.0
 40
3.5
 41
0.0
 71
     1
 72
     1
  1
30
  7
SLDTEXTSTYLE0
 73
     1
 44
1.0
  0
ENDBLK
  5
215
330
213
100
AcDbEntity
  8
0
100
AcDbBlockEnd
  0
BLOCK
  5
21F
330
21E
100
AcDbEntity
  8
0
100
AcDbBlockBegin
  2
_D_15
 70
     0
 10
0.0
 20
0.0
 30
0.0
  3
_D_15
  1

  0
INSERT
  5
221
330
21E
100
AcDbEntity
  8
0
  6
Continuous
 62
     7
370
    18
100
AcDbBlockReference
  2
_CLOSED
 10
70.8128839514
 20
81.1633130361
 30
0.75
 41
3.302
 42
3.302
 50
105.0
  0
LINE
  5
222
330
21E
100
AcDbEntity
  8
0
  6
Continuous
 62
     7
370
    18
100
AcDbLine
 10
70.8128839514
 20
81.1633130361
 30
0.0
 11
82.1694412586
 21
38.7800641664
 31
0.0
  0
LINE
  5
223
330
21E
100
AcDbEntity
  8
0
  6
Continuous
 62
     7
370
    18
100
AcDbLine
 10
60.8121160486
 20
118.4866869639
 30
0.0
 11
70.8128839514
 21
81.1633130361
 31
0.0
  0
LINE
  5
224
330
21E
100
AcDbEntity
  8
0
  6
Continuous
 62
     7
370
    18
100
AcDbLine
 10
82.1694412586
 20
38.7800641664
 30
0.0
 11
130.8854174611
 21
38.7800641664
 31
0.0
  0
MTEXT
  5
225
330
21E
100
AcDbEntity
  8
0
  6
Continuous
 62
     7
370
    18
100
AcDbMText
 10
83.7569412586
 20
48.8480517123
 30
0.0
 40
3.5
 41
0.0
 71
     1
 72
     1
  1
%%c
  7
SLDTEXTSTYLE0
 73
     1
 44
1.0
  0
MTEXT
  5
226
330
21E
100
AcDbEntity
  8
0
  6
Continuous
 62
     7
370
    18
100
AcDbMText
 10
89.035378657
 20
48.9015238889
 30
0.0
 40
3.5
 41
0.0
 71
     1
 72
     1
  1
25.76
  7
SLDTEXTSTYLE0
 73
     1
 44
1.0
  0
MTEXT
  5
227
330
21E
100
AcDbEntity
  8
0
  6
Continuous
 62
     7
370
    18
100
AcDbMText
 10
101.9853791443
 20
48.9015238889
 30
0.0
 40
3.5
 41
0.0
 71
     1
 72
     1
  1
THRU All
  7
SLDTEXTSTYLE0
 73
     1
 44
1.0
  0
MTEXT
  5
228
330
21E
100
AcDbEntity
  8
0
  6
Continuous
 62
     7
370
    18
100
AcDbMText
 10
83.7569412586
 20
43.2918015466
 30
0.0
 40
3.5
 41
0.0
 71
     1
 72
     1
  1
1.035" x 40 TPI Thread
  7
SLDTEXTSTYLE0
 73
     1
 44
1.0
  0
ENDBLK
  5
220
330
21E
100
AcDbEntity
  8
0
100
AcDbBlockEnd
  0
BLOCK
  5
22A
330
229
100
AcDbEntity
  8
0
100
AcDbBlockBegin
  2
SW_CENTERMARKSYMBOL_2
 70
     0
 10
0.0
 20
0.0
 30
0.0
  3
SW_CENTERMARKSYMBOL_2
  1

  0
LINE
  5
22C
330
229
100
AcDbEntity
  8
0
  6
Continuous
 62
     0
370
     0
100
AcDbLine
 10
0.0
 20
0.0
 30
0.0
 11
0.0
 21
3.75
 31
0.0
  0
LINE
  5
22D
330
229
100
AcDbEntity
  8
0
  6
Continuous
 62
     0
370
     0
100
AcDbLine
 10
0.0
 20
0.0
 30
0.0
 11
-3.75
 21
0.0
 31
0.0
  0
LINE
  5
22E
330
229
100
AcDbEntity
  8
0
  6
Continuous
 62
     0
370
     0
100
AcDbLine
 10
0.0
 20
0.0
 30
0.0
 11
0.0
 21
-3.75
 31
0.0
  0
LINE
  5
22F
330
229
100
AcDbEntity
  8
0
  6
Continuous
 62
     0
370
     0
100
AcDbLine
 10
0.0
 20
0.0
 30
0.0
 11
3.75
 21
0.0
 31
0.0
  0
LINE
  5
230
330
229
100
AcDbEntity
  8
0
  6
Continuous
 62
     0
370
     0
100
AcDbLine
 10
0.0
 20
3.75
 30
0.0
 11
0.0
 21
5.625
 31
0.0
  0
LINE
  5
231
330
229
100
AcDbEntity
  8
0
  6
Continuous
 62
     0
370
     0
100
AcDbLine
 10
-3.75
 20
0.0
 30
0.0
 11
-5.625
 21
0.0
 31
0.0
  0
LINE
  5
232
330
229
100
AcDbEntity
  8
0
  6
Continuous
 62
     0
370
     0
100
AcDbLine
 10
0.0
 20
-3.75
 30
0.0
 11
0.0
 21
-5.625
 31
0.0
  0
LINE
  5
233
330
229
100
AcDbEntity
  8
0
  6
Continuous
 62
     0
370
     0
100
AcDbLine
 10
3.75
 20
0.0
 30
0.0
 11
5.625
 21
0.0
 31
0.0
  0
ENDBLK
  5
22B
330
229
100
AcDbEntity
  8
0
100
AcDbBlockEnd
  0
BLOCK
  5
236
330
235
100
AcDbEntity
  8
0
100
AcDbBlockBegin
  2
SW_CENTERMARKSYMBOL_3
 70
     0
 10
0.0
 20
0.0
 30
0.0
  3
SW_CENTERMARKSYMBOL_3
  1

  0
LINE
  5
238
330
235
100
AcDbEntity
  8
0
  6
Continuous
 62
     0
370
     0
100
AcDbLine
 10
0.0
 20
0.0
 30
0.0
 11
0.0
 21
3.75
 31
0.0
  0
LINE
  5
239
330
235
100
AcDbEntity
  8
0
  6
Continuous
 62
     0
370
     0
100
AcDbLine
 10
0.0
 20
0.0
 30
0.0
 11
-3.75
 21
0.0
 31
0.0
  0
LINE
  5
23A
330
235
100
AcDbEntity
  8
0
  6
Continuous
 62
     0
370
     0
100
AcDbLine
 10
0.0
 20
0.0
 30
0.0
 11
0.0
 21
-3.75
 31
0.0
  0
LINE
  5
23B
330
235
100
AcDbEntity
  8
0
  6
Continuous
 62
     0
370
     0
100
AcDbLine
 10
0.0
 20
0.0
 30
0.0
 11
3.75
 21
0.0
 31
0.0
  0
LINE
  5
23C
330
235
100
AcDbEntity
  8
0
  6
Continuous
 62
     0
370
     0
100
AcDbLine
 10
0.0
 20
3.75
 30
0.0
 11
0.0
 21
5.625
 31
0.0
  0
LINE
  5
23D
330
235
100
AcDbEntity
  8
0
  6
Continuous
 62
     0
370
     0
100
AcDbLine
 10
-3.75
 20
0.0
 30
0.0
 11
-5.625
 21
0.0
 31
0.0
  0
LINE
  5
23E
330
235
100
AcDbEntity
  8
0
  6
Continuous
 62
     0
370
     0
100
AcDbLine
 10
0.0
 20
-3.75
 30
0.0
 11
0.0
 21
-5.625
 31
0.0
  0
LINE
  5
23F
330
235
100
AcDbEntity
  8
0
  6
Continuous
 62
     0
370
     0
100
AcDbLine
 10
3.75
 20
0.0
 30
0.0
 11
5.625
 21
0.0
 31
0.0
  0
ENDBLK
  5
237
330
235
100
AcDbEntity
  8
0
100
AcDbBlockEnd
  0
BLOCK
  5
242
330
241
100
AcDbEntity
  8
0
100
AcDbBlockBegin
  2
SW_CENTERMARKSYMBOL_4
 70
     0
 10
0.0
 20
0.0
 30
0.0
  3
SW_CENTERMARKSYMBOL_4
  1

  0
LINE
  5
244
330
241
100
AcDbEntity
  8
0
  6
Continuous
 62
     0
370
     0
100
AcDbLine
 10
0.0
 20
0.0
 30
0.0
 11
0.0
 21
3.75
 31
0.0
  0
LINE
  5
245
330
241
100
AcDbEntity
  8
0
  6
Continuous
 62
     0
370
     0
100
AcDbLine
 10
0.0
 20
0.0
 30
0.0
 11
-3.75
 21
0.0
 31
0.0
  0
LINE
  5
246
330
241
100
AcDbEntity
  8
0
  6
Continuous
 62
     0
370
     0
100
AcDbLine
 10
0.0
 20
0.0
 30
0.0
 11
0.0
 21
-3.75
 31
0.0
  0
LINE
  5
247
330
241
100
AcDbEntity
  8
0
  6
Continuous
 62
     0
370
     0
100
AcDbLine
 10
0.0
 20
0.0
 30
0.0
 11
3.75
 21
0.0
 31
0.0
  0
LINE
  5
248
330
241
100
AcDbEntity
  8
0
  6
Continuous
 62
     0
370
     0
100
AcDbLine
 10
0.0
 20
3.75
 30
0.0
 11
0.0
 21
5.625
 31
0.0
  0
LINE
  5
249
330
241
100
AcDbEntity
  8
0
  6
Continuous
 62
     0
370
     0
100
AcDbLine
 10
-3.75
 20
0.0
 30
0.0
 11
-5.625
 21
0.0
 31
0.0
  0
LINE
  5
24A
330
241
100
AcDbEntity
  8
0
  6
Continuous
 62
     0
370
     0
100
AcDbLine
 10
0.0
 20
-3.75
 30
0.0
 11
0.0
 21
-5.625
 31
0.0
  0
LINE
  5
24B
330
241
100
AcDbEntity
  8
0
  6
Continuous
 62
     0
370
     0
100
AcDbLine
 10
3.75
 20
0.0
 30
0.0
 11
5.625
 21
0.0
 31
0.0
  0
ENDBLK
  5
243
330
241
100
AcDbEntity
  8
0
100
AcDbBlockEnd
  0
BLOCK
  5
24E
330
24D
100
AcDbEntity
  8
0
100
AcDbBlockBegin
  2
SW_CENTERMARKSYMBOL_5
 70
     0
 10
0.0
 20
0.0
 30
0.0
  3
SW_CENTERMARKSYMBOL_5
  1

  0
LINE
  5
250
330
24D
100
AcDbEntity
  8
0
  6
Continuous
 62
     0
370
     0
100
AcDbLine
 10
0.0
 20
0.0
 30
0.0
 11
0.0
 21
3.75
 31
0.0
  0
LINE
  5
251
330
24D
100
AcDbEntity
  8
0
  6
Continuous
 62
     0
370
     0
100
AcDbLine
 10
0.0
 20
0.0
 30
0.0
 11
-3.75
 21
0.0
 31
0.0
  0
LINE
  5
252
330
24D
100
AcDbEntity
  8
0
  6
Continuous
 62
     0
370
     0
100
AcDbLine
 10
0.0
 20
0.0
 30
0.0
 11
0.0
 21
-3.75
 31
0.0
  0
LINE
  5
253
330
24D
100
AcDbEntity
  8
0
  6
Continuous
 62
     0
370
     0
100
AcDbLine
 10
0.0
 20
0.0
 30
0.0
 11
3.75
 21
0.0
 31
0.0
  0
LINE
  5
254
330
24D
100
AcDbEntity
  8
0
  6
Continuous
 62
     0
370
     0
100
AcDbLine
 10
0.0
 20
3.75
 30
0.0
 11
0.0
 21
5.625
 31
0.0
  0
LINE
  5
255
330
24D
100
AcDbEntity
  8
0
  6
Continuous
 62
     0
370
     0
100
AcDbLine
 10
-3.75
 20
0.0
 30
0.0
 11
-5.625
 21
0.0
 31
0.0
  0
LINE
  5
256
330
24D
100
AcDbEntity
  8
0
  6
Continuous
 62
     0
370
     0
100
AcDbLine
 10
0.0
 20
-3.75
 30
0.0
 11
0.0
 21
-5.625
 31
0.0
  0
LINE
  5
257
330
24D
100
AcDbEntity
  8
0
  6
Continuous
 62
     0
370
     0
100
AcDbLine
 10
3.75
 20
0.0
 30
0.0
 11
5.625
 21
0.0
 31
0.0
  0
ENDBLK
  5
24F
330
24D
100
AcDbEntity
  8
0
100
AcDbBlockEnd
  0
BLOCK
  5
28D
330
28C
100
AcDbEntity
  8
0
100
AcDbBlockBegin
  2
SW_NOTE_5
 70
     0
 10
0.0
 20
0.0
 30
0.0
  3
SW_NOTE_5
  1

  0
MTEXT
  5
28F
330
28C
100
AcDbEntity
  8
0
  6
Continuous
 62
     0
370
     0
100
AcDbMText
 10
0.0
 20
3.0695925553
 30
0.0
 40
2.38125
 41
0.0
 71
     1
 72
     1
  1
FINISH
  7
SLDTEXTSTYLE0
 73
     1
 44
1.0
  0
MTEXT
  5
290
330
28C
100
AcDbEntity
  8
0
  6
Continuous
 62
     0
370
     0
100
AcDbMText
 10
9.1391494498
 20
3.0695925553
 30
0.0
 40
2.38125
 41
0.0
 71
     1
 72
     1
  1
: Anodize per ISO 7599, black, sealed
  7
SLDTEXTSTYLE0
 73
     1
 44
1.0
  0
ENDBLK
  5
28E
330
28C
100
AcDbEntity
  8
0
100
AcDbBlockEnd
  0
BLOCK
  5
293
330
292
100
AcDbEntity
  8
0
100
AcDbBlockBegin
  2
SW_NOTE_6
 70
     0
 10
0.0
 20
0.0
 30
0.0
  3
SW_NOTE_6
  1

  0
MTEXT
  5
295
330
292
100
AcDbEntity
  8
0
  6
Continuous
 62
     0
370
     0
100
AcDbMText
 10
0.0
 20
3.0695925553
 30
0.0
 40
2.38125
 41
0.0
 71
     1
 72
     1
  1
SURFACE PREPERATION
  7
SLDTEXTSTYLE0
 73
     1
 44
1.0
  0
MTEXT
  5
296
330
292
100
AcDbEntity
  8
0
  6
Continuous
 62
     0
370
     0
100
AcDbMText
 10
33.7619371712
 20
3.0695925553
 30
0.0
 40
2.38125
 41
0.0
 71
     1
 72
     1
  1
: Before finish, remove all machine
  7
SLDTEXTSTYLE0
 73
     1
 44
1.0
  0
MTEXT
  5
297
330
292
100
AcDbEntity
  8
0
  6
Continuous
 62
     0
370
     0
100
AcDbMText
 10
0.0
 20
-0.1054074063
 30
0.0
 40
2.38125
 41
0.0
 71
     1
 72
     1
  1
marks, burrs and sharp edges. All holes to be debris free.
  7
SLDTEXTSTYLE0
 73
     1
 44
1.0
  0
ENDBLK
  5
294
330
292
100
AcDbEntity
  8
0
100
AcDbBlockEnd
  0
BLOCK
  5
29C
330
29B
100
AcDbEntity
  8
0
100
AcDbBlockBegin
  2
SW_NOTE_7
 70
     0
 10
0.0
 20
0.0
 30
0.0
  3
SW_NOTE_7
  1

  0
MTEXT
  5
29E
330
29B
100
AcDbEntity
  8
0
  6
Continuous
 62
     0
370
     0
100
AcDbMText
 10
0.0
 20
3.0695925553
 30
0.0
 40
2.38125
 41
0.0
 71
     1
 72
     1
  1
MATERIAL
  7
SLDTEXTSTYLE0
 73
     1
 44
1.0
  0
MTEXT
  5
29F
330
29B
100
AcDbEntity
  8
0
  6
Continuous
 62
     0
370
     0
100
AcDbMText
 10
14.403254725
 20
3.0695925553
 30
0.0
 40
2.38125
 41
0.0
 71
     1
 72
     1
  1
: Aluminum Alloy 6061-T6
  7
SLDTEXTSTYLE0
 73
     1
 44
1.0
  0
ENDBLK
  5
29D
330
29B
100
AcDbEntity
  8
0
100
AcDbBlockEnd
  0
BLOCK
  5
2BC
330
2BB
100
AcDbEntity
  8
0
100
AcDbBlockBegin
  2
SW_NOTE_8
 70
     0
 10
0.0
 20
0.0
 30
0.0
  3
SW_NOTE_8
  1

  0
MTEXT
  5
2BE
330
2BB
100
AcDbEntity
  8
0
  6
Continuous
 62
     0
370
     0
100
AcDbMText
 10
3.1501953125
 20
2.0463950369
 30
0.0
 40
1.5875
 41
0.0
 71
     2
 72
     1
  1
PAPER
  7
SLDTEXTSTYLE0
 73
     1
 44
1.0
  0
MTEXT
  5
2BF
330
2BB
100
AcDbEntity
  8
0
  6
Continuous
 62
     0
370
     0
100
AcDbMText
 10
3.2626432646
 20
-1.0702715353
 30
0.0
 40
1.5875
 41
0.0
 71
     2
 72
     1
  1
SIZE
  7
SLDTEXTSTYLE0
 73
     1
 44
1.0
  0
ENDBLK
  5
2BD
330
2BB
100
AcDbEntity
  8
0
100
AcDbBlockEnd
  0
BLOCK
  5
2C2
330
2C1
100
AcDbEntity
  8
0
100
AcDbBlockBegin
  2
SW_NOTE_9
 70
     0
 10
0.0
 20
0.0
 30
0.0
  3
SW_NOTE_9
  1

  0
MTEXT
  5
2C4
330
2C1
100
AcDbEntity
  8
0
  6
Continuous
 62
     0
370
     0
100
AcDbMText
 10
0.0
 20
2.7285267159
 30
0.0
 40
2.1166666667
 41
0.0
 71
     1
 72
     1
  1
UNLESS OTHERWISE SPECIFIED:
  7
SLDTEXTSTYLE0
 73
     1
 44
1.0
  0
MTEXT
  5
2C5
330
2C1
100
AcDbEntity
  8
0
  6
Continuous
 62
     0
370
     0
100
AcDbMText
 10
0.0
 20
-0.0936954723
 30
0.0
 40
2.1166666667
 41
0.0
 71
     1
 72
     1
  1
DIMENSIONS ARE IN MILLIMETERS
  7
SLDTEXTSTYLE0
 73
     1
 44
1.0
  0
ENDBLK
  5
2C3
330
2C1
100
AcDbEntity
  8
0
100
AcDbBlockEnd
  0
BLOCK
  5
320
330
31F
100
AcDbEntity
  8
0
100
AcDbBlockBegin
  2
SW_NOTE_10
 70
     0
 10
0.0
 20
0.0
 30
0.0
  3
SW_NOTE_10
  1

  0
LINE
  5
322
330
31F
100
AcDbEntity
  8
0
  6
Continuous
 62
     0
370
     0
100
AcDbLine
 10
170.1096258995
 20
0.0
 30
0.0
 11
0.0
 21
0.0
 31
0.0
  0
MTEXT
  5
323
330
31F
100
AcDbEntity
  8
0
  6
Continuous
 62
     0
370
     0
100
AcDbMText
 10
0.4393907563
 20
18.0730643781
 30
0.0
 40
3.5
 41
0.0
 71
     1
 72
     1
  1
Internal "SM1" thread. SM1 thread is used by a compnay called Thorlabs.
  7
SLDTEXTSTYLE0
 73
     1
 44
1.0
  0
MTEXT
  5
324
330
31F
100
AcDbEntity
  8
0
  6
Continuous
 62
     0
370
     0
100
AcDbMText
 10
0.4393907563
 20
13.5473698476
 30
0.0
 40
3.5
 41
0.0
 71
     1
 72
     1
  1
Thorlabs gives SM1 as 1.035 inch x 40 TPI. They sell a specialty tap for SM1
  7
SLDTEXTSTYLE0
 73
     1
 44
1.0
  0
MTEXT
  5
325
330
31F
100
AcDbEntity
  8
0
  6
Continuous
 62
     0
370
     0
100
AcDbMText
 10
0.4393907563
 20
9.0216753171
 30
0.0
 40
3.5
 41
0.0
 71
     1
 72
     1
  1
and callout the pilot bore diameter as 1.011
  7
SLDTEXTSTYLE0
 73
     1
 44
1.0
  0
MTEXT
  5
326
330
31F
100
AcDbEntity
  8
0
  6
Continuous
 62
     0
370
     0
100
AcDbMText
 10
99.4845332877
 20
9.0216753171
 30
0.0
 40
3.5
 41
0.0
 71
     1
 72
     1
  1
%%p
  7
SLDTEXTSTYLE0
 73
     1
 44
1.0
  0
MTEXT
  5
327
330
31F
100
AcDbEntity
  8
0
  6
Continuous
 62
     0
370
     0
100
AcDbMText
 10
104.1307806746
 20
9.0216753171
 30
0.0
 40
3.5
 41
0.0
 71
     1
 72
     1
  1
0.003 inch (25.68
  7
SLDTEXTSTYLE0
 73
     1
 44
1.0
  0
MTEXT
  5
328
330
31F
100
AcDbEntity
  8
0
  6
Continuous
 62
     0
370
     0
100
AcDbMText
 10
141.3328649775
 20
9.0216753171
 30
0.0
 40
3.5
 41
0.0
 71
     1
 72
     1
  1
%%p
  7
SLDTEXTSTYLE0
 73
     1
 44
1.0
  0
MTEXT
  5
329
330
31F
100
AcDbEntity
  8
0
  6
Continuous
 62
     0
370
     0
100
AcDbMText
 10
145.9791123645
 20
9.0216753171
 30
0.0
 40
3.5
 41
0.0
 71
     1
 72
     1
  1
0.076 mm).
  7
SLDTEXTSTYLE0
 73
     1
 44
1.0
  0
MTEXT
  5
32A
330
31F
100
AcDbEntity
  8
0
  6
Continuous
 62
     0
370
     0
100
AcDbMText
 10
0.4393907563
 20
4.4959807867
 30
0.0
 40
3.5
 41
0.0
 71
     1
 72
     1
  1
However, internal SM1 threads typically measure Ø25.76 mm.
  7
SLDTEXTSTYLE0
 73
     1
 44
1.0
  0
ENDBLK
  5
321
330
31F
100
AcDbEntity
  8
0
100
AcDbBlockEnd
  0
BLOCK
  5
32E
330
32D
100
AcDbEntity
  8
0
100
AcDbBlockBegin
  2
_DOT
 70
     0
 10
0.0
 20
0.0
 30
0.0
  3
_DOT
  1

  0
POLYLINE
  5
330
330
32D
100
AcDbEntity
  8
0
  6
ByBlock
 62
     0
100
AcDb2dPolyline
 66
     1
 10
0.0
 20
0.0
 30
0.0
 70
     1
 40
0.5
 41
0.5
  0
VERTEX
  5
332
330
330
100
AcDbEntity
  8
0
  6
ByBlock
 62
     0
100
AcDbVertex
100
AcDb2dVertex
 10
-0.25
 20
0.0
 30
0.0
 42
1.0
  0
VERTEX
  5
333
330
330
100
AcDbEntity
  8
0
  6
ByBlock
 62
     0
100
AcDbVertex
100
AcDb2dVertex
 10
0.25
 20
0.0
 30
0.0
 42
1.0
  0
SEQEND
  5
334
330
330
100
AcDbEntity
  8
0
  6
ByBlock
 62
     0
  0
LINE
  5
331
330
32D
100
AcDbEntity
  8
0
  6
ByBlock
 62
     0
370
    -2
100
AcDbLine
 10
-0.5
 20
0.0
 30
0.0
 11
-1.0
 21
0.0
 31
0.0
  0
ENDBLK
  5
32F
330
32D
100
AcDbEntity
  8
0
100
AcDbBlockEnd
  0
ENDSEC
  0
SECTION
  2
ENTITIES
  0
LINE
  5
73
330
1F
100
AcDbEntity
  8
0
  6
Continuous
 62
     7
370
    25
100
AcDbLine
 10
6.5
 20
18.5
 30
0.0
 11
16.5
 21
18.5
 31
0.0
  0
LINE
  5
74
330
1F
100
AcDbEntity
  8
0
  6
Continuous
 62
     7
370
    25
100
AcDbLine
 10
16.5
 20
18.5
 30
0.0
 11
16.5
 21
6.501
 31
0.0
  0
LINE
  5
75
330
1F
100
AcDbEntity
  8
0
  6
Continuous
 62
     7
370
    25
100
AcDbLine
 10
76.5
 20
6.501
 30
0.0
 11
76.5
 21
18.501
 31
0.0
  0
LINE
  5
76
330
1F
100
AcDbEntity
  8
0
  6
Continuous
 62
     7
370
    25
100
AcDbLine
 10
76.5
 20
18.501
 30
0.0
 11
86.5
 21
18.501
 31
0.0
  0
LINE
  5
77
330
1F
100
AcDbEntity
  8
0
  6
Continuous
 62
     7
370
    25
100
AcDbLine
 10
86.5
 20
18.501
 30
0.0
 11
86.5
 21
6.501
 31
0.0
  0
LINE
  5
78
330
1F
100
AcDbEntity
  8
0
  6
Continuous
 62
     7
370
    25
100
AcDbLine
 10
16.5
 20
10.001
 30
0.0
 11
76.5
 21
10.001
 31
0.0
  0
LINE
  5
79
330
1F
100
AcDbEntity
  8
0
  6
Continuous
 62
     7
370
    25
100
AcDbLine
 10
46.5
 20
10.001
 30
0.0
 11
46.5
 21
6.501
 31
0.0
  0
LINE
  5
7A
330
1F
100
AcDbEntity
  8
0
  6
Continuous
 62
     7
370
    25
100
AcDbLine
 10
16.5
 20
18.5
 30
0.0
 11
76.5
 21
18.5
 31
0.0
  0
LINE
  5
7B
330
1F
100
AcDbEntity
  8
0
  6
Continuous
 62
     7
370
    25
100
AcDbLine
 10
6.5
 20
24.5
 30
0.0
 11
86.5
 21
24.5
 31
0.0
  0
LINE
  5
7C
330
1F
100
AcDbEntity
  8
0
  6
Continuous
 62
     7
370
    25
100
AcDbLine
 10
86.5
 20
24.5
 30
0.0
 11
86.5
 21
18.501
 31
0.0
  0
LINE
  5
7D
330
1F
100
AcDbEntity
  8
0
  6
Continuous
 62
     7
370
    25
100
AcDbLine
 10
86.5
 20
24.5
 30
0.0
 11
107.5
 21
24.5
 31
0.0
  0
LINE
  5
7E
330
1F
100
AcDbEntity
  8
0
  6
Continuous
 62
     7
370
    25
100
AcDbLine
 10
107.5
 20
24.5
 30
0.0
 11
107.5
 21
6.501
 31
0.0
  0
LINE
  5
7F
330
1F
100
AcDbEntity
  8
0
  6
Continuous
 62
     7
370
    25
100
AcDbLine
 10
107.5
 20
24.5
 30
0.0
 11
121.5
 21
24.5
 31
0.0
  0
LINE
  5
80
330
1F
100
AcDbEntity
  8
0
  6
Continuous
 62
     7
370
    25
100
AcDbLine
 10
121.5
 20
24.5
 30
0.0
 11
121.5
 21
6.501
 31
0.0
  0
LINE
  5
81
330
1F
100
AcDbEntity
  8
0
  6
Continuous
 62
     7
370
    25
100
AcDbLine
 10
86.5
 20
21.501
 30
0.0
 11
121.5
 21
21.501
 31
0.0
  0
LINE
  5
82
330
1F
100
AcDbEntity
  8
0
  6
Continuous
 62
     7
370
    18
100
AcDbLine
 10
86.5
 20
18.501
 30
0.0
 11
121.5
 21
18.501
 31
0.0
  0
LINE
  5
83
330
1F
100
AcDbEntity
  8
0
  6
Continuous
 62
     7
370
    18
100
AcDbLine
 10
86.5
 20
15.501
 30
0.0
 11
121.5
 21
15.501
 31
0.0
  0
LINE
  5
84
330
1F
100
AcDbEntity
  8
0
  6
Continuous
 62
     7
370
    18
100
AcDbLine
 10
86.5
 20
12.501
 30
0.0
 11
121.5
 21
12.501
 31
0.0
  0
LINE
  5
85
330
1F
100
AcDbEntity
  8
0
  6
Continuous
 62
     7
370
    18
100
AcDbLine
 10
86.5
 20
9.501
 30
0.0
 11
121.5
 21
9.501
 31
0.0
  0
LINE
  5
86
330
1F
100
AcDbEntity
  8
0
  6
Continuous
 62
     7
370
    35
100
AcDbLine
 10
6.5
 20
52.5
 30
0.0
 11
4.0
 21
52.5
 31
0.0
  0
LINE
  5
87
330
1F
100
AcDbEntity
  8
0
  6
Continuous
 62
     7
370
    35
100
AcDbLine
 10
290.5
 20
52.5
 30
0.0
 11
293.0
 21
52.5
 31
0.0
  0
LINE
  5
88
330
1F
100
AcDbEntity
  8
0
  6
Continuous
 62
     7
370
    50
100
AcDbLine
 10
6.5
 20
6.501
 30
0.0
 11
6.5
 21
203.5
 31
0.0
  0
LINE
  5
89
330
1F
100
AcDbEntity
  8
0
  6
Continuous
 62
     7
370
    50
100
AcDbLine
 10
6.5
 20
203.5
 30
0.0
 11
290.5
 21
203.5
 31
0.0
  0
LINE
  5
8A
330
1F
100
AcDbEntity
  8
0
  6
Continuous
 62
     7
370
    50
100
AcDbLine
 10
290.5
 20
203.5
 30
0.0
 11
290.5
 21
6.501
 31
0.0
  0
LINE
  5
8B
330
1F
100
AcDbEntity
  8
0
  6
Continuous
 62
     7
370
    50
100
AcDbLine
 10
290.5
 20
6.501
 30
0.0
 11
6.5
 21
6.501
 31
0.0
  0
LINE
  5
8C
330
1F
100
AcDbEntity
  8
0
  6
Continuous
 62
     7
370
    35
100
AcDbLine
 10
3.999
 20
105.0
 30
0.0
 11
6.501
 21
105.0
 31
0.0
  0
LINE
  5
8D
330
1F
100
AcDbEntity
  8
0
  6
Continuous
 62
     7
370
    35
100
AcDbLine
 10
148.5
 20
206.001
 30
0.0
 11
148.5
 21
203.499
 31
0.0
  0
LINE
  5
8E
330
1F
100
AcDbEntity
  8
0
  6
Continuous
 62
     7
370
    35
100
AcDbLine
 10
293.001
 20
105.0
 30
0.0
 11
290.499
 21
105.0
 31
0.0
  0
LINE
  5
8F
330
1F
100
AcDbEntity
  8
0
  6
Continuous
 62
     7
370
    35
100
AcDbLine
 10
148.5
 20
3.999
 30
0.0
 11
148.5
 21
6.501
 31
0.0
  0
LINE
  5
90
330
1F
100
AcDbEntity
  8
0
  6
Continuous
 62
     7
370
    35
100
AcDbLine
 10
6.5
 20
105.0
 30
0.0
 11
4.0
 21
105.0
 31
0.0
  0
LINE
  5
91
330
1F
100
AcDbEntity
  8
0
  6
Continuous
 62
     7
370
    35
100
AcDbLine
 10
290.5
 20
105.0
 30
0.0
 11
293.0
 21
105.0
 31
0.0
  0
LINE
  5
92
330
1F
100
AcDbEntity
  8
0
  6
Continuous
 62
     7
370
    35
100
AcDbLine
 10
6.5
 20
157.5
 30
0.0
 11
4.0
 21
157.5
 31
0.0
  0
LINE
  5
93
330
1F
100
AcDbEntity
  8
0
  6
Continuous
 62
     7
370
    35
100
AcDbLine
 10
290.5
 20
157.5
 30
0.0
 11
293.0
 21
157.5
 31
0.0
  0
LINE
  5
94
330
1F
100
AcDbEntity
  8
0
  6
Continuous
 62
     7
370
    35
100
AcDbLine
 10
49.5
 20
203.5
 30
0.0
 11
49.5
 21
206.0
 31
0.0
  0
LINE
  5
95
330
1F
100
AcDbEntity
  8
0
  6
Continuous
 62
     7
370
    35
100
AcDbLine
 10
49.5
 20
6.5
 30
0.0
 11
49.5
 21
4.0
 31
0.0
  0
LINE
  5
96
330
1F
100
AcDbEntity
  8
0
  6
Continuous
 62
     7
370
    35
100
AcDbLine
 10
99.0
 20
203.5
 30
0.0
 11
99.0
 21
206.0
 31
0.0
  0
LINE
  5
97
330
1F
100
AcDbEntity
  8
0
  6
Continuous
 62
     7
370
    35
100
AcDbLine
 10
99.0
 20
6.5
 30
0.0
 11
99.0
 21
4.0
 31
0.0
  0
LINE
  5
98
330
1F
100
AcDbEntity
  8
0
  6
Continuous
 62
     7
370
    35
100
AcDbLine
 10
148.5
 20
203.5
 30
0.0
 11
148.5
 21
206.0
 31
0.0
  0
LINE
  5
99
330
1F
100
AcDbEntity
  8
0
  6
Continuous
 62
     7
370
    35
100
AcDbLine
 10
148.5
 20
6.5
 30
0.0
 11
148.5
 21
4.0
 31
0.0
  0
LINE
  5
9A
330
1F
100
AcDbEntity
  8
0
  6
Continuous
 62
     7
370
    35
100
AcDbLine
 10
198.0
 20
203.5
 30
0.0
 11
198.0
 21
206.0
 31
0.0
  0
LINE
  5
9B
330
1F
100
AcDbEntity
  8
0
  6
Continuous
 62
     7
370
    35
100
AcDbLine
 10
198.0
 20
6.5
 30
0.0
 11
198.0
 21
4.0
 31
0.0
  0
LINE
  5
9C
330
1F
100
AcDbEntity
  8
0
  6
Continuous
 62
     7
370
    35
100
AcDbLine
 10
247.5
 20
203.5
 30
0.0
 11
247.5
 21
206.0
 31
0.0
  0
LINE
  5
9D
330
1F
100
AcDbEntity
  8
0
  6
Continuous
 62
     7
370
    35
100
AcDbLine
 10
247.5
 20
6.5
 30
0.0
 11
247.5
 21
4.0
 31
0.0
  0
INSERT
  5
A4
330
1F
100
AcDbEntity
  8
0
  6
Continuous
 62
     7
370
     0
100
AcDbBlockReference
  2
SW_NOTE_0
 10
11.4000852605
 20
188.0194397451
 30
0.0
  0
INSERT
  5
AB
330
1F
100
AcDbEntity
  8
0
  6
Continuous
 62
     7
370
     0
100
AcDbBlockReference
  2
SW_NOTE_1
 10
11.4000852605
 20
180.718061212
 30
0.0
  0
MTEXT
  5
AC
330
1F
100
AcDbEntity
  8
0
  6
Continuous
 62
     7
370
     0
100
AcDbMText
 10
96.9348960165
 20
23.8441056926
 30
0.0
 40
1.5
 41
0.0
 71
     2
 72
     1
  1
NAME
  7
SLDTEXTSTYLE0
 73
     1
 44
1.0
  0
MTEXT
  5
AD
330
1F
100
AcDbEntity
  8
0
  6
Continuous
 62
     7
370
     0
100
AcDbMText
 10
114.0641927183
 20
23.8441056926
 30
0.0
 40
1.5
 41
0.0
 71
     2
 72
     1
  1
DATE
  7
SLDTEXTSTYLE0
 73
     1
 44
1.0
  0
INSERT
  5
B3
330
1F
100
AcDbEntity
  8
0
  6
Continuous
 62
     7
370
     0
100
AcDbBlockReference
  2
SW_NOTE_2
 10
11.4000852605
 20
194.9368541489
 30
0.0
  0
MTEXT
  5
B4
330
1F
100
AcDbEntity
  8
0
  6
Continuous
 62
     7
370
     0
100
AcDbMText
 10
77.458787507
 20
17.3676989281
 30
0.0
 40
1.5
 41
0.0
 71
     1
 72
     1
  1
REV.
  7
SLDTEXTSTYLE0
 73
     1
 44
1.0
  0
MTEXT
  5
B5
330
1F
100
AcDbEntity
  8
0
  6
Continuous
 62
     7
370
     0
100
AcDbMText
 10
31.4524744749
 20
9.1415846842
 30
0.0
 40
1.5
 41
0.0
 71
     2
 72
     1
  1
SCALE:3:2
  7
SLDTEXTSTYLE0
 73
     1
 44
1.0
  0
MTEXT
  5
B7
330
1F
100
AcDbEntity
  8
0
  6
Continuous
 62
     7
370
     0
100
AcDbMText
 10
60.8574219793
 20
9.1415846842
 30
0.0
 40
1.5
 41
0.0
 71
     2
 72
     1
  1
SHEET 1 OF 2
  7
SLDTEXTSTYLE1
 73
     1
 44
1.0
  0
MTEXT
  5
B8
330
1F
100
AcDbEntity
  8
0
  6
Continuous
 62
     7
370
     0
100
AcDbMText
 10
9.0
 20
11.3711687256
 30
0.0
 40
2.9104166667
 41
0.0
 71
     1
 72
     1
  1
A4
  7
SLDTEXTSTYLE0
 73
     1
 44
1.0
  0
MTEXT
  5
B9
330
1F
100
AcDbEntity
  8
0
  6
Continuous
 62
     7
370
     0
100
AcDbMText
 10
7.5
 20
23.8180163561
 30
0.0
 40
1.8520833333
 41
0.0
 71
     1
 72
     1
  1
TITLE
  7
SLDTEXTSTYLE0
 73
     1
 44
1.0
  0
MTEXT
  5
BA
330
1F
100
AcDbEntity
  8
0
  6
Continuous
 62
     7
370
     0
100
AcDbMText
 10
17.3
 20
17.8180163561
 30
0.0
 40
1.8520833333
 41
0.0
 71
     1
 72
     1
  1
PART NO.
  7
SLDTEXTSTYLE0
 73
     1
 44
1.0
  0
INSERT
  5
C0
330
1F
100
AcDbEntity
  8
0
  6
Continuous
 62
     7
370
     0
100
AcDbBlockReference
  2
SW_NOTE_3
 10
8.2544444371
 20
15.3833334278
 30
0.0
  0
INSERT
  5
C6
330
1F
100
AcDbEntity
  8
0
  6
Continuous
 62
     7
370
     0
100
AcDbBlockReference
  2
SW_NOTE_4
 10
123.6160993023
 20
11.0335772844
 30
0.0
  0
MTEXT
  5
C7
330
1F
100
AcDbEntity
  8
0
  6
Continuous
 62
     7
370
     0
100
AcDbMText
 10
45.3444425017
 20
23.4944459201
 30
0.0
 40
3.5
 41
0.0
 71
     2
 72
     1
  1
Camera Holder
  7
SLDTEXTSTYLE0
 73
     1
 44
1.0
  0
MTEXT
  5
C8
330
1F
100
AcDbEntity
  8
0
  6
Continuous
 62
     7
370
     0
100
AcDbMText
 10
45.1366315186
 20
14.8444459201
 30
0.0
 40
3.5
 41
0.0
 71
     2
 72
     1
  1
FAB-CH001
  7
SLDTEXTSTYLE0
 73
     1
 44
1.0
  0
MTEXT
  5
C9
330
1F
100
AcDbEntity
  8
0
  6
Continuous
 62
     7
370
     0
100
AcDbMText
 10
81.825402269
 20
13.2772093466
 30
0.0
 40
3.7041666667
 41
0.0
 71
     2
 72
     1
  1
01
  7
SLDTEXTSTYLE0
 73
     1
 44
1.0
  0
MTEXT
  5
CA
330
1F
100
AcDbEntity
  8
0
  6
Continuous
 62
     7
370
     0
100
AcDbMText
 10
114.5390452825
 20
20.9528377084
 30
0.0
 40
1.5875
 41
0.0
 71
     2
 72
     1
  1
17/04/2018
  7
SLDTEXTSTYLE0
 73
     1
 44
1.0
  0
MTEXT
  5
CB
330
1F
100
AcDbEntity
  8
0
  6
Continuous
 62
     7
370
     0
100
AcDbMText
 10
96.8739560634
 20
20.9528377084
 30
0.0
 40
1.5875
 41
0.0
 71
     2
 72
     1
  1
Edward Allgeyer
  7
SLDTEXTSTYLE0
 73
     1
 44
1.0
  0
MTEXT
  5
CC
330
1F
100
AcDbEntity
  8
0
  6
Continuous
 62
     7
370
     0
100
AcDbMText
 10
3.1431254285
 20
26.9867693846
 30
0.0
 40
2.6458333333
 41
0.0
 71
     2
 72
     1
  1
A
  7
SLDTEXTSTYLE0
 73
     1
 44
1.0
  0
MTEXT
  5
CD
330
1F
100
AcDbEntity
  8
0
  6
Continuous
 62
     7
370
     0
100
AcDbMText
 10
293.6431254285
 20
26.9867693846
 30
0.0
 40
2.6458333333
 41
0.0
 71
     2
 72
     1
  1
A
  7
SLDTEXTSTYLE0
 73
     1
 44
1.0
  0
MTEXT
  5
CE
330
1F
100
AcDbEntity
  8
0
  6
Continuous
 62
     7
370
     0
100
AcDbMText
 10
3.2304012161
 20
79.4867693846
 30
0.0
 40
2.6458333333
 41
0.0
 71
     2
 72
     1
  1
B
  7
SLDTEXTSTYLE0
 73
     1
 44
1.0
  0
MTEXT
  5
CF
330
1F
100
AcDbEntity
  8
0
  6
Continuous
 62
     7
370
     0
100
AcDbMText
 10
293.7304012161
 20
79.4867693846
 30
0.0
 40
2.6458333333
 41
0.0
 71
     2
 72
     1
  1
B
  7
SLDTEXTSTYLE0
 73
     1
 44
1.0
  0
MTEXT
  5
D0
330
1F
100
AcDbEntity
  8
0
  6
Continuous
 62
     7
370
     0
100
AcDbMText
 10
3.222439268
 20
131.9867693846
 30
0.0
 40
2.6458333333
 41
0.0
 71
     2
 72
     1
  1
C
  7
SLDTEXTSTYLE0
 73
     1
 44
1.0
  0
MTEXT
  5
D1
330
1F
100
AcDbEntity
  8
0
  6
Continuous
 62
     7
370
     0
100
AcDbMText
 10
293.722439268
 20
131.9867693846
 30
0.0
 40
2.6458333333
 41
0.0
 71
     2
 72
     1
  1
C
  7
SLDTEXTSTYLE0
 73
     1
 44
1.0
  0
MTEXT
  5
D2
330
1F
100
AcDbEntity
  8
0
  6
Continuous
 62
     7
370
     0
100
AcDbMText
 10
3.2184581881
 20
184.4867693846
 30
0.0
 40
2.6458333333
 41
0.0
 71
     2
 72
     1
  1
D
  7
SLDTEXTSTYLE0
 73
     1
 44
1.0
  0
MTEXT
  5
D3
330
1F
100
AcDbEntity
  8
0
  6
Continuous
 62
     7
370
     0
100
AcDbMText
 10
293.7184581881
 20
184.4867693846
 30
0.0
 40
2.6458333333
 41
0.0
 71
     2
 72
     1
  1
D
  7
SLDTEXTSTYLE0
 73
     1
 44
1.0
  0
MTEXT
  5
D4
330
1F
100
AcDbEntity
  8
0
  6
Continuous
 62
     7
370
     0
100
AcDbMText
 10
24.7233578867
 20
3.9867693846
 30
0.0
 40
2.6458333333
 41
0.0
 71
     2
 72
     1
  1
6
  7
SLDTEXTSTYLE0
 73
     1
 44
1.0
  0
MTEXT
  5
D5
330
1F
100
AcDbEntity
  8
0
  6
Continuous
 62
     7
370
     0
100
AcDbMText
 10
24.7233578867
 20
207.4867693846
 30
0.0
 40
2.6458333333
 41
0.0
 71
     2
 72
     1
  1
6
  7
SLDTEXTSTYLE0
 73
     1
 44
1.0
  0
MTEXT
  5
D6
330
1F
100
AcDbEntity
  8
0
  6
Continuous
 62
     7
370
     0
100
AcDbMText
 10
74.2233578867
 20
3.9867693846
 30
0.0
 40
2.6458333333
 41
0.0
 71
     2
 72
     1
  1
5
  7
SLDTEXTSTYLE0
 73
     1
 44
1.0
  0
MTEXT
  5
D7
330
1F
100
AcDbEntity
  8
0
  6
Continuous
 62
     7
370
     0
100
AcDbMText
 10
74.2233578867
 20
207.4867693846
 30
0.0
 40
2.6458333333
 41
0.0
 71
     2
 72
     1
  1
5
  7
SLDTEXTSTYLE0
 73
     1
 44
1.0
  0
MTEXT
  5
D8
330
1F
100
AcDbEntity
  8
0
  6
Continuous
 62
     7
370
     0
100
AcDbMText
 10
123.7233578867
 20
3.9867693846
 30
0.0
 40
2.6458333333
 41
0.0
 71
     2
 72
     1
  1
4
  7
SLDTEXTSTYLE0
 73
     1
 44
1.0
  0
MTEXT
  5
D9
330
1F
100
AcDbEntity
  8
0
  6
Continuous
 62
     7
370
     0
100
AcDbMText
 10
123.7233578867
 20
207.4867693846
 30
0.0
 40
2.6458333333
 41
0.0
 71
     2
 72
     1
  1
4
  7
SLDTEXTSTYLE0
 73
     1
 44
1.0
  0
MTEXT
  5
DA
330
1F
100
AcDbEntity
  8
0
  6
Continuous
 62
     7
370
     0
100
AcDbMText
 10
173.2233578867
 20
3.9867693846
 30
0.0
 40
2.6458333333
 41
0.0
 71
     2
 72
     1
  1
3
  7
SLDTEXTSTYLE0
 73
     1
 44
1.0
  0
MTEXT
  5
DB
330
1F
100
AcDbEntity
  8
0
  6
Continuous
 62
     7
370
     0
100
AcDbMText
 10
173.2233578867
 20
207.4867693846
 30
0.0
 40
2.6458333333
 41
0.0
 71
     2
 72
     1
  1
3
  7
SLDTEXTSTYLE0
 73
     1
 44
1.0
  0
MTEXT
  5
DC
330
1F
100
AcDbEntity
  8
0
  6
Continuous
 62
     7
370
     0
100
AcDbMText
 10
222.7233578867
 20
3.9867693846
 30
0.0
 40
2.6458333333
 41
0.0
 71
     2
 72
     1
  1
2
  7
SLDTEXTSTYLE0
 73
     1
 44
1.0
  0
MTEXT
  5
DD
330
1F
100
AcDbEntity
  8
0
  6
Continuous
 62
     7
370
     0
100
AcDbMText
 10
222.7233578867
 20
207.4867693846
 30
0.0
 40
2.6458333333
 41
0.0
 71
     2
 72
     1
  1
2
  7
SLDTEXTSTYLE0
 73
     1
 44
1.0
  0
MTEXT
  5
DE
330
1F
100
AcDbEntity
  8
0
  6
Continuous
 62
     7
370
     0
100
AcDbMText
 10
272.2233578867
 20
3.9867693846
 30
0.0
 40
2.6458333333
 41
0.0
 71
     2
 72
     1
  1
1
  7
SLDTEXTSTYLE0
 73
     1
 44
1.0
  0
MTEXT
  5
DF
330
1F
100
AcDbEntity
  8
0
  6
Continuous
 62
     7
370
     0
100
AcDbMText
 10
272.2233578867
 20
207.4867693846
 30
0.0
 40
2.6458333333
 41
0.0
 71
     2
 72
     1
  1
1
  7
SLDTEXTSTYLE0
 73
     1
 44
1.0
  0
CIRCLE
  5
E0
330
1F
100
AcDbEntity
  8
0
  6
Continuous
 62
     7
370
    25
100
AcDbCircle
 10
147.0375
 20
99.825
 30
0.0
 40
3.0
  0
LINE
  5
E1
330
1F
100
AcDbEntity
  8
0
  6
Continuous
 62
     7
370
    25
100
AcDbLine
 10
156.0375
 20
102.825
 30
0.0
 11
151.5375
 21
102.825
 31
0.0
  0
LINE
  5
E2
330
1F
100
AcDbEntity
  8
0
  6
Continuous
 62
     7
370
    25
100
AcDbLine
 10
156.0375
 20
102.825
 30
0.0
 11
156.0375
 21
96.825
 31
0.0
  0
LINE
  5
E3
330
1F
100
AcDbEntity
  8
0
  6
Continuous
 62
     7
370
    25
100
AcDbLine
 10
156.0375
 20
96.825
 30
0.0
 11
151.5375
 21
96.825
 31
0.0
  0
LINE
  5
E4
330
1F
100
AcDbEntity
  8
0
  6
Continuous
 62
     7
370
    25
100
AcDbLine
 10
151.5375
 20
96.825
 30
0.0
 11
151.5375
 21
81.825
 31
0.0
  0
LINE
  5
E5
330
1F
100
AcDbEntity
  8
0
  6
Continuous
 62
     7
370
    25
100
AcDbLine
 10
151.5375
 20
81.825
 30
0.0
 11
154.5375
 21
81.825
 31
0.0
  0
LINE
  5
E6
330
1F
100
AcDbEntity
  8
0
  6
Continuous
 62
     7
370
    25
100
AcDbLine
 10
154.5375
 20
81.825
 30
0.0
 11
154.5375
 21
69.825
 31
0.0
  0
LINE
  5
E7
330
1F
100
AcDbEntity
  8
0
  6
Continuous
 62
     7
370
    25
100
AcDbLine
 10
154.5375
 20
69.825
 30
0.0
 11
142.5375
 21
69.825
 31
0.0
  0
LINE
  5
E8
330
1F
100
AcDbEntity
  8
0
  6
Continuous
 62
     7
370
    25
100
AcDbLine
 10
142.5375
 20
129.825
 30
0.0
 11
142.5375
 21
69.825
 31
0.0
  0
LINE
  5
E9
330
1F
100
AcDbEntity
  8
0
  6
Continuous
 62
     7
370
    25
100
AcDbLine
 10
154.5375
 20
129.825
 30
0.0
 11
142.5375
 21
129.825
 31
0.0
  0
LINE
  5
EA
330
1F
100
AcDbEntity
  8
0
  6
Continuous
 62
     7
370
    25
100
AcDbLine
 10
154.5375
 20
129.825
 30
0.0
 11
154.5375
 21
117.825
 31
0.0
  0
LINE
  5
EB
330
1F
100
AcDbEntity
  8
0
  6
Continuous
 62
     7
370
    25
100
AcDbLine
 10
151.5375
 20
117.825
 30
0.0
 11
154.5375
 21
117.825
 31
0.0
  0
LINE
  5
EC
330
1F
100
AcDbEntity
  8
0
  6
Continuous
 62
     7
370
    25
100
AcDbLine
 10
151.5375
 20
117.825
 30
0.0
 11
151.5375
 21
102.825
 31
0.0
  0
CIRCLE
  5
ED
330
1F
100
AcDbEntity
  8
0
  6
Continuous
 62
     7
370
    25
100
AcDbCircle
 10
147.0375
 20
99.825
 30
0.0
 40
2.474999999999966
  0
LINE
  5
EE
330
1F
100
AcDbEntity
  8
0
  6
Continuous
 62
     7
370
    25
100
AcDbLine
 10
156.0375
 20
72.825
 30
0.0
 11
154.5375
 21
72.825
 31
0.0
  0
LINE
  5
EF
330
1F
100
AcDbEntity
  8
0
  6
Continuous
 62
     7
370
    25
100
AcDbLine
 10
156.0375
 20
72.825
 30
0.0
 11
156.0375
 21
69.825
 31
0.0
  0
LINE
  5
F0
330
1F
100
AcDbEntity
  8
0
  6
Continuous
 62
     7
370
    25
100
AcDbLine
 10
156.0375
 20
69.825
 30
0.0
 11
154.5375
 21
69.825
 31
0.0
  0
DIMENSION
  5
F1
330
1F
100
AcDbEntity
  8
0
  6
Continuous
 62
     7
370
    18
100
AcDbDimension
  2
_D
 10
132.5375
 20
69.825
 30
0.0
 11
132.5375
 21
99.825
 31
0.0
 70
   160
  1
<>
 71
     2
 42
-1.0
  3
SLDDIMSTYLE0
100
AcDbAlignedDimension
 13
142.5375
 23
129.825
 33
0.0
 14
142.5375
 24
69.825
 34
0.0
 50
90.0
100
AcDbRotatedDimension
  0
DIMENSION
  5
103
330
1F
100
AcDbEntity
  8
0
  6
Continuous
 62
     7
370
    18
100
AcDbDimension
  2
_D_1
 10
142.5375
 20
110.625
 30
0.0
 11
157.1625
 21
110.625
 31
0.0
 70
   160
  1
<>
 71
     2
 42
-1.0
  3
SLDDIMSTYLE1
100
AcDbAlignedDimension
 13
147.0375
 23
106.05
 33
0.0
 14
142.5375
 24
129.825
 34
0.0
100
AcDbRotatedDimension
  0
DIMENSION
  5
10F
330
1F
100
AcDbEntity
  8
0
  6
Continuous
 62
     7
370
    18
100
AcDbDimension
  2
_D_2
 10
146.8710265235
 20
102.8203775357
 30
0.0
 11
179.3595470883
 21
54.6780700768
 31
0.0
 70
   163
  1
<> THRU\PM4x0.7  THRU\P{\fGDT;w}%%c 4 X 90°, Near Side
 71
     1
 42
-1.0
  3
SLDDIMSTYLE2
100
AcDbDiametricDimension
 15
147.2039734765
 25
96.8296224643
 35
0.0
 40
0.0
  0
INSERT
  5
132
330
1F
100
AcDbEntity
  8
0
  6
Continuous
 62
     7
370
     0
100
AcDbBlockReference
  2
SW_CENTERMARKSYMBOL_0
 10
147.0375
 20
99.825
 30
0.0
  0
ARC
  5
133
330
1F
100
AcDbEntity
  8
0
  6
Continuous
 62
     7
370
    18
100
AcDbCircle
 10
147.0375
 20
99.825
 30
0.0
 40
3.000000000000025
100
AcDbArc
 50
255.0
 51
195.0
  0
LINE
  5
134
330
1F
100
AcDbEntity
  8
0
  6
CENTERX2
 62
     7
370
    18
100
AcDbLine
 10
156.5375
 20
99.825
 30
0.0
 11
140.5375
 21
99.825
 31
0.0
  0
LINE
  5
135
330
1F
100
AcDbEntity
  8
0
  6
Continuous
 62
     7
370
    25
100
AcDbLine
 10
205.4625
 20
96.825
 30
0.0
 11
208.4625
 21
96.825
 31
0.0
  0
LINE
  5
136
330
1F
100
AcDbEntity
  8
0
  6
Continuous
 62
     7
370
    25
100
AcDbLine
 10
208.4625
 20
102.825
 30
0.0
 11
205.4625
 21
102.825
 31
0.0
  0
LINE
  5
137
330
1F
100
AcDbEntity
  8
0
  6
Continuous
 62
     7
370
    25
100
AcDbLine
 10
208.4625
 20
96.825
 30
0.0
 11
208.4625
 21
102.825
 31
0.0
  0
LINE
  5
138
330
1F
100
AcDbEntity
  8
0
  6
Continuous
 62
     7
370
    25
100
AcDbLine
 10
205.4625
 20
102.825
 30
0.0
 11
205.4625
 21
96.825
 31
0.0
  0
LINE
  5
139
330
1F
100
AcDbEntity
  8
0
  6
Continuous
 62
     7
370
    25
100
AcDbLine
 10
232.4625
 20
69.825
 30
0.0
 11
238.4625
 21
69.825
 31
0.0
  0
LINE
  5
13A
330
1F
100
AcDbEntity
  8
0
  6
Continuous
 62
     7
370
    25
100
AcDbLine
 10
238.4625
 20
72.825
 30
0.0
 11
232.4625
 21
72.825
 31
0.0
  0
LINE
  5
13B
330
1F
100
AcDbEntity
  8
0
  6
Continuous
 62
     7
370
    25
100
AcDbLine
 10
238.4625
 20
69.825
 30
0.0
 11
238.4625
 21
72.825
 31
0.0
  0
LINE
  5
13C
330
1F
100
AcDbEntity
  8
0
  6
Continuous
 62
     7
370
    25
100
AcDbLine
 10
232.4625
 20
72.825
 30
0.0
 11
232.4625
 21
69.825
 31
0.0
  0
CIRCLE
  5
13D
330
1F
100
AcDbEntity
  8
0
  6
Continuous
 62
     7
370
    25
100
AcDbCircle
 10
212.9625
 20
77.325
 30
0.0
 40
2.25
  0
LINE
  5
13E
330
1F
100
AcDbEntity
  8
0
  6
Continuous
 62
     7
370
    25
100
AcDbLine
 10
205.4625
 20
81.825
 30
0.0
 11
214.4625
 21
81.825
 31
0.0
  0
LINE
  5
13F
330
1F
100
AcDbEntity
  8
0
  6
Continuous
 62
     7
370
    25
100
AcDbLine
 10
217.4625
 20
78.825
 30
0.0
 11
214.4625
 21
81.825
 31
0.0
  0
LINE
  5
140
330
1F
100
AcDbEntity
  8
0
  6
Continuous
 62
     7
370
    25
100
AcDbLine
 10
217.4625
 20
78.825
 30
0.0
 11
217.4625
 21
69.825
 31
0.0
  0
LINE
  5
141
330
1F
100
AcDbEntity
  8
0
  6
Continuous
 62
     7
370
    25
100
AcDbLine
 10
205.4625
 20
69.825
 30
0.0
 11
217.4625
 21
69.825
 31
0.0
  0
LINE
  5
142
330
1F
100
AcDbEntity
  8
0
  6
Continuous
 62
     7
370
    25
100
AcDbLine
 10
205.4625
 20
81.825
 30
0.0
 11
205.4625
 21
69.825
 31
0.0
  0
CIRCLE
  5
143
330
1F
100
AcDbEntity
  8
0
  6
Continuous
 62
     7
370
    25
100
AcDbCircle
 10
212.9625
 20
122.325
 30
0.0
 40
2.25
  0
LINE
  5
144
330
1F
100
AcDbEntity
  8
0
  6
Continuous
 62
     7
370
    25
100
AcDbLine
 10
217.4625
 20
129.825
 30
0.0
 11
205.4625
 21
129.825
 31
0.0
  0
LINE
  5
145
330
1F
100
AcDbEntity
  8
0
  6
Continuous
 62
     7
370
    25
100
AcDbLine
 10
217.4625
 20
129.825
 30
0.0
 11
217.4625
 21
120.825
 31
0.0
  0
LINE
  5
146
330
1F
100
AcDbEntity
  8
0
  6
Continuous
 62
     7
370
    25
100
AcDbLine
 10
214.4625
 20
117.825
 30
0.0
 11
217.4625
 21
120.825
 31
0.0
  0
LINE
  5
147
330
1F
100
AcDbEntity
  8
0
  6
Continuous
 62
     7
370
    25
100
AcDbLine
 10
214.4625
 20
117.825
 30
0.0
 11
205.4625
 21
117.825
 31
0.0
  0
LINE
  5
148
330
1F
100
AcDbEntity
  8
0
  6
Continuous
 62
     7
370
    25
100
AcDbLine
 10
205.4625
 20
129.825
 30
0.0
 11
205.4625
 21
117.825
 31
0.0
  0
CIRCLE
  5
149
330
1F
100
AcDbEntity
  8
0
  6
Continuous
 62
     7
370
    25
100
AcDbCircle
 10
257.9625
 20
122.325
 30
0.0
 40
2.249999999999943
  0
LINE
  5
14A
330
1F
100
AcDbEntity
  8
0
  6
Continuous
 62
     7
370
    25
100
AcDbLine
 10
265.4625
 20
129.825
 30
0.0
 11
253.4625
 21
129.825
 31
0.0
  0
LINE
  5
14B
330
1F
100
AcDbEntity
  8
0
  6
Continuous
 62
     7
370
    25
100
AcDbLine
 10
265.4625
 20
117.825
 30
0.0
 11
265.4625
 21
129.825
 31
0.0
  0
LINE
  5
14C
330
1F
100
AcDbEntity
  8
0
  6
Continuous
 62
     7
370
    25
100
AcDbLine
 10
265.4625
 20
117.825
 30
0.0
 11
256.4625
 21
117.825
 31
0.0
  0
LINE
  5
14D
330
1F
100
AcDbEntity
  8
0
  6
Continuous
 62
     7
370
    25
100
AcDbLine
 10
253.4625
 20
120.825
 30
0.0
 11
256.4625
 21
117.825
 31
0.0
  0
LINE
  5
14E
330
1F
100
AcDbEntity
  8
0
  6
Continuous
 62
     7
370
    25
100
AcDbLine
 10
253.4625
 20
120.825
 30
0.0
 11
253.4625
 21
129.825
 31
0.0
  0
CIRCLE
  5
14F
330
1F
100
AcDbEntity
  8
0
  6
Continuous
 62
     7
370
    25
100
AcDbCircle
 10
257.9625
 20
77.325
 30
0.0
 40
2.249999999999943
  0
LINE
  5
150
330
1F
100
AcDbEntity
  8
0
  6
Continuous
 62
     7
370
    25
100
AcDbLine
 10
265.4625
 20
69.825
 30
0.0
 11
265.4625
 21
81.825
 31
0.0
  0
LINE
  5
151
330
1F
100
AcDbEntity
  8
0
  6
Continuous
 62
     7
370
    25
100
AcDbLine
 10
253.4625
 20
69.825
 30
0.0
 11
253.4625
 21
78.825
 31
0.0
  0
LINE
  5
152
330
1F
100
AcDbEntity
  8
0
  6
Continuous
 62
     7
370
    25
100
AcDbLine
 10
256.4625
 20
81.825
 30
0.0
 11
253.4625
 21
78.825
 31
0.0
  0
LINE
  5
153
330
1F
100
AcDbEntity
  8
0
  6
Continuous
 62
     7
370
    25
100
AcDbLine
 10
256.4625
 20
81.825
 30
0.0
 11
265.4625
 21
81.825
 31
0.0
  0
LINE
  5
154
330
1F
100
AcDbEntity
  8
0
  6
Continuous
 62
     7
370
    25
100
AcDbLine
 10
253.4625
 20
69.825
 30
0.0
 11
265.4625
 21
69.825
 31
0.0
  0
CIRCLE
  5
155
330
1F
100
AcDbEntity
  8
0
  6
Continuous
 62
     7
370
    25
100
AcDbCircle
 10
212.9625
 20
122.325
 30
0.0
 40
1.875000000000028
  0
CIRCLE
  5
156
330
1F
100
AcDbEntity
  8
0
  6
Continuous
 62
     7
370
    25
100
AcDbCircle
 10
212.9625
 20
77.325
 30
0.0
 40
1.875000000000028
  0
CIRCLE
  5
157
330
1F
100
AcDbEntity
  8
0
  6
Continuous
 62
     7
370
    25
100
AcDbCircle
 10
257.9625
 20
77.325
 30
0.0
 40
1.875
  0
CIRCLE
  5
158
330
1F
100
AcDbEntity
  8
0
  6
Continuous
 62
     7
370
    25
100
AcDbCircle
 10
257.9625
 20
122.325
 30
0.0
 40
1.875
  0
CIRCLE
  5
159
330
1F
100
AcDbEntity
  8
0
  6
Continuous
 62
     7
370
    25
100
AcDbCircle
 10
235.4625
 20
99.825
 30
0.0
 40
19.31999999999999
  0
LINE
  5
15A
330
1F
100
AcDbEntity
  8
0
  6
Continuous
 62
     7
370
    25
100
AcDbLine
 10
253.4625
 20
129.825
 30
0.0
 11
217.4625
 21
129.825
 31
0.0
  0
LINE
  5
15B
330
1F
100
AcDbEntity
  8
0
  6
Continuous
 62
     7
370
    25
100
AcDbLine
 10
265.4625
 20
81.825
 30
0.0
 11
265.4625
 21
117.825
 31
0.0
  0
LINE
  5
15C
330
1F
100
AcDbEntity
  8
0
  6
Continuous
 62
     7
370
    25
100
AcDbLine
 10
217.4625
 20
69.825
 30
0.0
 11
232.4625
 21
69.825
 31
0.0
  0
LINE
  5
15D
330
1F
100
AcDbEntity
  8
0
  6
Continuous
 62
     7
370
    25
100
AcDbLine
 10
238.4625
 20
69.825
 30
0.0
 11
253.4625
 21
69.825
 31
0.0
  0
LINE
  5
15E
330
1F
100
AcDbEntity
  8
0
  6
Continuous
 62
     7
370
    25
100
AcDbLine
 10
205.4625
 20
96.825
 30
0.0
 11
205.4625
 21
81.825
 31
0.0
  0
LINE
  5
15F
330
1F
100
AcDbEntity
  8
0
  6
Continuous
 62
     7
370
    25
100
AcDbLine
 10
205.4625
 20
117.825
 30
0.0
 11
205.4625
 21
102.825
 31
0.0
  0
DIMENSION
  5
160
330
1F
100
AcDbEntity
  8
0
  6
Continuous
 62
     7
370
    18
100
AcDbDimension
  2
_D_3
 10
197.2125
 20
102.825
 30
0.0
 11
197.2125
 21
99.825
 31
0.0
 70
   160
  1
<>
 71
     2
 42
-1.0
  3
SLDDIMSTYLE1
100
AcDbAlignedDimension
 13
205.4625
 23
96.825
 33
0.0
 14
205.4625
 24
102.825
 34
0.0
 50
90.0
100
AcDbRotatedDimension
  0
DIMENSION
  5
16C
330
1F
100
AcDbEntity
  8
0
  6
Continuous
 62
     7
370
    18
100
AcDbDimension
  2
_D_4
 10
232.4625
 20
61.125
 30
0.0
 11
235.4625
 21
61.125
 31
0.0
 70
   160
  1
<>
 71
     2
 42
-1.0
  3
SLDDIMSTYLE1
100
AcDbAlignedDimension
 13
238.4625
 23
69.825
 33
0.0
 14
232.4625
 24
69.825
 34
0.0
100
AcDbRotatedDimension
  0
DIMENSION
  5
178
330
1F
100
AcDbEntity
  8
0
  6
Continuous
 62
     7
370
    18
100
AcDbDimension
  2
_D_5
 10
265.4625
 20
139.825
 30
0.0
 11
259.4625
 21
139.825
 31
0.0
 70
   160
  1
<>
 71
     2
 42
-1.0
  3
SLDDIMSTYLE1
100
AcDbAlignedDimension
 13
253.4625
 23
129.825
 33
0.0
 14
265.4625
 24
129.825
 34
0.0
100
AcDbRotatedDimension
  0
DIMENSION
  5
184
330
1F
100
AcDbEntity
  8
0
  6
Continuous
 62
     7
370
    18
100
AcDbDimension
  2
_D_6
 10
275.4625
 20
117.825
 30
0.0
 11
275.4625
 21
123.825
 31
0.0
 70
   160
  1
<>
 71
     2
 42
-1.0
  3
SLDDIMSTYLE1
100
AcDbAlignedDimension
 13
265.4625
 23
129.825
 33
0.0
 14
265.4625
 24
117.825
 34
0.0
 50
90.0
100
AcDbRotatedDimension
  0
ARC
  5
190
330
1F
100
AcDbEntity
  8
0
  6
Continuous
 62
     7
370
    18
100
AcDbCircle
 10
212.9625
 20
77.325
 30
0.0
 40
2.25000000000003
100
AcDbArc
 50
255.0
 51
195.0
  0
ARC
  5
191
330
1F
100
AcDbEntity
  8
0
  6
Continuous
 62
     7
370
    18
100
AcDbCircle
 10
257.9625
 20
77.325
 30
0.0
 40
2.250000000000006
100
AcDbArc
 50
255.0
 51
195.0
  0
ARC
  5
192
330
1F
100
AcDbEntity
  8
0
  6
Continuous
 62
     7
370
    18
100
AcDbCircle
 10
257.9625
 20
122.325
 30
0.0
 40
2.250000000000006
100
AcDbArc
 50
255.0
 51
195.0
  0
ARC
  5
193
330
1F
100
AcDbEntity
  8
0
  6
Continuous
 62
     7
370
    18
100
AcDbCircle
 10
212.9625
 20
122.325
 30
0.0
 40
2.25000000000003
100
AcDbArc
 50
255.0
 51
195.0
  0
LINE
  5
194
330
1F
100
AcDbEntity
  8
0
  6
CENTERX2
 62
     7
370
    18
100
AcDbLine
 10
203.4625
 20
99.825
 30
0.0
 11
267.4625
 21
99.825
 31
0.0
  0
LINE
  5
195
330
1F
100
AcDbEntity
  8
0
  6
CENTERX2
 62
     7
370
    18
100
AcDbLine
 10
235.4625
 20
67.825
 30
0.0
 11
235.4625
 21
131.825
 31
0.0
  0
LINE
  5
196
330
1F
100
AcDbEntity
  8
0
  6
Continuous
 62
     7
370
    25
100
AcDbLine
 10
265.4625
 20
181.05
 30
0.0
 11
205.4625
 21
181.05
 31
0.0
  0
LINE
  5
197
330
1F
100
AcDbEntity
  8
0
  6
Continuous
 62
     7
370
    25
100
AcDbLine
 10
265.4625
 20
169.05
 30
0.0
 11
265.4625
 21
181.05
 31
0.0
  0
LINE
  5
198
330
1F
100
AcDbEntity
  8
0
  6
Continuous
 62
     7
370
    25
100
AcDbLine
 10
265.4625
 20
169.05
 30
0.0
 11
253.4625
 21
169.05
 31
0.0
  0
LINE
  5
199
330
1F
100
AcDbEntity
  8
0
  6
Continuous
 62
     7
370
    25
100
AcDbLine
 10
253.4625
 20
172.05
 30
0.0
 11
253.4625
 21
169.05
 31
0.0
  0
LINE
  5
19A
330
1F
100
AcDbEntity
  8
0
  6
Continuous
 62
     7
370
    25
100
AcDbLine
 10
253.4625
 20
172.05
 30
0.0
 11
217.4625
 21
172.05
 31
0.0
  0
LINE
  5
19B
330
1F
100
AcDbEntity
  8
0
  6
Continuous
 62
     7
370
    25
100
AcDbLine
 10
217.4625
 20
172.05
 30
0.0
 11
217.4625
 21
169.05
 31
0.0
  0
LINE
  5
19C
330
1F
100
AcDbEntity
  8
0
  6
Continuous
 62
     7
370
    25
100
AcDbLine
 10
217.4625
 20
169.05
 30
0.0
 11
205.4625
 21
169.05
 31
0.0
  0
CIRCLE
  5
19D
330
1F
100
AcDbEntity
  8
0
  6
Continuous
 62
     7
370
    25
100
AcDbCircle
 10
235.4625
 20
176.55
 30
0.0
 40
3.0
  0
LINE
  5
19E
330
1F
100
AcDbEntity
  8
0
  6
Continuous
 62
     7
370
    25
100
AcDbLine
 10
205.4625
 20
169.05
 30
0.0
 11
205.4625
 21
181.05
 31
0.0
  0
CIRCLE
  5
19F
330
1F
100
AcDbEntity
  8
0
  6
Continuous
 62
     7
370
    25
100
AcDbCircle
 10
235.4625
 20
176.55
 30
0.0
 40
2.474999999999994
  0
LINE
  5
1A0
330
1F
100
AcDbEntity
  8
0
  6
Continuous
 62
     7
370
    25
100
AcDbLine
 10
208.4625
 20
167.55
 30
0.0
 11
205.4625
 21
167.55
 31
0.0
  0
LINE
  5
1A1
330
1F
100
AcDbEntity
  8
0
  6
Continuous
 62
     7
370
    25
100
AcDbLine
 10
208.4625
 20
167.55
 30
0.0
 11
208.4625
 21
169.05
 31
0.0
  0
LINE
  5
1A2
330
1F
100
AcDbEntity
  8
0
  6
Continuous
 62
     7
370
    25
100
AcDbLine
 10
205.4625
 20
167.55
 30
0.0
 11
205.4625
 21
169.05
 31
0.0
  0
LINE
  5
1A3
330
1F
100
AcDbEntity
  8
0
  6
Continuous
 62
     7
370
    25
100
AcDbLine
 10
238.4625
 20
167.55
 30
0.0
 11
232.4625
 21
167.55
 31
0.0
  0
LINE
  5
1A4
330
1F
100
AcDbEntity
  8
0
  6
Continuous
 62
     7
370
    25
100
AcDbLine
 10
232.4625
 20
167.55
 30
0.0
 11
232.4625
 21
172.05
 31
0.0
  0
LINE
  5
1A5
330
1F
100
AcDbEntity
  8
0
  6
Continuous
 62
     7
370
    25
100
AcDbLine
 10
238.4625
 20
167.55
 30
0.0
 11
238.4625
 21
172.05
 31
0.0
  0
DIMENSION
  5
1A6
330
1F
100
AcDbEntity
  8
0
  6
Continuous
 62
     7
370
    18
100
AcDbDimension
  2
_D_7
 10
192.3
 20
181.05
 30
0.0
 11
192.3
 21
174.3
 31
0.0
 70
   160
  1
<>
 71
     2
 42
-1.0
  3
SLDDIMSTYLE1
100
AcDbAlignedDimension
 13
232.4625
 23
167.55
 33
0.0
 14
205.4625
 24
181.05
 34
0.0
 50
90.0
100
AcDbRotatedDimension
  0
DIMENSION
  5
1B2
330
1F
100
AcDbEntity
  8
0
  6
Continuous
 62
     7
370
    18
100
AcDbDimension
  2
_D_8
 10
197.9625
 20
181.05
 30
0.0
 11
197.9625
 21
175.05
 31
0.0
 70
   160
  1
<>
 71
     2
 42
-1.0
  3
SLDDIMSTYLE1
100
AcDbAlignedDimension
 13
205.4625
 23
169.05
 33
0.0
 14
205.4625
 24
181.05
 34
0.0
 50
90.0
100
AcDbRotatedDimension
  0
DIMENSION
  5
1BE
330
1F
100
AcDbEntity
  8
0
  6
Continuous
 62
     7
370
    18
100
AcDbDimension
  2
_D_9
 10
205.4625
 20
191.05
 30
0.0
 11
235.4625
 21
191.05
 31
0.0
 70
   160
  1
<>
 71
     2
 42
-1.0
  3
SLDDIMSTYLE0
100
AcDbAlignedDimension
 13
265.4625
 23
181.05
 33
0.0
 14
205.4625
 24
181.05
 34
0.0
100
AcDbRotatedDimension
  0
DIMENSION
  5
1C8
330
1F
100
AcDbEntity
  8
0
  6
Continuous
 62
     7
370
    18
100
AcDbDimension
  2
_D_10
 10
248.90625
 20
181.05
 30
0.0
 11
248.90625
 21
165.3
 31
0.0
 70
   160
  1
<>
 71
     2
 42
-1.0
  3
SLDDIMSTYLE1
100
AcDbAlignedDimension
 13
241.6875
 23
176.55
 33
0.0
 14
265.4625
 24
181.05
 34
0.0
 50
90.0
100
AcDbRotatedDimension
  0
DIMENSION
  5
1D3
330
1F
100
AcDbEntity
  8
0
  6
Continuous
 62
     7
370
    18
100
AcDbDimension
  2
_D_11
 10
237.5847883006
 20
178.6703519446
 30
0.0
 11
176.813080439
 21
155.661919561
 31
0.0
 70
   163
  1
<> THRU\PM4x0.7  THRU\P{\fGDT;w}%%c 4 X 90°, Near Side
 71
     1
 42
-1.0
  3
SLDDIMSTYLE2
100
AcDbDiametricDimension
 15
233.3402116994
 25
174.4296480554
 35
0.0
 40
0.0
  0
INSERT
  5
1EC
330
1F
100
AcDbEntity
  8
0
  6
Continuous
 62
     7
370
     0
100
AcDbBlockReference
  2
SW_CENTERMARKSYMBOL_1
 10
235.4625
 20
176.55
 30
0.0
  0
ARC
  5
1ED
330
1F
100
AcDbEntity
  8
0
  6
Continuous
 62
     7
370
    18
100
AcDbCircle
 10
235.4625
 20
176.55
 30
0.0
 40
3.000000000000015
100
AcDbArc
 50
255.0
 51
195.0
  0
LINE
  5
1EE
330
1F
100
AcDbEntity
  8
0
  6
CENTERX2
 62
     7
370
    18
100
AcDbLine
 10
235.4625
 20
167.05
 30
0.0
 11
235.4625
 21
183.05
 31
0.0
  0
LINE
  5
1EF
330
1F
100
AcDbEntity
  8
0
  6
Continuous
 62
     7
370
    25
100
AcDbLine
 10
95.8125
 20
129.825
 30
0.0
 11
95.8125
 21
69.825
 31
0.0
  0
CIRCLE
  5
1F0
330
1F
100
AcDbEntity
  8
0
  6
Continuous
 62
     7
370
    25
100
AcDbCircle
 10
88.3125
 20
77.325
 30
0.0
 40
1.875
  0
CIRCLE
  5
1F1
330
1F
100
AcDbEntity
  8
0
  6
Continuous
 62
     7
370
    25
100
AcDbCircle
 10
43.3125
 20
77.325
 30
0.0
 40
1.875
  0
CIRCLE
  5
1F2
330
1F
100
AcDbEntity
  8
0
  6
Continuous
 62
     7
370
    25
100
AcDbCircle
 10
43.3125
 20
122.325
 30
0.0
 40
1.875
  0
CIRCLE
  5
1F3
330
1F
100
AcDbEntity
  8
0
  6
Continuous
 62
     7
370
    25
100
AcDbCircle
 10
88.3125
 20
122.325
 30
0.0
 40
1.875
  0
CIRCLE
  5
1F4
330
1F
100
AcDbEntity
  8
0
  6
Continuous
 62
     7
370
    25
100
AcDbCircle
 10
65.8125
 20
99.825
 30
0.0
 40
19.31999999999999
  0
LINE
  5
1F5
330
1F
100
AcDbEntity
  8
0
  6
Continuous
 62
     7
370
    25
100
AcDbLine
 10
95.8125
 20
69.825
 30
0.0
 11
35.8125
 21
69.825
 31
0.0
  0
LINE
  5
1F6
330
1F
100
AcDbEntity
  8
0
  6
Continuous
 62
     7
370
    25
100
AcDbLine
 10
35.8125
 20
129.825
 30
0.0
 11
95.8125
 21
129.825
 31
0.0
  0
LINE
  5
1F7
330
1F
100
AcDbEntity
  8
0
  6
Continuous
 62
     7
370
    25
100
AcDbLine
 10
35.8125
 20
69.825
 30
0.0
 11
35.8125
 21
129.825
 31
0.0
  0
DIMENSION
  5
1F8
330
1F
100
AcDbEntity
  8
0
  6
Continuous
 62
     7
370
    18
100
AcDbDimension
  2
_D_12
 10
42.375
 20
120.7012023679
 30
0.0
 11
86.9881623611
 21
155.5312419127
 31
0.0
 70
   163
  1
4 x <> THRU ALL\PM3x0.5  THRU ALL\P{\fGDT;w}%%c 3 X 90°, Near Side
 71
     1
 42
-1.0
  3
SLDDIMSTYLE2
100
AcDbDiametricDimension
 15
44.25
 25
123.9487976321
 35
0.0
 40
0.0
  0
DIMENSION
  5
208
330
1F
100
AcDbEntity
  8
0
  6
Continuous
 62
     7
370
    18
100
AcDbDimension
  2
_D_13
 10
25.8125
 20
77.325
 30
0.0
 11
25.8125
 21
99.825
 31
0.0
 70
   160
  1
<>
 71
     2
 42
-1.0
  3
SLDDIMSTYLE0
100
AcDbAlignedDimension
 13
82.6875
 23
122.325
 33
0.0
 14
82.6875
 24
77.325
 34
0.0
 50
90.0
100
AcDbRotatedDimension
  0
DIMENSION
  5
212
330
1F
100
AcDbEntity
  8
0
  6
Continuous
 62
     7
370
    18
100
AcDbDimension
  2
_D_14
 10
88.3125
 20
59.825
 30
0.0
 11
65.8125
 21
59.825
 31
0.0
 70
   160
  1
<>
 71
     2
 42
-1.0
  3
SLDDIMSTYLE0
100
AcDbAlignedDimension
 13
43.3125
 23
116.7
 33
0.0
 14
88.3125
 24
116.7
 34
0.0
100
AcDbRotatedDimension
  0
DIMENSION
  5
21C
330
1F
100
AcDbEntity
  8
0
  6
Continuous
 62
     7
370
    18
100
AcDbDimension
  2
_D_15
 10
60.8121160486
 20
118.4866869639
 30
0.0
 11
107.3211793599
 21
44.3630505659
 31
0.0
 70
   163
  1
<> THRU All\P1.035" x 40 TPI Thread
 71
     1
 42
-1.0
  3
SLDDIMSTYLE3
100
AcDbDiametricDimension
 15
70.8128839514
 25
81.1633130361
 35
0.0
 40
0.0
  0
INSERT
  5
234
330
1F
100
AcDbEntity
  8
0
  6
Continuous
 62
     7
370
     0
100
AcDbBlockReference
  2
SW_CENTERMARKSYMBOL_2
 10
88.3125
 20
77.325
 30
0.0
  0
INSERT
  5
240
330
1F
100
AcDbEntity
  8
0
  6
Continuous
 62
     7
370
     0
100
AcDbBlockReference
  2
SW_CENTERMARKSYMBOL_3
 10
43.3125
 20
77.325
 30
0.0
  0
INSERT
  5
24C
330
1F
100
AcDbEntity
  8
0
  6
Continuous
 62
     7
370
     0
100
AcDbBlockReference
  2
SW_CENTERMARKSYMBOL_4
 10
43.3125
 20
122.325
 30
0.0
  0
INSERT
  5
258
330
1F
100
AcDbEntity
  8
0
  6
Continuous
 62
     7
370
     0
100
AcDbBlockReference
  2
SW_CENTERMARKSYMBOL_5
 10
88.3125
 20
122.325
 30
0.0
  0
ARC
  5
259
330
1F
100
AcDbEntity
  8
0
  6
Continuous
 62
     7
370
    18
100
AcDbCircle
 10
88.3125
 20
77.325
 30
0.0
 40
2.250000000000003
100
AcDbArc
 50
255.0
 51
195.0
  0
ARC
  5
25A
330
1F
100
AcDbEntity
  8
0
  6
Continuous
 62
     7
370
    18
100
AcDbCircle
 10
43.3125
 20
77.325
 30
0.0
 40
2.250000000000004
100
AcDbArc
 50
255.0
 51
195.0
  0
ARC
  5
25B
330
1F
100
AcDbEntity
  8
0
  6
Continuous
 62
     7
370
    18
100
AcDbCircle
 10
43.3125
 20
122.325
 30
0.0
 40
2.250000000000018
100
AcDbArc
 50
255.0
 51
195.0
  0
ARC
  5
25C
330
1F
100
AcDbEntity
  8
0
  6
Continuous
 62
     7
370
    18
100
AcDbCircle
 10
88.3125
 20
122.325
 30
0.0
 40
2.250000000000016
100
AcDbArc
 50
255.0
 51
195.0
  0
LINE
  5
25D
330
1F
100
AcDbEntity
  8
0
  6
CENTERX2
 62
     7
370
    18
100
AcDbLine
 10
97.8125
 20
99.825
 30
0.0
 11
33.8125
 21
99.825
 31
0.0
  0
LINE
  5
25E
330
1F
100
AcDbEntity
  8
0
  6
CENTERX2
 62
     7
370
    18
100
AcDbLine
 10
65.8125
 20
67.825
 30
0.0
 11
65.8125
 21
131.825
 31
0.0
  0
VIEWPORT
  5
25F
330
1B
100
AcDbEntity
 67
     1
  8
0
100
AcDbViewport
 10
148.5
 20
105.0
 30
0.0
 40
314.226
 41
222.18
 68
     1
 69
     1
 12
148.5
 22
105.0
 13
0.0
 23
0.0
 14
10.0
 24
10.0
 15
10.0
 25
10.0
 16
0.0
 26
0.0
 36
1.0
 17
0.0
 27
0.0
 37
0.0
 42
50.0
 43
0.0
 44
0.0
 45
222.18
 50
0.0
 51
0.0
 72
   100
 90
   557152
  1

281
     0
 71
     1
 74
     0
110
0.0
120
0.0
130
0.0
111
1.0
121
0.0
131
0.0
112
0.0
122
1.0
132
0.0
 79
     0
146
0.0
  0
LINE
  5
261
330
1B
100
AcDbEntity
 67
     1
  8
0
  6
Continuous
 62
     7
370
    25
100
AcDbLine
 10
6.5
 20
18.5
 30
0.0
 11
16.5
 21
18.5
 31
0.0
  0
LINE
  5
262
330
1B
100
AcDbEntity
 67
     1
  8
0
  6
Continuous
 62
     7
370
    25
100
AcDbLine
 10
16.5
 20
18.5
 30
0.0
 11
16.5
 21
6.5
 31
0.0
  0
LINE
  5
263
330
1B
100
AcDbEntity
 67
     1
  8
0
  6
Continuous
 62
     7
370
    25
100
AcDbLine
 10
76.5
 20
6.5
 30
0.0
 11
76.5
 21
18.5
 31
0.0
  0
LINE
  5
264
330
1B
100
AcDbEntity
 67
     1
  8
0
  6
Continuous
 62
     7
370
    25
100
AcDbLine
 10
76.5
 20
18.5
 30
0.0
 11
86.5
 21
18.5
 31
0.0
  0
LINE
  5
265
330
1B
100
AcDbEntity
 67
     1
  8
0
  6
Continuous
 62
     7
370
    25
100
AcDbLine
 10
86.5
 20
18.5
 30
0.0
 11
86.5
 21
6.5
 31
0.0
  0
LINE
  5
266
330
1B
100
AcDbEntity
 67
     1
  8
0
  6
Continuous
 62
     7
370
    25
100
AcDbLine
 10
16.5
 20
10.0
 30
0.0
 11
76.5
 21
10.0
 31
0.0
  0
LINE
  5
267
330
1B
100
AcDbEntity
 67
     1
  8
0
  6
Continuous
 62
     7
370
    25
100
AcDbLine
 10
46.5
 20
10.0
 30
0.0
 11
46.5
 21
6.5
 31
0.0
  0
LINE
  5
268
330
1B
100
AcDbEntity
 67
     1
  8
0
  6
Continuous
 62
     7
370
    25
100
AcDbLine
 10
16.5
 20
18.5
 30
0.0
 11
76.5
 21
18.5
 31
0.0
  0
LINE
  5
269
330
1B
100
AcDbEntity
 67
     1
  8
0
  6
Continuous
 62
     7
370
    25
100
AcDbLine
 10
6.5
 20
24.5
 30
0.0
 11
86.5
 21
24.5
 31
0.0
  0
LINE
  5
26A
330
1B
100
AcDbEntity
 67
     1
  8
0
  6
Continuous
 62
     7
370
    25
100
AcDbLine
 10
86.5
 20
24.5
 30
0.0
 11
86.5
 21
18.5
 31
0.0
  0
LINE
  5
26B
330
1B
100
AcDbEntity
 67
     1
  8
0
  6
Continuous
 62
     7
370
    25
100
AcDbLine
 10
86.5
 20
24.5
 30
0.0
 11
107.5
 21
24.5
 31
0.0
  0
LINE
  5
26C
330
1B
100
AcDbEntity
 67
     1
  8
0
  6
Continuous
 62
     7
370
    25
100
AcDbLine
 10
107.5
 20
24.5
 30
0.0
 11
107.5
 21
6.5
 31
0.0
  0
LINE
  5
26D
330
1B
100
AcDbEntity
 67
     1
  8
0
  6
Continuous
 62
     7
370
    25
100
AcDbLine
 10
107.5
 20
24.5
 30
0.0
 11
121.5
 21
24.5
 31
0.0
  0
LINE
  5
26E
330
1B
100
AcDbEntity
 67
     1
  8
0
  6
Continuous
 62
     7
370
    25
100
AcDbLine
 10
121.5
 20
24.5
 30
0.0
 11
121.5
 21
6.5
 31
0.0
  0
LINE
  5
26F
330
1B
100
AcDbEntity
 67
     1
  8
0
  6
Continuous
 62
     7
370
    25
100
AcDbLine
 10
86.5
 20
21.5
 30
0.0
 11
121.5
 21
21.5
 31
0.0
  0
LINE
  5
270
330
1B
100
AcDbEntity
 67
     1
  8
0
  6
Continuous
 62
     7
370
    18
100
AcDbLine
 10
86.5
 20
18.5
 30
0.0
 11
121.5
 21
18.5
 31
0.0
  0
LINE
  5
271
330
1B
100
AcDbEntity
 67
     1
  8
0
  6
Continuous
 62
     7
370
    18
100
AcDbLine
 10
86.5
 20
15.5
 30
0.0
 11
121.5
 21
15.5
 31
0.0
  0
LINE
  5
272
330
1B
100
AcDbEntity
 67
     1
  8
0
  6
Continuous
 62
     7
370
    18
100
AcDbLine
 10
86.5
 20
12.5
 30
0.0
 11
121.5
 21
12.5
 31
0.0
  0
LINE
  5
273
330
1B
100
AcDbEntity
 67
     1
  8
0
  6
Continuous
 62
     7
370
    18
100
AcDbLine
 10
86.5
 20
9.5
 30
0.0
 11
121.5
 21
9.5
 31
0.0
  0
LINE
  5
274
330
1B
100
AcDbEntity
 67
     1
  8
0
  6
Continuous
 62
     7
370
    50
100
AcDbLine
 10
6.5
 20
6.5
 30
0.0
 11
6.5
 21
203.5
 31
0.0
  0
LINE
  5
275
330
1B
100
AcDbEntity
 67
     1
  8
0
  6
Continuous
 62
     7
370
    50
100
AcDbLine
 10
6.5
 20
203.5
 30
0.0
 11
290.5
 21
203.5
 31
0.0
  0
LINE
  5
276
330
1B
100
AcDbEntity
 67
     1
  8
0
  6
Continuous
 62
     7
370
    50
100
AcDbLine
 10
290.5
 20
203.5
 30
0.0
 11
290.5
 21
6.5
 31
0.0
  0
LINE
  5
277
330
1B
100
AcDbEntity
 67
     1
  8
0
  6
Continuous
 62
     7
370
    50
100
AcDbLine
 10
290.5
 20
6.5
 30
0.0
 11
6.5
 21
6.5
 31
0.0
  0
LINE
  5
278
330
1B
100
AcDbEntity
 67
     1
  8
0
  6
Continuous
 62
     7
370
    35
100
AcDbLine
 10
3.999
 20
105.0
 30
0.0
 11
6.501
 21
105.0
 31
0.0
  0
LINE
  5
279
330
1B
100
AcDbEntity
 67
     1
  8
0
  6
Continuous
 62
     7
370
    35
100
AcDbLine
 10
148.5
 20
206.001
 30
0.0
 11
148.5
 21
203.499
 31
0.0
  0
LINE
  5
27A
330
1B
100
AcDbEntity
 67
     1
  8
0
  6
Continuous
 62
     7
370
    35
100
AcDbLine
 10
293.001
 20
105.0
 30
0.0
 11
290.499
 21
105.0
 31
0.0
  0
LINE
  5
27B
330
1B
100
AcDbEntity
 67
     1
  8
0
  6
Continuous
 62
     7
370
    35
100
AcDbLine
 10
148.5
 20
3.999
 30
0.0
 11
148.5
 21
6.5
 31
0.0
  0
LINE
  5
27C
330
1B
100
AcDbEntity
 67
     1
  8
0
  6
Continuous
 62
     7
370
    35
100
AcDbLine
 10
6.5
 20
52.5
 30
0.0
 11
4.0
 21
52.5
 31
0.0
  0
LINE
  5
27D
330
1B
100
AcDbEntity
 67
     1
  8
0
  6
Continuous
 62
     7
370
    35
100
AcDbLine
 10
290.5
 20
52.5
 30
0.0
 11
293.0
 21
52.5
 31
0.0
  0
LINE
  5
27E
330
1B
100
AcDbEntity
 67
     1
  8
0
  6
Continuous
 62
     7
370
    35
100
AcDbLine
 10
6.5
 20
105.0
 30
0.0
 11
4.0
 21
105.0
 31
0.0
  0
LINE
  5
27F
330
1B
100
AcDbEntity
 67
     1
  8
0
  6
Continuous
 62
     7
370
    35
100
AcDbLine
 10
290.5
 20
105.0
 30
0.0
 11
293.0
 21
105.0
 31
0.0
  0
LINE
  5
280
330
1B
100
AcDbEntity
 67
     1
  8
0
  6
Continuous
 62
     7
370
    35
100
AcDbLine
 10
6.5
 20
157.5
 30
0.0
 11
4.0
 21
157.5
 31
0.0
  0
LINE
  5
281
330
1B
100
AcDbEntity
 67
     1
  8
0
  6
Continuous
 62
     7
370
    35
100
AcDbLine
 10
290.5
 20
157.5
 30
0.0
 11
293.0
 21
157.5
 31
0.0
  0
LINE
  5
282
330
1B
100
AcDbEntity
 67
     1
  8
0
  6
Continuous
 62
     7
370
    35
100
AcDbLine
 10
49.5
 20
203.5
 30
0.0
 11
49.5
 21
206.0
 31
0.0
  0
LINE
  5
283
330
1B
100
AcDbEntity
 67
     1
  8
0
  6
Continuous
 62
     7
370
    35
100
AcDbLine
 10
49.5
 20
6.5
 30
0.0
 11
49.5
 21
4.0
 31
0.0
  0
LINE
  5
284
330
1B
100
AcDbEntity
 67
     1
  8
0
  6
Continuous
 62
     7
370
    35
100
AcDbLine
 10
99.0
 20
203.5
 30
0.0
 11
99.0
 21
206.0
 31
0.0
  0
LINE
  5
285
330
1B
100
AcDbEntity
 67
     1
  8
0
  6
Continuous
 62
     7
370
    35
100
AcDbLine
 10
99.0
 20
6.5
 30
0.0
 11
99.0
 21
4.0
 31
0.0
  0
LINE
  5
286
330
1B
100
AcDbEntity
 67
     1
  8
0
  6
Continuous
 62
     7
370
    35
100
AcDbLine
 10
148.5
 20
203.5
 30
0.0
 11
148.5
 21
206.0
 31
0.0
  0
LINE
  5
287
330
1B
100
AcDbEntity
 67
     1
  8
0
  6
Continuous
 62
     7
370
    35
100
AcDbLine
 10
148.5
 20
6.5
 30
0.0
 11
148.5
 21
4.0
 31
0.0
  0
LINE
  5
288
330
1B
100
AcDbEntity
 67
     1
  8
0
  6
Continuous
 62
     7
370
    35
100
AcDbLine
 10
198.0
 20
203.5
 30
0.0
 11
198.0
 21
206.0
 31
0.0
  0
LINE
  5
289
330
1B
100
AcDbEntity
 67
     1
  8
0
  6
Continuous
 62
     7
370
    35
100
AcDbLine
 10
198.0
 20
6.5
 30
0.0
 11
198.0
 21
4.0
 31
0.0
  0
LINE
  5
28A
330
1B
100
AcDbEntity
 67
     1
  8
0
  6
Continuous
 62
     7
370
    35
100
AcDbLine
 10
247.5
 20
203.5
 30
0.0
 11
247.5
 21
206.0
 31
0.0
  0
LINE
  5
28B
330
1B
100
AcDbEntity
 67
     1
  8
0
  6
Continuous
 62
     7
370
    35
100
AcDbLine
 10
247.5
 20
6.5
 30
0.0
 11
247.5
 21
4.0
 31
0.0
  0
INSERT
  5
291
330
1B
100
AcDbEntity
 67
     1
  8
0
  6
Continuous
 62
     7
370
     0
100
AcDbBlockReference
  2
SW_NOTE_5
 10
11.4000852605
 20
188.0194397451
 30
0.0
  0
INSERT
  5
298
330
1B
100
AcDbEntity
 67
     1
  8
0
  6
Continuous
 62
     7
370
     0
100
AcDbBlockReference
  2
SW_NOTE_6
 10
11.4000852605
 20
180.718061212
 30
0.0
  0
MTEXT
  5
299
330
1B
100
AcDbEntity
 67
     1
  8
0
  6
Continuous
 62
     7
370
     0
100
AcDbMText
 10
96.9348960165
 20
23.8441056926
 30
0.0
 40
1.5
 41
0.0
 71
     2
 72
     1
  1
NAME
  7
SLDTEXTSTYLE0
 73
     1
 44
1.0
  0
MTEXT
  5
29A
330
1B
100
AcDbEntity
 67
     1
  8
0
  6
Continuous
 62
     7
370
     0
100
AcDbMText
 10
114.0641927183
 20
23.8441056926
 30
0.0
 40
1.5
 41
0.0
 71
     2
 72
     1
  1
DATE
  7
SLDTEXTSTYLE0
 73
     1
 44
1.0
  0
INSERT
  5
2A0
330
1B
100
AcDbEntity
 67
     1
  8
0
  6
Continuous
 62
     7
370
     0
100
AcDbBlockReference
  2
SW_NOTE_7
 10
11.4000852605
 20
194.9368541489
 30
0.0
  0
MTEXT
  5
2A1
330
1B
100
AcDbEntity
 67
     1
  8
0
  6
Continuous
 62
     7
370
     0
100
AcDbMText
 10
77.458787507
 20
17.3676989281
 30
0.0
 40
1.5
 41
0.0
 71
     1
 72
     1
  1
REV.
  7
SLDTEXTSTYLE0
 73
     1
 44
1.0
  0
MTEXT
  5
2A2
330
1B
100
AcDbEntity
 67
     1
  8
0
  6
Continuous
 62
     7
370
     0
100
AcDbMText
 10
31.4894535691
 20
9.1415846842
 30
0.0
 40
1.5
 41
0.0
 71
     2
 72
     1
  1
SCALE:2:1
  7
SLDTEXTSTYLE0
 73
     1
 44
1.0
  0
MTEXT
  5
2A3
330
1B
100
AcDbEntity
 67
     1
  8
0
  6
Continuous
 62
     7
370
     0
100
AcDbMText
 10
60.819531586
 20
9.1415846842
 30
0.0
 40
1.5
 41
0.0
 71
     2
 72
     1
  1
SHEET 2 OF 2
  7
SLDTEXTSTYLE1
 73
     1
 44
1.0
  0
MTEXT
  5
2A4
330
1B
100
AcDbEntity
 67
     1
  8
0
  6
Continuous
 62
     7
370
     0
100
AcDbMText
 10
9.0
 20
11.3711687256
 30
0.0
 40
2.9104166667
 41
0.0
 71
     1
 72
     1
  1
A4
  7
SLDTEXTSTYLE0
 73
     1
 44
1.0
  0
MTEXT
  5
2A5
330
1B
100
AcDbEntity
 67
     1
  8
0
  6
Continuous
 62
     7
370
     0
100
AcDbMText
 10
7.5
 20
23.8180163561
 30
0.0
 40
1.8520833333
 41
0.0
 71
     1
 72
     1
  1
TITLE
  7
SLDTEXTSTYLE0
 73
     1
 44
1.0
  0
MTEXT
  5
2A6
330
1B
100
AcDbEntity
 67
     1
  8
0
  6
Continuous
 62
     7
370
     0
100
AcDbMText
 10
17.3
 20
17.8180163561
 30
0.0
 40
1.8520833333
 41
0.0
 71
     1
 72
     1
  1
PART NO.
  7
SLDTEXTSTYLE0
 73
     1
 44
1.0
  0
MTEXT
  5
2A7
330
1B
100
AcDbEntity
 67
     1
  8
0
  6
Continuous
 62
     7
370
     0
100
AcDbMText
 10
3.1431254285
 20
26.9867693846
 30
0.0
 40
2.6458333333
 41
0.0
 71
     2
 72
     1
  1
A
  7
SLDTEXTSTYLE0
 73
     1
 44
1.0
  0
MTEXT
  5
2A8
330
1B
100
AcDbEntity
 67
     1
  8
0
  6
Continuous
 62
     7
370
     0
100
AcDbMText
 10
293.6431254285
 20
26.9867693846
 30
0.0
 40
2.6458333333
 41
0.0
 71
     2
 72
     1
  1
A
  7
SLDTEXTSTYLE0
 73
     1
 44
1.0
  0
MTEXT
  5
2A9
330
1B
100
AcDbEntity
 67
     1
  8
0
  6
Continuous
 62
     7
370
     0
100
AcDbMText
 10
3.2304012161
 20
79.4867693846
 30
0.0
 40
2.6458333333
 41
0.0
 71
     2
 72
     1
  1
B
  7
SLDTEXTSTYLE0
 73
     1
 44
1.0
  0
MTEXT
  5
2AA
330
1B
100
AcDbEntity
 67
     1
  8
0
  6
Continuous
 62
     7
370
     0
100
AcDbMText
 10
293.7304012161
 20
79.4867693846
 30
0.0
 40
2.6458333333
 41
0.0
 71
     2
 72
     1
  1
B
  7
SLDTEXTSTYLE0
 73
     1
 44
1.0
  0
MTEXT
  5
2AB
330
1B
100
AcDbEntity
 67
     1
  8
0
  6
Continuous
 62
     7
370
     0
100
AcDbMText
 10
3.222439268
 20
131.9867693846
 30
0.0
 40
2.6458333333
 41
0.0
 71
     2
 72
     1
  1
C
  7
SLDTEXTSTYLE0
 73
     1
 44
1.0
  0
MTEXT
  5
2AC
330
1B
100
AcDbEntity
 67
     1
  8
0
  6
Continuous
 62
     7
370
     0
100
AcDbMText
 10
293.722439268
 20
131.9867693846
 30
0.0
 40
2.6458333333
 41
0.0
 71
     2
 72
     1
  1
C
  7
SLDTEXTSTYLE0
 73
     1
 44
1.0
  0
MTEXT
  5
2AD
330
1B
100
AcDbEntity
 67
     1
  8
0
  6
Continuous
 62
     7
370
     0
100
AcDbMText
 10
3.2184581881
 20
184.4867693846
 30
0.0
 40
2.6458333333
 41
0.0
 71
     2
 72
     1
  1
D
  7
SLDTEXTSTYLE0
 73
     1
 44
1.0
  0
MTEXT
  5
2AE
330
1B
100
AcDbEntity
 67
     1
  8
0
  6
Continuous
 62
     7
370
     0
100
AcDbMText
 10
293.7184581881
 20
184.4867693846
 30
0.0
 40
2.6458333333
 41
0.0
 71
     2
 72
     1
  1
D
  7
SLDTEXTSTYLE0
 73
     1
 44
1.0
  0
MTEXT
  5
2AF
330
1B
100
AcDbEntity
 67
     1
  8
0
  6
Continuous
 62
     7
370
     0
100
AcDbMText
 10
24.7233578867
 20
3.9867693846
 30
0.0
 40
2.6458333333
 41
0.0
 71
     2
 72
     1
  1
6
  7
SLDTEXTSTYLE0
 73
     1
 44
1.0
  0
MTEXT
  5
2B0
330
1B
100
AcDbEntity
 67
     1
  8
0
  6
Continuous
 62
     7
370
     0
100
AcDbMText
 10
24.7233578867
 20
207.4867693846
 30
0.0
 40
2.6458333333
 41
0.0
 71
     2
 72
     1
  1
6
  7
SLDTEXTSTYLE0
 73
     1
 44
1.0
  0
MTEXT
  5
2B1
330
1B
100
AcDbEntity
 67
     1
  8
0
  6
Continuous
 62
     7
370
     0
100
AcDbMText
 10
74.2233578867
 20
3.9867693846
 30
0.0
 40
2.6458333333
 41
0.0
 71
     2
 72
     1
  1
5
  7
SLDTEXTSTYLE0
 73
     1
 44
1.0
  0
MTEXT
  5
2B2
330
1B
100
AcDbEntity
 67
     1
  8
0
  6
Continuous
 62
     7
370
     0
100
AcDbMText
 10
74.2233578867
 20
207.4867693846
 30
0.0
 40
2.6458333333
 41
0.0
 71
     2
 72
     1
  1
5
  7
SLDTEXTSTYLE0
 73
     1
 44
1.0
  0
MTEXT
  5
2B3
330
1B
100
AcDbEntity
 67
     1
  8
0
  6
Continuous
 62
     7
370
     0
100
AcDbMText
 10
123.7233578867
 20
3.9867693846
 30
0.0
 40
2.6458333333
 41
0.0
 71
     2
 72
     1
  1
4
  7
SLDTEXTSTYLE0
 73
     1
 44
1.0
  0
MTEXT
  5
2B4
330
1B
100
AcDbEntity
 67
     1
  8
0
  6
Continuous
 62
     7
370
     0
100
AcDbMText
 10
123.7233578867
 20
207.4867693846
 30
0.0
 40
2.6458333333
 41
0.0
 71
     2
 72
     1
  1
4
  7
SLDTEXTSTYLE0
 73
     1
 44
1.0
  0
MTEXT
  5
2B5
330
1B
100
AcDbEntity
 67
     1
  8
0
  6
Continuous
 62
     7
370
     0
100
AcDbMText
 10
173.2233578867
 20
3.9867693846
 30
0.0
 40
2.6458333333
 41
0.0
 71
     2
 72
     1
  1
3
  7
SLDTEXTSTYLE0
 73
     1
 44
1.0
  0
MTEXT
  5
2B6
330
1B
100
AcDbEntity
 67
     1
  8
0
  6
Continuous
 62
     7
370
     0
100
AcDbMText
 10
173.2233578867
 20
207.4867693846
 30
0.0
 40
2.6458333333
 41
0.0
 71
     2
 72
     1
  1
3
  7
SLDTEXTSTYLE0
 73
     1
 44
1.0
  0
MTEXT
  5
2B7
330
1B
100
AcDbEntity
 67
     1
  8
0
  6
Continuous
 62
     7
370
     0
100
AcDbMText
 10
222.7233578867
 20
3.9867693846
 30
0.0
 40
2.6458333333
 41
0.0
 71
     2
 72
     1
  1
2
  7
SLDTEXTSTYLE0
 73
     1
 44
1.0
  0
MTEXT
  5
2B8
330
1B
100
AcDbEntity
 67
     1
  8
0
  6
Continuous
 62
     7
370
     0
100
AcDbMText
 10
222.7233578867
 20
207.4867693846
 30
0.0
 40
2.6458333333
 41
0.0
 71
     2
 72
     1
  1
2
  7
SLDTEXTSTYLE0
 73
     1
 44
1.0
  0
MTEXT
  5
2B9
330
1B
100
AcDbEntity
 67
     1
  8
0
  6
Continuous
 62
     7
370
     0
100
AcDbMText
 10
272.2233578867
 20
3.9867693846
 30
0.0
 40
2.6458333333
 41
0.0
 71
     2
 72
     1
  1
1
  7
SLDTEXTSTYLE0
 73
     1
 44
1.0
  0
MTEXT
  5
2BA
330
1B
100
AcDbEntity
 67
     1
  8
0
  6
Continuous
 62
     7
370
     0
100
AcDbMText
 10
272.2233578867
 20
207.4867693846
 30
0.0
 40
2.6458333333
 41
0.0
 71
     2
 72
     1
  1
1
  7
SLDTEXTSTYLE0
 73
     1
 44
1.0
  0
INSERT
  5
2C0
330
1B
100
AcDbEntity
 67
     1
  8
0
  6
Continuous
 62
     7
370
     0
100
AcDbBlockReference
  2
SW_NOTE_8
 10
8.2544444371
 20
15.3833334278
 30
0.0
  0
INSERT
  5
2C6
330
1B
100
AcDbEntity
 67
     1
  8
0
  6
Continuous
 62
     7
370
     0
100
AcDbBlockReference
  2
SW_NOTE_9
 10
123.6160993023
 20
11.0335772844
 30
0.0
  0
MTEXT
  5
2C7
330
1B
100
AcDbEntity
 67
     1
  8
0
  6
Continuous
 62
     7
370
     0
100
AcDbMText
 10
45.3444425017
 20
23.4944459201
 30
0.0
 40
3.5
 41
0.0
 71
     2
 72
     1
  1
Camera Holder
  7
SLDTEXTSTYLE0
 73
     1
 44
1.0
  0
MTEXT
  5
2C8
330
1B
100
AcDbEntity
 67
     1
  8
0
  6
Continuous
 62
     7
370
     0
100
AcDbMText
 10
45.1366315186
 20
14.8444459201
 30
0.0
 40
3.5
 41
0.0
 71
     2
 72
     1
  1
FAB-CH001
  7
SLDTEXTSTYLE0
 73
     1
 44
1.0
  0
MTEXT
  5
2C9
330
1B
100
AcDbEntity
 67
     1
  8
0
  6
Continuous
 62
     7
370
     0
100
AcDbMText
 10
81.825402269
 20
13.2772093466
 30
0.0
 40
3.7041666667
 41
0.0
 71
     2
 72
     1
  1
01
  7
SLDTEXTSTYLE0
 73
     1
 44
1.0
  0
MTEXT
  5
2CA
330
1B
100
AcDbEntity
 67
     1
  8
0
  6
Continuous
 62
     7
370
     0
100
AcDbMText
 10
114.5390452825
 20
20.9528377084
 30
0.0
 40
1.5875
 41
0.0
 71
     2
 72
     1
  1
17/04/2018
  7
SLDTEXTSTYLE0
 73
     1
 44
1.0
  0
MTEXT
  5
2CB
330
1B
100
AcDbEntity
 67
     1
  8
0
  6
Continuous
 62
     7
370
     0
100
AcDbMText
 10
96.8739560634
 20
20.9528377084
 30
0.0
 40
1.5875
 41
0.0
 71
     2
 72
     1
  1
Edward Allgeyer
  7
SLDTEXTSTYLE0
 73
     1
 44
1.0
  0
LWPOLYLINE
  5
2CC
330
1B
100
AcDbEntity
 67
     1
  8
0
  6
Continuous
 62
     7
370
    25
100
AcDbPolyline
 90
       45
 70
   128
 43
0.0
 10
52.9168275674
 20
69.1875947043
 10
52.5808237323
 20
69.5486715096
 10
52.1877396543
 20
69.8912130573
 10
51.7455773919
 20
70.2082461894
 10
51.2633380935
 20
70.4933170256
 10
50.7508387606
 20
70.7406223456
 10
50.2185124017
 20
70.9451277265
 10
49.6771956463
 20
71.1026700282
 10
49.1379081427
 20
71.210042144
 10
48.611628229
 20
71.2650582872
 10
48.1090694469
 20
71.2665984877
 10
47.6404624437
 20
71.2146313915
 10
47.2153467067
 20
71.1102148988
 10
46.8423763664
 20
70.9554746283
 10
46.5291440234
 20
70.7535606457
 10
46.2820261849
 20
70.5085833373
 10
46.1060534574
 20
70.2255297348
 10
46.0048081382
 20
69.9101619932
 10
45.98035129
 20
69.5689000903
 10
46.0331807838
 20
69.2086911343
 10
46.1622211634
 20
68.8368679408
 10
46.3648455388
 20
68.4609997578
 10
46.636929062
 20
68.0887381776
 10
46.9729328971
 20
67.7276613723
 10
47.3660169751
 20
67.3851198246
 10
47.8081792375
 20
67.0680866925
 10
48.2904185359
 20
66.7830158564
 10
48.8029178688
 20
66.5357105363
 10
49.3352442277
 20
66.3312051555
 10
49.8765609831
 20
66.1736628537
 10
50.4158484867
 20
66.0662907379
 10
50.9421284004
 20
66.0112745947
 10
51.4446871825
 20
66.0097343942
 10
51.9132941857
 20
66.0617014904
 10
52.3384099227
 20
66.1661179831
 10
52.711380263
 20
66.3208582536
 10
53.024612606
 20
66.5227722362
 10
53.2717304446
 20
66.7677495446
 10
53.447703172
 20
67.0508031471
 10
53.5489484912
 20
67.3661708887
 10
53.5734053394
 20
67.7074327916
 10
53.5205758456
 20
68.0676417476
 10
53.391535466
 20
68.4394649411
 10
53.1889110906
 20
68.8153331241
 10
52.9168275674
 20
69.1875947043
  0
LINE
  5
2CD
330
1B
100
AcDbEntity
 67
     1
  8
0
  6
Continuous
 62
     7
370
    25
100
AcDbLine
 10
57.0603102017
 20
72.8629161816
 30
0.0
 11
52.3503863227
 21
72.0387737865
 31
0.0
  0
LINE
  5
2CE
330
1B
100
AcDbEntity
 67
     1
  8
0
  6
Continuous
 62
     7
370
    25
100
AcDbLine
 10
57.0603102017
 20
72.8629161816
 30
0.0
 11
61.3331419438
 21
67.7099862806
 31
0.0
  0
LINE
  5
2CF
330
1B
100
AcDbEntity
 67
     1
  8
0
  6
Continuous
 62
     7
370
    25
100
AcDbLine
 10
61.3331419438
 20
67.7099862806
 30
0.0
 11
56.6232180648
 21
66.8858438855
 31
0.0
  0
LINE
  5
2D0
330
1B
100
AcDbEntity
 67
     1
  8
0
  6
Continuous
 62
     7
370
    25
100
AcDbLine
 10
56.6232180648
 20
66.8858438855
 30
0.0
 11
67.30529742
 21
54.003519133
 31
0.0
  0
LINE
  5
2D1
330
1B
100
AcDbEntity
 67
     1
  8
0
  6
Continuous
 62
     7
370
    25
100
AcDbLine
 10
67.30529742
 20
54.003519133
 30
0.0
 11
70.4452466726
 21
54.5529473964
 31
0.0
  0
LINE
  5
2D2
330
1B
100
AcDbEntity
 67
     1
  8
0
  6
Continuous
 62
     7
370
    25
100
AcDbLine
 10
70.4452466726
 20
54.5529473964
 30
0.0
 11
78.9909101568
 21
44.2470875943
 31
0.0
  0
LINE
  5
2D3
330
1B
100
AcDbEntity
 67
     1
  8
0
  6
Continuous
 62
     7
370
    25
100
AcDbLine
 10
78.9909101568
 20
44.2470875943
 30
0.0
 11
66.431113146
 21
42.0493745408
 31
0.0
  0
LINE
  5
2D4
330
1B
100
AcDbEntity
 67
     1
  8
0
  6
Continuous
 62
     7
370
    25
100
AcDbLine
 10
23.7027957253
 20
93.578673551
 30
0.0
 11
66.431113146
 21
42.0493745408
 31
0.0
  0
LINE
  5
2D5
330
1B
100
AcDbEntity
 67
     1
  8
0
  6
Continuous
 62
     7
370
    25
100
AcDbLine
 10
36.2625927361
 20
95.7763866045
 30
0.0
 11
23.7027957253
 21
93.578673551
 31
0.0
  0
LINE
  5
2D6
330
1B
100
AcDbEntity
 67
     1
  8
0
  6
Continuous
 62
     7
370
    25
100
AcDbLine
 10
36.2625927361
 20
95.7763866045
 30
0.0
 11
44.8082562202
 21
85.4705268025
 31
0.0
  0
LINE
  5
2D7
330
1B
100
AcDbEntity
 67
     1
  8
0
  6
Continuous
 62
     7
370
    25
100
AcDbLine
 10
41.6683069675
 20
84.9210985391
 30
0.0
 11
44.8082562202
 21
85.4705268025
 31
0.0
  0
LINE
  5
2D8
330
1B
100
AcDbEntity
 67
     1
  8
0
  6
Continuous
 62
     7
370
    25
100
AcDbLine
 10
41.6683069675
 20
84.9210985391
 30
0.0
 11
52.3503863227
 21
72.0387737865
 31
0.0
  0
LINE
  5
2D9
330
1B
100
AcDbEntity
 67
     1
  8
0
  6
Continuous
 62
     7
370
    25
100
AcDbLine
 10
48.8141152169
 20
153.778198274
 30
0.0
 11
23.7027957253
 21
93.578673551
 31
0.0
  0
LINE
  5
2DA
330
1B
100
AcDbEntity
 67
     1
  8
0
  6
Continuous
 62
     7
370
    25
100
AcDbLine
 10
61.3739122276
 20
155.9759113275
 30
0.0
 11
48.8141152169
 21
153.778198274
 31
0.0
  0
LINE
  5
2DB
330
1B
100
AcDbEntity
 67
     1
  8
0
  6
Continuous
 62
     7
370
    25
100
AcDbLine
 10
61.3739122276
 20
155.9759113275
 30
0.0
 11
56.3516483293
 21
143.9360063829
 31
0.0
  0
LINE
  5
2DC
330
1B
100
AcDbEntity
 67
     1
  8
0
  6
Continuous
 62
     7
370
    25
100
AcDbLine
 10
53.2116990766
 20
143.3865781195
 30
0.0
 11
56.3516483293
 21
143.9360063829
 31
0.0
  0
LINE
  5
2DD
330
1B
100
AcDbEntity
 67
     1
  8
0
  6
Continuous
 62
     7
370
    25
100
AcDbLine
 10
53.2116990766
 20
143.3865781195
 30
0.0
 11
38.1449073817
 21
107.2668632857
 31
0.0
  0
LINE
  5
2DE
330
1B
100
AcDbEntity
 67
     1
  8
0
  6
Continuous
 62
     7
370
    25
100
AcDbLine
 10
38.1449073817
 20
107.2668632857
 30
0.0
 11
41.2848566344
 21
107.8162915491
 31
0.0
  0
LINE
  5
2DF
330
1B
100
AcDbEntity
 67
     1
  8
0
  6
Continuous
 62
     7
370
    25
100
AcDbLine
 10
41.2848566344
 20
107.8162915491
 30
0.0
 11
36.2625927361
 21
95.7763866045
 31
0.0
  0
LWPOLYLINE
  5
2E0
330
1B
100
AcDbEntity
 67
     1
  8
0
  6
Continuous
 62
     7
370
    25
100
AcDbPolyline
 90
       45
 70
   128
 43
0.0
 10
44.1083286028
 20
125.0520065709
 10
44.2550541155
 20
125.4747784647
 10
44.3348724079
 20
125.8777591668
 10
44.3461586098
 20
126.2527451523
 10
44.2886829667
 20
126.592102788
 10
44.163615517
 20
126.8889237309
 10
43.9735022731
 20
127.1371655626
 10
43.7222133927
 20
127.3317747954
 10
43.4148643925
 20
127.4687897464
 10
43.057712012
 20
127.5454211863
 10
42.6580268435
 20
127.5601091201
 10
42.2239453247
 20
127.5125545437
 10
41.7643041034
 20
127.4037255312
 10
41.2884601493
 20
127.2358375274
 10
40.8061002732
 20
127.012308248
 10
40.3270439312
 20
126.7376881045
 10
39.8610433288
 20
126.417567571
 10
39.4175848945
 20
126.0584633785
 10
39.0056961633
 20
125.6676858528
 10
38.6337620017
 20
125.2531900973
 10
38.309353917
 20
124.8234140504
 10
38.039075922
 20
124.3871067129
 10
37.8284300974
 20
123.9531500442
 10
37.6817045848
 20
123.5303781504
 10
37.6018862924
 20
123.1273974483
 10
37.5906000904
 20
122.7524114627
 10
37.6480757335
 20
122.4130538271
 10
37.7731431833
 20
122.1162328842
 10
37.9632564271
 20
121.8679910524
 10
38.2145453076
 20
121.6733818197
 10
38.5218943077
 20
121.5363668687
 10
38.8790466883
 20
121.4597354288
 10
39.2787318567
 20
121.445047495
 10
39.7128133755
 20
121.4926020714
 10
40.1724545969
 20
121.6014310839
 10
40.6482985509
 20
121.7693190877
 10
41.130658427
 20
121.9928483671
 10
41.609714769
 20
122.2674685106
 10
42.0757153714
 20
122.5875890441
 10
42.5191738057
 20
122.9466932366
 10
42.931062537
 20
123.3374707623
 10
43.3029966985
 20
123.7519665178
 10
43.6274047833
 20
124.1817425647
 10
43.8976827782
 20
124.6180499022
 10
44.1083286028
 20
125.0520065709
  0
LWPOLYLINE
  5
2E1
330
1B
100
AcDbEntity
 67
     1
  8
0
  6
Continuous
 62
     7
370
    25
100
AcDbPolyline
 90
       39
 70
   128
 43
0.0
 10
45.684221831
 20
99.1176469957
 10
45.4076467473
 20
99.4049120259
 10
45.1129294857
 20
99.622762986
 10
44.8081091651
 20
99.7652574695
 10
44.501500489
 20
99.8285085986
 10
44.2014669429
 20
99.8107910473
 10
43.9161926599
 20
99.7125881041
 10
43.6534591786
 20
99.5365784894
 10
43.4204331836
 20
99.2875632867
 10
43.2234710166
 20
98.9723349816
 10
43.0679452921
 20
98.5994921804
 10
42.9580983463
 20
98.1792050628
 10
42.8969265176
 20
97.7229379659
 10
42.8860984141
 20
97.2431366666
 10
42.9259093981
 20
96.7528888936
 10
43.0152735298
 20
96.2655673282
 10
43.1517531887
 20
95.7944648324
 10
43.3316255655
 20
95.3524318541
 10
43.5499842105
 20
94.9515259007
 10
43.8008728692
 20
94.6026826415
 10
44.0774479529
 20
94.3154176113
 10
44.3721652145
 20
94.0975666513
 10
44.6769855351
 20
93.9550721677
 10
44.9835942112
 20
93.8918210386
 10
45.2836277573
 20
93.90953859
 10
45.5689020403
 20
94.0077415331
 10
45.8316355216
 20
94.1837511478
 10
46.0646615166
 20
94.4327663505
 10
46.2616236836
 20
94.7479946557
 10
46.4171494082
 20
95.1208374569
 10
46.5269963539
 20
95.5411245744
 10
46.5881681826
 20
95.9973916713
 10
46.5989962861
 20
96.4771929706
 10
46.5591853021
 20
96.9674407436
 10
46.4698211704
 20
97.454762309
 10
46.3333415115
 20
97.9258648049
 10
46.1534691347
 20
98.3678977832
 10
45.9351104897
 20
98.7688037366
 10
45.684221831
 20
99.1176469957
  0
LINE
  5
2E2
330
1B
100
AcDbEntity
 67
     1
  8
0
  6
Continuous
 62
     7
370
    25
100
AcDbLine
 10
41.2848566344
 20
107.8162915491
 30
0.0
 11
47.6941042475
 21
100.0868966976
 31
0.0
  0
LINE
  5
2E3
330
1B
100
AcDbEntity
 67
     1
  8
0
  6
Continuous
 62
     7
370
    25
100
AcDbLine
 10
48.5749541439
 20
94.5004555109
 30
0.0
 11
47.6941042475
 21
100.0868966976
 31
0.0
  0
LINE
  5
2E4
330
1B
100
AcDbEntity
 67
     1
  8
0
  6
Continuous
 62
     7
370
    25
100
AcDbLine
 10
48.5749541439
 20
94.5004555109
 30
0.0
 11
44.8082562202
 21
85.4705268025
 31
0.0
  0
LINE
  5
2E5
330
1B
100
AcDbEntity
 67
     1
  8
0
  6
Continuous
 62
     7
370
    25
100
AcDbLine
 10
82.0766083108
 20
58.6224431561
 30
0.0
 11
87.1510546753
 21
70.7874454563
 31
0.0
  0
LINE
  5
2E6
330
1B
100
AcDbEntity
 67
     1
  8
0
  6
Continuous
 62
     7
370
    25
100
AcDbLine
 10
67.30529742
 20
54.003519133
 30
0.0
 11
71.0719953437
 21
63.0334478414
 31
0.0
  0
LINE
  5
2E7
330
1B
100
AcDbEntity
 67
     1
  8
0
  6
Continuous
 62
     7
370
    25
100
AcDbLine
 10
53.6059522973
 20
75.0487500227
 30
0.0
 11
52.3503863227
 21
72.0387737865
 31
0.0
  0
LINE
  5
2E8
330
1B
100
AcDbEntity
 67
     1
  8
0
  6
Continuous
 62
     7
370
    25
100
AcDbLine
 10
59.6209466897
 20
135.657183268
 30
0.0
 11
53.2116990766
 21
143.3865781195
 31
0.0
  0
LINE
  5
2E9
330
1B
100
AcDbEntity
 67
     1
  8
0
  6
Continuous
 62
     7
370
    25
100
AcDbLine
 10
63.0129285353
 20
136.0906945536
 30
0.0
 11
59.6209466897
 21
135.657183268
 31
0.0
  0
LINE
  5
2EA
330
1B
100
AcDbEntity
 67
     1
  8
0
  6
Continuous
 62
     7
370
    25
100
AcDbLine
 10
92.4166169115
 20
114.203043856
 30
0.0
 11
68.7161922034
 21
142.7851726449
 31
0.0
  0
LINE
  5
2EB
330
1B
100
AcDbEntity
 67
     1
  8
0
  6
Continuous
 62
     7
370
    25
100
AcDbLine
 10
88.6499189878
 20
105.1731151475
 30
0.0
 11
92.4166169115
 21
114.203043856
 31
0.0
  0
LINE
  5
2EC
330
1B
100
AcDbEntity
 67
     1
  8
0
  6
Continuous
 62
     7
370
    25
100
AcDbLine
 10
89.5307688842
 20
99.5866739609
 30
0.0
 11
88.6499189878
 21
105.1731151475
 31
0.0
  0
LINE
  5
2ED
330
1B
100
AcDbEntity
 67
     1
  8
0
  6
Continuous
 62
     7
370
    25
100
AcDbLine
 10
95.9400164973
 20
91.8572791094
 30
0.0
 11
89.5307688842
 21
99.5866739609
 31
0.0
  0
LINE
  5
2EE
330
1B
100
AcDbEntity
 67
     1
  8
0
  6
Continuous
 62
     7
370
    25
100
AcDbLine
 10
90.9897571621
 20
79.9899911582
 30
0.0
 11
95.9400164973
 21
91.8572791094
 31
0.0
  0
LINE
  5
2EF
330
1B
100
AcDbEntity
 67
     1
  8
0
  6
Continuous
 62
     7
370
    25
100
AcDbLine
 10
87.5257707534
 20
79.3838628791
 30
0.0
 11
85.0146388043
 21
73.3639104068
 31
0.0
  0
LINE
  5
2F0
330
1B
100
AcDbEntity
 67
     1
  8
0
  6
Continuous
 62
     7
370
    25
100
AcDbLine
 10
85.0146388043
 20
73.3639104068
 30
0.0
 11
87.1510546753
 21
70.7874454563
 31
0.0
  0
LWPOLYLINE
  5
2F1
330
1B
100
AcDbEntity
 67
     1
  8
0
  6
Continuous
 62
     7
370
    25
100
AcDbPolyline
 90
      115
 70
   128
 43
0.0
 10
58.9566170632
 20
80.1778242367
 10
58.2109693318
 20
81.1212989406
 10
57.4921425532
 20
82.1207776637
 10
56.8023197807
 20
83.1732250221
 10
56.1435959833
 20
84.2754447676
 10
55.5179716837
 20
85.4240894952
 10
54.9273468822
 20
86.6156708086
 10
54.3735152869
 20
87.8465699144
 10
53.8581588662
 20
89.1130486126
 10
53.3828427406
 20
90.4112606489
 10
52.9490104296
 20
91.7372633961
 10
52.5579794677
 20
93.0870298275
 10
52.2109374029
 20
94.4564607466
 10
51.9089381907
 20
95.841397237
 10
51.6528989927
 20
97.2376332918
 10
51.4435973916
 20
98.6409285881
 10
51.2816690295
 20
100.0470213643
 10
51.1676056774
 20
101.4516413628
 10
51.101753742
 20
102.8505227988
 10
51.0843132135
 20
104.2394173153
 10
51.1153370582
 20
105.6141068855
 10
51.1947310577
 20
106.9704166221
 10
51.322254095
 20
108.3042274572
 10
51.4975188869
 20
109.611488651
 10
51.7199931599
 20
110.8882300944
 10
51.989001267
 20
112.1305743654
 10
52.3037262394
 20
113.3347485053
 10
52.6632122677
 20
114.497095477
 10
53.0663676047
 20
115.6140852708
 10
53.5119678808
 20
116.6823256254
 10
53.9986598227
 20
117.69857233
 10
54.5249653629
 20
118.6597390767
 10
55.0892861288
 20
119.5629068338
 10
55.6899082967
 20
120.4053327104
 10
56.325007797
 20
121.1844582869
 10
56.9926558532
 20
121.8979173844
 10
57.6908248402
 20
122.5435432511
 10
58.4173944418
 20
123.1193751425
 10
59.1701580898
 20
123.6236642762
 10
59.9468296659
 20
124.0548791424
 10
60.745050444
 20
124.4117101559
 10
61.5623962539
 20
124.6930736326
 10
62.3963848431
 20
124.8981150809
 10
63.2444834158
 20
125.0262117967
 10
64.1041163244
 20
125.0769747543
 10
64.9726728921
 20
125.0502497885
 10
65.847515341
 20
124.946118062
 10
66.7259868036
 20
124.7648958194
 10
67.6054193907
 20
124.5071334268
 10
68.4831422945
 20
124.1736137001
 10
69.3564898995
 20
123.7653495276
 10
70.2228098776
 20
123.2835807944
 10
71.0794712435
 20
122.7297706162
 10
71.9238723448
 20
122.1056008963
 10
72.7534487632
 20
121.4129672176
 10
73.5656811023
 20
120.6539730858
 10
74.3581026393
 20
119.8309235413
 10
75.1283068158
 20
118.9463181584
 10
75.8739545472
 20
118.0028434545
 10
76.5927813258
 20
117.0033647314
 10
77.2826040984
 20
115.950917373
 10
77.9413278957
 20
114.8486976275
 10
78.5669521954
 20
113.7000528999
 10
79.1575769969
 20
112.5084715865
 10
79.7114085922
 20
111.2775724807
 10
80.2267650128
 20
110.0110937825
 10
80.7020811384
 20
108.7128817462
 10
81.1359134494
 20
107.3868789989
 10
81.5269444114
 20
106.0371125676
 10
81.8739864761
 20
104.6676816484
 10
82.1759856883
 20
103.2827451581
 10
82.4320248863
 20
101.8865091033
 10
82.6413264874
 20
100.4832138069
 10
82.8032548495
 20
99.0771210307
 10
82.9173182016
 20
97.6725010323
 10
82.983170137
 20
96.2736195963
 10
83.0006106655
 20
94.8847250797
 10
82.9695868208
 20
93.5100355096
 10
82.8901928213
 20
92.153725773
 10
82.762669784
 20
90.8199149379
 10
82.5874049921
 20
89.5126537441
 10
82.3649307191
 20
88.2359123007
 10
82.095922612
 20
86.9935680297
 10
81.7811976396
 20
85.7893938897
 10
81.4217116113
 20
84.6270469181
 10
81.0185562743
 20
83.5100571243
 10
80.5729559982
 20
82.4418167697
 10
80.0862640564
 20
81.4255700651
 10
79.5599585162
 20
80.4644033183
 10
78.9956377503
 20
79.5612355613
 10
78.3950155823
 20
78.7188096847
 10
77.7599160821
 20
77.9396841082
 10
77.0922680258
 20
77.2262250107
 10
76.3940990388
 20
76.580599144
 10
75.6675294373
 20
76.0047672525
 10
74.9147657892
 20
75.5004781189
 10
74.1380942131
 20
75.0692632527
 10
73.339873435
 20
74.7124322392
 10
72.5225276252
 20
74.4310687624
 10
71.6885390359
 20
74.2260273141
 10
70.8404404633
 20
74.0979305984
 10
69.9808075547
 20
74.0471676407
 10
69.112250987
 20
74.0738926066
 10
68.237408538
 20
74.1780243331
 10
67.3589370755
 20
74.3592465757
 10
66.4795044884
 20
74.6170089683
 10
65.6017815845
 20
74.950528695
 10
64.7284339796
 20
75.3587928675
 10
63.8621140015
 20
75.8405616007
 10
63.0054526355
 20
76.3943717789
 10
62.1610515342
 20
77.0185414988
 10
61.3314751158
 20
77.7111751775
 10
60.5192427767
 20
78.4701693092
 10
59.7268212398
 20
79.2932188538
 10
58.9566170632
 20
80.1778242367
  0
ARC
  5
2F2
330
1B
100
AcDbEntity
 67
     1
  8
0
  6
Continuous
 62
     7
370
    25
100
AcDbCircle
 10
44.1319760161
 20
98.0690608619
 30
0.0
 40
1.170481432737527
100
AcDbArc
 50
31.0467291769
 51
165.4684388648
  0
LWPOLYLINE
  5
2F3
330
1B
100
AcDbEntity
 67
     1
  8
0
  6
Continuous
 62
     7
370
    25
100
AcDbPolyline
 90
       19
 70
   128
 43
0.0
 10
43.6127610893
 20
94.8547928815
 10
43.688175823
 20
94.7734791017
 10
43.9488326751
 20
94.5496488411
 10
44.2223851009
 20
94.3978730805
 10
44.5000409002
 20
94.3230300178
 10
44.7728759874
 20
94.3275251706
 10
45.0321212181
 20
94.411214061
 10
45.2694442374
 20
94.5714068591
 10
45.4772172881
 20
94.8029548368
 10
45.6487623735
 20
95.0984158514
 10
45.7785658933
 20
95.4482935428
 10
45.8624558556
 20
95.8413425541
 10
45.897735968
 20
96.2649299668
 10
45.8832722987
 20
96.7054413328
 10
45.8195297219
 20
97.1487182543
 10
45.7085569764
 20
97.5805134465
 10
45.5539208177
 20
97.9869486565
 10
45.360591379
 20
98.3549607223
 10
45.1347824276
 20
98.6727214333
  0
LWPOLYLINE
  5
2F4
330
1B
100
AcDbEntity
 67
     1
  8
0
  6
Continuous
 62
     7
370
    25
100
AcDbPolyline
 90
       48
 70
   128
 43
0.0
 10
58.1073044696
 20
122.8848829003
 10
58.1855716326
 20
122.8588486366
 10
59.0632945365
 20
122.5253289099
 10
59.9366421414
 20
122.1170647375
 10
60.8029621195
 20
121.6352960042
 10
61.6596234854
 20
121.081485826
 10
62.5040245868
 20
120.4573161061
 10
63.3336010052
 20
119.7646824274
 10
64.1458333443
 20
119.0056882957
 10
64.9382548812
 20
118.1826387511
 10
65.7084590577
 20
117.2980333682
 10
66.4541067891
 20
116.3545586643
 10
67.1729335678
 20
115.3550799412
 10
67.8627563403
 20
114.3026325828
 10
68.5214801376
 20
113.2004128373
 10
69.1471044373
 20
112.0517681097
 10
69.7377292388
 20
110.8601867963
 10
70.2915608341
 20
109.6292876905
 10
70.8069172548
 20
108.3628089923
 10
71.2822333803
 20
107.064596956
 10
71.7160656913
 20
105.7385942088
 10
72.1070966533
 20
104.3888277774
 10
72.454138718
 20
103.0193968583
 10
72.7561379303
 20
101.634460368
 10
73.0121771282
 20
100.2382243131
 10
73.2214787293
 20
98.8349290168
 10
73.3834070915
 20
97.4288362406
 10
73.4974704436
 20
96.0242162421
 10
73.5633223789
 20
94.6253348061
 10
73.5807629074
 20
93.2364402896
 10
73.5497390627
 20
91.8617507195
 10
73.4703450632
 20
90.5054409828
 10
73.3428220259
 20
89.1716301477
 10
73.1675572341
 20
87.8643689539
 10
72.945082961
 20
86.5876275106
 10
72.6760748539
 20
85.3452832395
 10
72.3613498815
 20
84.1411090996
 10
72.0018638532
 20
82.9787621279
 10
71.5987085163
 20
81.8617723341
 10
71.1531082402
 20
80.7935319795
 10
70.6664162983
 20
79.7772852749
 10
70.1401107581
 20
78.8161185282
 10
69.5757899922
 20
77.9129507711
 10
68.9751678242
 20
77.0705248945
 10
68.340068324
 20
76.2913993181
 10
67.6724202677
 20
75.5779402205
 10
66.9742512807
 20
74.9323143538
 10
66.5577716514
 20
74.5909747046
  0
LINE
  5
2F5
330
1B
100
AcDbEntity
 67
     1
  8
0
  6
Continuous
 62
     7
370
    25
100
AcDbLine
 10
62.5887079184
 20
70.7199625168
 30
0.0
 11
58.3158761763
 21
75.8728924178
 31
0.0
  0
LINE
  5
2F6
330
1B
100
AcDbEntity
 67
     1
  8
0
  6
Continuous
 62
     7
370
    25
100
AcDbLine
 10
61.3331419438
 20
67.7099862806
 30
0.0
 11
62.5887079184
 21
70.7199625168
 31
0.0
  0
LINE
  5
2F7
330
1B
100
AcDbEntity
 67
     1
  8
0
  6
Continuous
 62
     7
370
    25
100
AcDbLine
 10
58.3158761763
 20
75.8728924178
 30
0.0
 11
57.0603102017
 21
72.8629161816
 31
0.0
  0
LINE
  5
2F8
330
1B
100
AcDbEntity
 67
     1
  8
0
  6
Continuous
 62
     7
370
    25
100
AcDbLine
 10
58.3158761763
 20
75.8728924178
 30
0.0
 11
53.6059522973
 21
75.0487500227
 31
0.0
  0
LWPOLYLINE
  5
2F9
330
1B
100
AcDbEntity
 67
     1
  8
0
  6
Continuous
 62
     7
370
    25
100
AcDbPolyline
 90
       31
 70
   128
 43
0.0
 10
48.1143841632
 20
71.2668711583
 10
47.8505221646
 20
71.1934180542
 10
47.5198286794
 20
71.0463916977
 10
47.2501215821
 20
70.8530370737
 10
47.0480419567
 20
70.6181152147
 10
46.9185656741
 20
70.3474106767
 10
46.8648808701
 20
70.0475891037
 10
46.8883094428
 20
69.7260330979
 10
46.988274503
 20
69.3906604354
 10
47.1623145791
 20
69.0497291041
 10
47.4061442268
 20
68.711633965
 10
47.713759551
 20
68.3847000424
 10
48.0775860415
 20
68.0769775344
 10
48.4886650826
 20
67.7960435907
 10
48.936874544
 20
67.5488157371
 10
49.4111780213
 20
67.341381544
 10
49.8998965888
 20
67.1788487296
 10
50.3909963733
 20
67.0652193913
 10
50.8723848682
 20
67.0032914604
 10
51.3322086913
 20
66.9945898082
 10
51.7591454539
 20
67.0393286981
 10
52.1426825559
 20
67.1364065103
 10
52.4733760411
 20
67.2834328669
 10
52.7430831384
 20
67.4767874909
 10
52.9451627638
 20
67.7117093498
 10
53.0746390464
 20
67.9824138879
 10
53.1283238504
 20
68.2822354609
 10
53.1048952777
 20
68.6037914666
 10
53.0049302175
 20
68.9391641292
 10
52.8308901414
 20
69.2800954604
 10
52.8145800944
 20
69.306255651
  0
LWPOLYLINE
  5
2FA
330
1B
100
AcDbEntity
 67
     1
  8
0
  6
Continuous
 62
     7
370
    25
100
AcDbPolyline
 90
       29
 70
   128
 43
0.0
 10
44.0917847109
 20
125.0129323982
 10
44.1260169751
 20
125.2501506315
 10
44.1206296201
 20
125.5829338871
 10
44.0468293903
 20
125.8780130072
 10
43.9064334924
 20
126.1281221646
 10
43.7028989392
 20
126.3271028417
 10
43.4412374269
 20
126.4700554738
 10
43.1278919305
 20
126.5534600929
 10
42.7705780559
 20
126.5752630003
 10
42.3780940566
 20
126.534927336
 10
41.9601041912
 20
126.4334462981
 10
41.5269007575
 20
126.2733186864
 10
41.0891506618
 20
126.0584873743
 10
40.6576327641
 20
125.7942422215
 10
40.2429724672
 20
125.4870898207
 10
39.8553800839
 20
125.1445932835
 10
39.504399425
 20
124.7751860111
 10
39.1986727991
 20
124.3879640368
 10
38.9457282104
 20
123.9924620506
 10
38.7517939941
 20
123.5984186239
 10
38.6216454543
 20
123.2155364138
 10
38.55848728
 20
122.8532432509
 10
38.563874635
 20
122.5204599953
 10
38.6376748648
 20
122.2253808752
 10
38.7780707627
 20
121.9752717178
 10
38.9816053159
 20
121.7762910408
 10
39.2432668282
 20
121.6333384086
 10
39.5566123246
 20
121.5499337895
 10
39.8886137982
 20
121.5276449136
  0
LINE
  5
2FB
330
1B
100
AcDbEntity
 67
     1
  8
0
  6
Continuous
 62
     7
370
    25
100
AcDbLine
 10
74.2119445964
 20
63.5828761048
 30
0.0
 11
71.0719953437
 21
63.0334478414
 31
0.0
  0
LINE
  5
2FC
330
1B
100
AcDbEntity
 67
     1
  8
0
  6
Continuous
 62
     7
370
    25
100
AcDbLine
 10
70.4452466726
 20
54.5529473964
 30
0.0
 11
74.2119445964
 21
63.5828761048
 31
0.0
  0
LWPOLYLINE
  5
2FD
330
1B
100
AcDbEntity
 67
     1
  8
0
  6
Continuous
 62
     7
370
    25
100
AcDbPolyline
 90
       39
 70
   128
 43
0.0
 10
77.7304598966
 20
60.4706727381
 10
77.4538848128
 20
60.7579377683
 10
77.1591675513
 20
60.9757887283
 10
76.8543472306
 20
61.1182832119
 10
76.5477385545
 20
61.181534341
 10
76.2477050085
 20
61.1638167896
 10
75.9624307254
 20
61.0656138465
 10
75.6996972441
 20
60.8896042318
 10
75.4666712492
 20
60.6405890291
 10
75.2697090822
 20
60.3253607239
 10
75.1141833576
 20
59.9525179227
 10
75.0043364118
 20
59.5322308052
 10
74.9431645831
 20
59.0759637083
 10
74.9323364796
 20
58.596162409
 10
74.9721474636
 20
58.105914636
 10
75.0615115954
 20
57.6185930706
 10
75.1979912543
 20
57.1474905747
 10
75.377863631
 20
56.7054575964
 10
75.596222276
 20
56.304551643
 10
75.8471109347
 20
55.9557083839
 10
76.1236860185
 20
55.6684433537
 10
76.41840328
 20
55.4505923937
 10
76.7232236007
 20
55.3080979101
 10
77.0298322768
 20
55.244846781
 10
77.3298658228
 20
55.2625643323
 10
77.6151401059
 20
55.3607672755
 10
77.8778735871
 20
55.5367768902
 10
78.1108995821
 20
55.7857920929
 10
78.3078617491
 20
56.101020398
 10
78.4633874737
 20
56.4738631993
 10
78.5732344195
 20
56.8941503168
 10
78.6344062481
 20
57.3504174137
 10
78.6452343517
 20
57.830218713
 10
78.6054233676
 20
58.320466486
 10
78.5160592359
 20
58.8077880514
 10
78.379579577
 20
59.2788905472
 10
78.1997072003
 20
59.7209235255
 10
77.9813485553
 20
60.1218294789
 10
77.7304598966
 20
60.4706727381
  0
LINE
  5
2FE
330
1B
100
AcDbEntity
 67
     1
  8
0
  6
Continuous
 62
     7
370
    25
100
AcDbLine
 10
78.9909101568
 20
44.2470875943
 30
0.0
 11
84.0131740551
 21
56.2869925389
 31
0.0
  0
LINE
  5
2FF
330
1B
100
AcDbEntity
 67
     1
  8
0
  6
Continuous
 62
     7
370
    25
100
AcDbLine
 10
77.603926442
 20
64.0163873905
 30
0.0
 11
74.2119445964
 21
63.5828761048
 31
0.0
  0
LINE
  5
300
330
1B
100
AcDbEntity
 67
     1
  8
0
  6
Continuous
 62
     7
370
    25
100
AcDbLine
 10
77.603926442
 20
64.0163873905
 30
0.0
 11
84.0131740551
 21
56.2869925389
 31
0.0
  0
LWPOLYLINE
  5
301
330
1B
100
AcDbEntity
 67
     1
  8
0
  6
Continuous
 62
     7
370
    25
100
AcDbPolyline
 90
       39
 70
   128
 43
0.0
 10
64.5177114497
 20
144.267290538
 10
64.2411363659
 20
144.5545555682
 10
63.9464191044
 20
144.7724065282
 10
63.6415987837
 20
144.9149010118
 10
63.3349901077
 20
144.9781521409
 10
63.0349565616
 20
144.9604345895
 10
62.7496822785
 20
144.8622316464
 10
62.4869487973
 20
144.6862220317
 10
62.2539228023
 20
144.437206829
 10
62.0569606353
 20
144.1219785238
 10
61.9014349107
 20
143.7491357226
 10
61.7915879649
 20
143.3288486051
 10
61.7304161363
 20
142.8725815081
 10
61.7195880327
 20
142.3927802088
 10
61.7593990168
 20
141.9025324359
 10
61.8487631485
 20
141.4152108705
 10
61.9852428074
 20
140.9441083746
 10
62.1651151841
 20
140.5020753963
 10
62.3834738292
 20
140.1011694429
 10
62.6343624878
 20
139.7523261838
 10
62.9109375716
 20
139.4650611536
 10
63.2056548331
 20
139.2472101935
 10
63.5104751538
 20
139.10471571
 10
63.8170838299
 20
139.0414645809
 10
64.117117376
 20
139.0591821322
 10
64.402391659
 20
139.1573850754
 10
64.6651251403
 20
139.33339469
 10
64.8981511352
 20
139.5824098928
 10
65.0951133023
 20
139.8976381979
 10
65.2506390268
 20
140.2704809991
 10
65.3604859726
 20
140.6907681167
 10
65.4216578013
 20
141.1470352136
 10
65.4324859048
 20
141.6268365129
 10
65.3926749208
 20
142.1170842859
 10
65.303310789
 20
142.6044058513
 10
65.1668311301
 20
143.0755083471
 10
64.9869587534
 20
143.5175413254
 10
64.7686001084
 20
143.9184472788
 10
64.5177114497
 20
144.267290538
  0
LINE
  5
302
330
1B
100
AcDbEntity
 67
     1
  8
0
  6
Continuous
 62
     7
370
    25
100
AcDbLine
 10
69.9195757118
 20
145.6700515255
 30
0.0
 11
61.3739122276
 21
155.9759113275
 31
0.0
  0
LINE
  5
303
330
1B
100
AcDbEntity
 67
     1
  8
0
  6
Continuous
 62
     7
370
    25
100
AcDbLine
 10
69.9195757118
 20
145.6700515255
 30
0.0
 11
66.152877788
 21
136.640122817
 31
0.0
  0
LINE
  5
304
330
1B
100
AcDbEntity
 67
     1
  8
0
  6
Continuous
 62
     7
370
    25
100
AcDbLine
 10
62.7608959424
 20
136.2066115314
 30
0.0
 11
66.152877788
 21
136.640122817
 31
0.0
  0
LINE
  5
305
330
1B
100
AcDbEntity
 67
     1
  8
0
  6
Continuous
 62
     7
370
    25
100
AcDbLine
 10
62.7608959424
 20
136.2066115314
 30
0.0
 11
56.3516483293
 21
143.9360063829
 31
0.0
  0
LINE
  5
306
330
1B
100
AcDbEntity
 67
     1
  8
0
  6
Continuous
 62
     7
370
    25
100
AcDbLine
 10
59.6209466897
 20
135.657183268
 30
0.0
 11
62.7608959424
 21
136.2066115314
 31
0.0
  0
ARC
  5
307
330
1B
100
AcDbEntity
 67
     1
  8
0
  6
Continuous
 62
     7
370
    25
100
AcDbCircle
 10
76.1782140817
 20
59.4220866043
 30
0.0
 40
1.170481432707755
100
AcDbArc
 50
31.0467291757
 51
165.468438854
  0
LWPOLYLINE
  5
308
330
1B
100
AcDbEntity
 67
     1
  8
0
  6
Continuous
 62
     7
370
    25
100
AcDbPolyline
 90
       19
 70
   128
 43
0.0
 10
75.658999155
 20
56.2078186236
 10
75.7344138885
 20
56.1265048441
 10
75.9950707406
 20
55.9026745835
 10
76.2686231664
 20
55.7508988229
 10
76.5462789658
 20
55.6760557601
 10
76.8191140529
 20
55.6805509129
 10
77.0783592837
 20
55.7642398033
 10
77.315682303
 20
55.9244326015
 10
77.5234553537
 20
56.1559805792
 10
77.695000439
 20
56.4514415937
 10
77.8248039588
 20
56.8013192851
 10
77.9086939212
 20
57.1943682965
 10
77.9439740336
 20
57.6179557091
 10
77.9295103643
 20
58.0584670751
 10
77.8657677874
 20
58.5017439967
 10
77.754795042
 20
58.9335391889
 10
77.6001588832
 20
59.3399743989
 10
77.4068294445
 20
59.7079864647
 10
77.1810204932
 20
60.0257471757
  0
ARC
  5
309
330
1B
100
AcDbEntity
 67
     1
  8
0
  6
Continuous
 62
     7
370
    25
100
AcDbCircle
 10
62.9654656347
 20
143.218704404
 30
0.0
 40
1.1704814328976
100
AcDbArc
 50
31.0467291838
 51
165.4684389226
  0
LWPOLYLINE
  5
30A
330
1B
100
AcDbEntity
 67
     1
  8
0
  6
Continuous
 62
     7
370
    25
100
AcDbPolyline
 90
       19
 70
   128
 43
0.0
 10
62.4462507072
 20
140.0044364246
 10
62.5216654416
 20
139.923122644
 10
62.7823222937
 20
139.6992923833
 10
63.0558747195
 20
139.5475166227
 10
63.3335305189
 20
139.47267356
 10
63.6063656061
 20
139.4771687128
 10
63.8656108368
 20
139.5608576032
 10
64.1029338561
 20
139.7210504014
 10
64.3107069068
 20
139.952598379
 10
64.4822519922
 20
140.2480593936
 10
64.612055512
 20
140.597937085
 10
64.6959454743
 20
140.9909860964
 10
64.7312255867
 20
141.414573509
 10
64.7167619174
 20
141.855084875
 10
64.6530193406
 20
142.2983617966
 10
64.5420465951
 20
142.7301569888
 10
64.3874104363
 20
143.1365921988
 10
64.1940809977
 20
143.5046042646
 10
63.9682720463
 20
143.8223649755
  0
LINE
  5
30B
330
1B
100
AcDbEntity
 67
     1
  8
0
  6
Continuous
 62
     7
370
    25
100
AcDbLine
 10
66.152877788
 20
136.640122817
 30
0.0
 11
63.0129285353
 21
136.0906945536
 31
0.0
  0
LINE
  5
30C
330
1B
100
AcDbEntity
 67
     1
  8
0
  6
Continuous
 62
     7
370
    25
100
AcDbLine
 10
92.2356946325
 20
80.2080052742
 30
0.0
 11
87.5257707534
 21
79.3838628791
 31
0.0
  0
LINE
  5
30D
330
1B
100
AcDbEntity
 67
     1
  8
0
  6
Continuous
 62
     7
370
    25
100
AcDbLine
 10
92.2356946325
 20
80.2080052742
 30
0.0
 11
89.7245626833
 21
74.1880528019
 31
0.0
  0
LINE
  5
30E
330
1B
100
AcDbEntity
 67
     1
  8
0
  6
Continuous
 62
     7
370
    25
100
AcDbLine
 10
89.7245626833
 20
74.1880528019
 30
0.0
 11
85.0146388043
 21
73.3639104068
 31
0.0
  0
LINE
  5
30F
330
1B
100
AcDbEntity
 67
     1
  8
0
  6
Continuous
 62
     7
370
    25
100
AcDbLine
 10
89.7245626833
 20
74.1880528019
 30
0.0
 11
91.8609785543
 21
71.6115878514
 31
0.0
  0
LINE
  5
310
330
1B
100
AcDbEntity
 67
     1
  8
0
  6
Continuous
 62
     7
370
    25
100
AcDbLine
 10
91.8609785543
 20
71.6115878514
 30
0.0
 11
87.1510546753
 21
70.7874454563
 31
0.0
  0
LINE
  5
311
330
1B
100
AcDbEntity
 67
     1
  8
0
  6
Continuous
 62
     7
370
    25
100
AcDbLine
 10
94.3721105035
 20
77.6315403237
 30
0.0
 11
92.2356946325
 21
80.2080052742
 31
0.0
  0
LINE
  5
312
330
1B
100
AcDbEntity
 67
     1
  8
0
  6
Continuous
 62
     7
370
    25
100
AcDbLine
 10
91.8609785543
 20
71.6115878514
 30
0.0
 11
94.3721105035
 21
77.6315403237
 31
0.0
  0
LINE
  5
313
330
1B
100
AcDbEntity
 67
     1
  8
0
  6
Continuous
 62
     7
370
    25
100
AcDbLine
 10
88.6499189878
 20
105.1731151475
 30
0.0
 11
91.7898682405
 21
105.7225434109
 31
0.0
  0
LINE
  5
314
330
1B
100
AcDbEntity
 67
     1
  8
0
  6
Continuous
 62
     7
370
    25
100
AcDbLine
 10
91.7898682405
 20
105.7225434109
 30
0.0
 11
92.6707181369
 21
100.1361022243
 31
0.0
  0
LINE
  5
315
330
1B
100
AcDbEntity
 67
     1
  8
0
  6
Continuous
 62
     7
370
    25
100
AcDbLine
 10
92.6707181369
 20
100.1361022243
 30
0.0
 11
89.5307688842
 21
99.5866739609
 31
0.0
  0
LWPOLYLINE
  5
316
330
1B
100
AcDbEntity
 67
     1
  8
0
  6
Continuous
 62
     7
370
    25
100
AcDbPolyline
 90
       39
 70
   128
 43
0.0
 10
96.5639495152
 20
105.6203162804
 10
96.2873744315
 20
105.9075813105
 10
95.99265717
 20
106.1254322706
 10
95.6878368493
 20
106.2679267542
 10
95.3812281732
 20
106.3311778832
 10
95.0811946271
 20
106.3134603319
 10
94.7959203441
 20
106.2152573888
 10
94.5331868628
 20
106.0392477741
 10
94.3001608678
 20
105.7902325714
 10
94.1031987008
 20
105.4750042662
 10
93.9476729763
 20
105.102161465
 10
93.8378260305
 20
104.6818743474
 10
93.7766542018
 20
104.2256072505
 10
93.7658260983
 20
103.7458059512
 10
93.8056370823
 20
103.2555581782
 10
93.8950012141
 20
102.7682366128
 10
94.031480873
 20
102.297134117
 10
94.2113532497
 20
101.8551011387
 10
94.4297118947
 20
101.4541951853
 10
94.6806005534
 20
101.1053519261
 10
94.9571756371
 20
100.8180868959
 10
95.2518928987
 20
100.6002359359
 10
95.5567132193
 20
100.4577414523
 10
95.8633218954
 20
100.3944903232
 10
96.1633554415
 20
100.4122078746
 10
96.4486297246
 20
100.5104108177
 10
96.7113632058
 20
100.6864204324
 10
96.9443892008
 20
100.9354356351
 10
97.1413513678
 20
101.2506639403
 10
97.2968770924
 20
101.6235067415
 10
97.4067240381
 20
102.0437938591
 10
97.4678958668
 20
102.500060956
 10
97.4787239704
 20
102.9798622553
 10
97.4389129863
 20
103.4701100283
 10
97.3495488546
 20
103.9574315936
 10
97.2130691957
 20
104.4285340895
 10
97.0331968189
 20
104.8705670678
 10
96.8148381739
 20
105.2714730212
 10
96.5639495152
 20
105.6203162804
  0
LINE
  5
317
330
1B
100
AcDbEntity
 67
     1
  8
0
  6
Continuous
 62
     7
370
    25
100
AcDbLine
 10
99.07996575
 20
92.4067073728
 30
0.0
 11
92.6707181369
 21
100.1361022243
 31
0.0
  0
LINE
  5
318
330
1B
100
AcDbEntity
 67
     1
  8
0
  6
Continuous
 62
     7
370
    25
100
AcDbLine
 10
91.7898682405
 20
105.7225434109
 30
0.0
 11
95.5565661642
 21
114.7524721194
 31
0.0
  0
LINE
  5
319
330
1B
100
AcDbEntity
 67
     1
  8
0
  6
Continuous
 62
     7
370
    25
100
AcDbLine
 10
104.1022296483
 20
104.4466123174
 30
0.0
 11
95.5565661642
 21
114.7524721194
 31
0.0
  0
LINE
  5
31A
330
1B
100
AcDbEntity
 67
     1
  8
0
  6
Continuous
 62
     7
370
    25
100
AcDbLine
 10
99.07996575
 20
92.4067073728
 30
0.0
 11
104.1022296483
 21
104.4466123174
 31
0.0
  0
LINE
  5
31B
330
1B
100
AcDbEntity
 67
     1
  8
0
  6
Continuous
 62
     7
370
    25
100
AcDbLine
 10
95.9400164973
 20
91.8572791094
 30
0.0
 11
99.07996575
 21
92.4067073728
 31
0.0
  0
LINE
  5
31C
330
1B
100
AcDbEntity
 67
     1
  8
0
  6
Continuous
 62
     7
370
    25
100
AcDbLine
 10
92.4166169115
 20
114.203043856
 30
0.0
 11
95.5565661642
 21
114.7524721194
 31
0.0
  0
ARC
  5
31D
330
1B
100
AcDbEntity
 67
     1
  8
0
  6
Continuous
 62
     7
370
    25
100
AcDbCircle
 10
95.0117037003
 20
104.5717301466
 30
0.0
 40
1.170481432706383
100
AcDbArc
 50
31.0467291756
 51
165.4684388535
  0
LWPOLYLINE
  5
31E
330
1B
100
AcDbEntity
 67
     1
  8
0
  6
Continuous
 62
     7
370
    25
100
AcDbPolyline
 90
       19
 70
   128
 43
0.0
 10
94.4924887737
 20
101.3574621658
 10
94.5679035072
 20
101.2761483864
 10
94.8285603593
 20
101.0523181257
 10
95.1021127851
 20
100.9005423651
 10
95.3797685845
 20
100.8256993024
 10
95.6526036716
 20
100.8301944552
 10
95.9118489023
 20
100.9138833456
 10
96.1491719216
 20
101.0740761438
 10
96.3569449723
 20
101.3056241214
 10
96.5284900577
 20
101.601085136
 10
96.6582935775
 20
101.9509628274
 10
96.7421835398
 20
102.3440118387
 10
96.7774636523
 20
102.7675992514
 10
96.7629999829
 20
103.2081106174
 10
96.6992574061
 20
103.651387539
 10
96.5882846606
 20
104.0831827311
 10
96.4336485019
 20
104.4896179412
 10
96.2403190632
 20
104.857630007
 10
96.0145101118
 20
105.1753907179
  0
INSERT
  5
32B
330
1B
100
AcDbEntity
 67
     1
  8
0
  6
Continuous
 62
     7
370
     0
100
AcDbBlockReference
  2
SW_NOTE_10
 10
113.5231092437
 20
58.7879781807
 30
0.0
  0
LEADER
  5
335
330
1B
100
AcDbEntity
 67
     1
  8
0
  6
Continuous
 62
     7
370
     0
100
AcDbLeader
  3
SLDDIMSTYLE4
 76
     2
 10
77.5125
 20
87.2250000017
 30
0.0
 10
113.5231092437
 20
58.7879781807
 30
0.0
  0
LWPOLYLINE
  5
336
330
1B
100
AcDbEntity
 67
     1
  8
0
  6
Continuous
 62
     7
370
    18
100
AcDbPolyline
 90
       17
 70
   128
 43
0.0
 10
77.9986036623
 20
56.2121633152
 10
77.5162717087
 20
55.4953535745
 10
76.8634329603
 20
55.1818541937
 10
76.1394761987
 20
55.3193926117
 10
75.4546172781
 20
55.887029851
 10
74.913119761
 20
56.7983482876
 10
74.5974217355
 20
57.9146079507
 10
74.5555853644
 20
59.0658684255
 10
74.7939798558
 20
60.0768607409
 10
75.2763118095
 20
60.7936704816
 10
75.9291505578
 20
61.1071698624
 10
76.6531073194
 20
60.9696314445
 10
77.33796624
 20
60.4019942052
 10
77.8794637571
 20
59.4906757685
 10
78.1951617826
 20
58.3744161054
 10
78.2369981537
 20
57.2231556306
 10
77.9986036623
 20
56.2121633152
  0
LWPOLYLINE
  5
337
330
1B
100
AcDbEntity
 67
     1
  8
0
  6
Continuous
 62
     7
370
    18
100
AcDbPolyline
 90
       17
 70
   128
 43
0.0
 10
96.832093281
 20
101.3618068574
 10
96.3497613273
 20
100.6449971168
 10
95.696922579
 20
100.331497736
 10
94.9729658174
 20
100.4690361539
 10
94.2881068968
 20
101.0366733932
 10
93.7466093796
 20
101.9479918299
 10
93.4309113542
 20
103.064251493
 10
93.3890749831
 20
104.2155119678
 10
93.6274694744
 20
105.2265042832
 10
94.1098014281
 20
105.9433140239
 10
94.7626401765
 20
106.2568134047
 10
95.4865969381
 20
106.1192749867
 10
96.1714558587
 20
105.5516377474
 10
96.7129533758
 20
104.6403193108
 10
97.0286514012
 20
103.5240596477
 10
97.0704877724
 20
102.3727991729
 10
96.832093281
 20
101.3618068574
  0
LWPOLYLINE
  5
338
330
1B
100
AcDbEntity
 67
     1
  8
0
  6
Continuous
 62
     7
370
    18
100
AcDbPolyline
 90
       17
 70
   128
 43
0.0
 10
64.7858552155
 20
140.0087811151
 10
64.3035232618
 20
139.2919713744
 10
63.6506845134
 20
138.9784719936
 10
62.9267277518
 20
139.1160104115
 10
62.2418688313
 20
139.6836476508
 10
61.7003713141
 20
140.5949660875
 10
61.3846732887
 20
141.7112257506
 10
61.3428369175
 20
142.8624862254
 10
61.5812314089
 20
143.8734785408
 10
62.0635633626
 20
144.5902882815
 10
62.7164021109
 20
144.9037876623
 10
63.4403588725
 20
144.7662492444
 10
64.1252177931
 20
144.1986120051
 10
64.6667153103
 20
143.2872935684
 10
64.9824133357
 20
142.1710339053
 10
65.0242497069
 20
141.0197734305
 10
64.7858552155
 20
140.0087811151
  0
LWPOLYLINE
  5
339
330
1B
100
AcDbEntity
 67
     1
  8
0
  6
Continuous
 62
     7
370
    18
100
AcDbPolyline
 90
       17
 70
   128
 43
0.0
 10
45.9523655968
 20
94.8591375728
 10
45.4700336431
 20
94.1423278321
 10
44.8171948948
 20
93.8288284514
 10
44.0932381332
 20
93.9663668693
 10
43.4083792126
 20
94.5340041086
 10
42.8668816954
 20
95.4453225452
 10
42.55118367
 20
96.5615822083
 10
42.5093472988
 20
97.7128426832
 10
42.7477417902
 20
98.7238349986
 10
43.2300737439
 20
99.4406447392
 10
43.8829124923
 20
99.75414412
 10
44.6068692539
 20
99.6166057021
 10
45.2917281744
 20
99.0489684628
 10
45.8332256916
 20
98.1376500262
 10
46.148923717
 20
97.021390363
 10
46.1907600882
 20
95.8701298882
 10
45.9523655968
 20
94.8591375728
  0
LWPOLYLINE
  5
33A
330
1B
100
AcDbEntity
 67
     1
  8
0
  6
Continuous
 62
     7
370
    18
100
AcDbPolyline
 90
       17
 70
   128
 43
0.0
 10
44.4822013802
 20
124.6011252046
 10
43.7627026785
 20
123.4074344309
 10
42.6747123219
 20
122.3118267842
 10
41.3838669794
 20
121.481098597
 10
40.086686153
 20
121.0417207051
 10
38.9806538645
 20
121.0605844096
 10
38.2341535035
 20
121.5348178826
 10
37.9608329832
 20
122.3922233767
 10
38.2023028749
 20
123.5022686778
 10
38.9218015766
 20
124.6959594515
 10
40.0097919332
 20
125.7915670982
 10
41.3006372757
 20
126.6222952855
 10
42.5978181021
 20
127.0616731774
 10
43.7038503907
 20
127.0428094728
 10
44.4503507516
 20
126.5685759998
 10
44.7236712719
 20
125.7111705057
 10
44.4822013802
 20
124.6011252046
  0
LWPOLYLINE
  5
33B
330
1B
100
AcDbEntity
 67
     1
  8
0
  6
Continuous
 62
     7
370
    18
100
AcDbPolyline
 90
       17
 70
   128
 43
0.0
 10
53.1365516129
 20
69.7143405457
 10
53.7151081664
 20
68.6865473588
 10
53.7275559193
 20
67.7315808951
 10
53.1719998139
 20
66.9948261419
 10
52.1330182313
 20
66.5884473318
 10
50.768786699
 20
66.5743119546
 10
49.2869971009
 20
66.9545719935
 10
47.9132384711
 20
67.6713363045
 10
46.8566531076
 20
68.6154840189
 10
46.2780965541
 20
69.6432772058
 10
46.2656488013
 20
70.5982436695
 10
46.8212049066
 20
71.3349984226
 10
47.8601864892
 20
71.7413772328
 10
49.2244180215
 20
71.75551261
 10
50.7062076196
 20
71.3752525711
 10
52.0799662495
 20
70.65848826
 10
53.1365516129
 20
69.7143405457
  0
LWPOLYLINE
  5
33C
330
1B
100
AcDbEntity
 67
     1
  8
0
  6
Continuous
 62
     7
370
    25
100
AcDbPolyline
 90
       45
 70
   128
 43
0.0
 10
213.3970769969
 20
158.8382656398
 10
213.471328791
 20
158.3827217832
 10
213.6079010618
 20
157.9684322488
 10
213.804013592
 20
157.6038307769
 10
214.0556740958
 20
157.296339602
 10
214.3577594912
 20
157.0522183578
 10
214.7041201906
 20
156.8764366487
 10
215.0877052891
 20
156.7725728836
 10
215.5007061001
 20
156.742741429
 10
215.9347151183
 20
156.7875495674
 10
216.3808971714
 20
156.9060851343
 10
216.8301692797
 20
157.0959350875
 10
217.2733855587
 20
157.3532346292
 10
217.7015234029
 20
157.6727458829
 10
218.1058671605
 20
158.0479645208
 10
218.4781855586
 20
158.4712521736
 10
218.8108992685
 20
158.9339919251
 10
219.0972351983
 20
159.4267637286
 10
219.3313643742
 20
159.9395361712
 10
219.5085206015
 20
160.4618706846
 10
219.6250974902
 20
160.9831340444
 10
219.6787218711
 20
161.4927148318
 10
219.6683021063
 20
161.9802394516
 10
219.5940503123
 20
162.4357833083
 10
219.4574780414
 20
162.8500728427
 10
219.2613655113
 20
163.2146743145
 10
219.0097050075
 20
163.5221654894
 10
218.7076196121
 20
163.7662867336
 10
218.3612589127
 20
163.9420684427
 10
217.9776738142
 20
164.0459322078
 10
217.5646730032
 20
164.0757636624
 10
217.130663985
 20
164.030955524
 10
216.6844819318
 20
163.9124199571
 10
216.2352098235
 20
163.7225700039
 10
215.7919935446
 20
163.4652704622
 10
215.3638557004
 20
163.1457592085
 10
214.9595119428
 20
162.7705405706
 10
214.5871935446
 20
162.3472529178
 10
214.2544798348
 20
161.8845131663
 10
213.968143905
 20
161.3917413628
 10
213.734014729
 20
160.8789689202
 10
213.5568585017
 20
160.3566344068
 10
213.440281613
 20
159.835371047
 10
213.3866572322
 20
159.3257902596
 10
213.3970769969
 20
158.8382656398
  0
LINE
  5
33D
330
1B
100
AcDbEntity
 67
     1
  8
0
  6
Continuous
 62
     7
370
    25
100
AcDbLine
 10
207.4233316157
 20
152.3829743699
 30
0.0
 11
212.1267504477
 21
154.7394547287
 31
0.0
  0
LINE
  5
33E
330
1B
100
AcDbEntity
 67
     1
  8
0
  6
Continuous
 62
     7
370
    25
100
AcDbLine
 10
207.4233316157
 20
152.3829743699
 30
0.0
 11
206.8283721594
 21
159.0096092864
 31
0.0
  0
LINE
  5
33F
330
1B
100
AcDbEntity
 67
     1
  8
0
  6
Continuous
 62
     7
370
    25
100
AcDbLine
 10
206.8283721594
 20
159.0096092864
 30
0.0
 11
211.5317909915
 21
161.3660896452
 31
0.0
  0
LINE
  5
340
330
1B
100
AcDbEntity
 67
     1
  8
0
  6
Continuous
 62
     7
370
    25
100
AcDbLine
 10
211.5317909915
 20
161.3660896452
 30
0.0
 11
210.0443923509
 21
177.9326769364
 31
0.0
  0
LINE
  5
341
330
1B
100
AcDbEntity
 67
     1
  8
0
  6
Continuous
 62
     7
370
    25
100
AcDbLine
 10
210.0443923509
 20
177.9326769364
 30
0.0
 11
206.9087797962
 21
176.3616900305
 31
0.0
  0
LINE
  5
342
330
1B
100
AcDbEntity
 67
     1
  8
0
  6
Continuous
 62
     7
370
    25
100
AcDbLine
 10
206.9087797962
 20
176.3616900305
 30
0.0
 11
205.7188608838
 21
189.6149598635
 31
0.0
  0
LINE
  5
343
330
1B
100
AcDbEntity
 67
     1
  8
0
  6
Continuous
 62
     7
370
    25
100
AcDbLine
 10
205.7188608838
 20
189.6149598635
 30
0.0
 11
218.2613111025
 21
195.8989074869
 31
0.0
  0
LINE
  5
344
330
1B
100
AcDbEntity
 67
     1
  8
0
  6
Continuous
 62
     7
370
    25
100
AcDbLine
 10
224.2109056648
 20
129.632558322
 30
0.0
 11
218.2613111025
 21
195.8989074869
 31
0.0
  0
LINE
  5
345
330
1B
100
AcDbEntity
 67
     1
  8
0
  6
Continuous
 62
     7
370
    25
100
AcDbLine
 10
211.668455446
 20
123.3486106986
 30
0.0
 11
224.2109056648
 21
129.632558322
 31
0.0
  0
LINE
  5
346
330
1B
100
AcDbEntity
 67
     1
  8
0
  6
Continuous
 62
     7
370
    25
100
AcDbLine
 10
211.668455446
 20
123.3486106986
 30
0.0
 11
210.4785365336
 21
136.6018805316
 31
0.0
  0
LINE
  5
347
330
1B
100
AcDbEntity
 67
     1
  8
0
  6
Continuous
 62
     7
370
    25
100
AcDbLine
 10
213.6141490883
 20
138.1728674375
 30
0.0
 11
210.4785365336
 21
136.6018805316
 31
0.0
  0
LINE
  5
348
330
1B
100
AcDbEntity
 67
     1
  8
0
  6
Continuous
 62
     7
370
    25
100
AcDbLine
 10
213.6141490883
 20
138.1728674375
 30
0.0
 11
212.1267504477
 21
154.7394547287
 31
0.0
  0
LINE
  5
349
330
1B
100
AcDbEntity
 67
     1
  8
0
  6
Continuous
 62
     7
370
    25
100
AcDbLine
 10
273.5239453936
 20
97.6705335894
 30
0.0
 11
224.2109056648
 21
129.632558322
 31
0.0
  0
LINE
  5
34A
330
1B
100
AcDbEntity
 67
     1
  8
0
  6
Continuous
 62
     7
370
    25
100
AcDbLine
 10
260.9814951748
 20
91.386585966
 30
0.0
 11
273.5239453936
 21
97.6705335894
 31
0.0
  0
LINE
  5
34B
330
1B
100
AcDbEntity
 67
     1
  8
0
  6
Continuous
 62
     7
370
    25
100
AcDbLine
 10
260.9814951748
 20
91.386585966
 30
0.0
 11
251.1188872291
 21
97.7789909125
 31
0.0
  0
LINE
  5
34C
330
1B
100
AcDbEntity
 67
     1
  8
0
  6
Continuous
 62
     7
370
    25
100
AcDbLine
 10
254.2544997837
 20
99.3499778184
 30
0.0
 11
251.1188872291
 21
97.7789909125
 31
0.0
  0
LINE
  5
34D
330
1B
100
AcDbEntity
 67
     1
  8
0
  6
Continuous
 62
     7
370
    25
100
AcDbLine
 10
254.2544997837
 20
99.3499778184
 30
0.0
 11
224.6666759465
 21
118.527192658
 31
0.0
  0
LINE
  5
34E
330
1B
100
AcDbEntity
 67
     1
  8
0
  6
Continuous
 62
     7
370
    25
100
AcDbLine
 10
224.6666759465
 20
118.527192658
 30
0.0
 11
221.5310633918
 21
116.9562057521
 31
0.0
  0
LINE
  5
34F
330
1B
100
AcDbEntity
 67
     1
  8
0
  6
Continuous
 62
     7
370
    25
100
AcDbLine
 10
221.5310633918
 20
116.9562057521
 30
0.0
 11
211.668455446
 21
123.3486106986
 31
0.0
  0
LWPOLYLINE
  5
350
330
1B
100
AcDbEntity
 67
     1
  8
0
  6
Continuous
 62
     7
370
    25
100
AcDbPolyline
 90
       45
 70
   128
 43
0.0
 10
241.0283941425
 20
109.7240786911
 10
241.4112090208
 20
109.5126355536
 10
241.8500629214
 20
109.3374775517
 10
242.3360220444
 20
109.2021703971
 10
242.8591936634
 20
109.1094685534
 10
243.4089275131
 20
109.0612591628
 10
243.9740325975
 20
109.0585236294
 10
244.5430050067
 20
109.1013176408
 10
245.1042621033
 20
109.1887700344
 10
245.6463783112
 20
109.3191005315
 10
246.1583177079
 20
109.4896559792
 10
246.6296586836
 20
109.6969643603
 10
247.0508060952
 20
109.9368054741
 10
247.4131865958
 20
110.204296847
 10
247.7094231636
 20
110.4939931262
 10
247.9334852763
 20
110.7999969308
 10
248.0808116753
 20
111.1160789058
 10
248.1484032202
 20
111.4358045336
 10
248.1348839419
 20
111.7526651226
 10
248.0405290539
 20
112.0602103048
 10
247.8672593498
 20
112.3521793473
 10
247.6186021009
 20
112.6226286023
 10
247.2996192518
 20
112.8660525028
 10
246.9168043735
 20
113.0774956403
 10
246.4779504729
 20
113.2526536423
 10
245.9919913499
 20
113.3879607968
 10
245.4688197309
 20
113.4806626405
 10
244.9190858812
 20
113.5288720311
 10
244.3539807968
 20
113.5316075645
 10
243.7850083876
 20
113.4888135531
 10
243.2237512911
 20
113.4013611595
 10
242.6816350831
 20
113.2710306624
 10
242.1696956864
 20
113.1004752147
 10
241.6983547107
 20
112.8931668336
 10
241.2772072992
 20
112.6533257198
 10
240.9148267985
 20
112.3858343469
 10
240.6185902307
 20
112.0961380677
 10
240.394528118
 20
111.7901342631
 10
240.247201719
 20
111.4740522881
 10
240.1796101741
 20
111.1543266603
 10
240.1931294524
 20
110.8374660713
 10
240.2874843404
 20
110.5299208891
 10
240.4607540445
 20
110.2379518466
 10
240.7094112934
 20
109.9675025917
 10
241.0283941425
 20
109.7240786911
  0
LINE
  5
351
330
1B
100
AcDbEntity
 67
     1
  8
0
  6
Continuous
 62
     7
370
    25
100
AcDbLine
 10
218.2613111025
 20
195.8989074869
 30
0.0
 11
267.5743508313
 21
163.9368827543
 31
0.0
  0
LINE
  5
352
330
1B
100
AcDbEntity
 67
     1
  8
0
  6
Continuous
 62
     7
370
    25
100
AcDbLine
 10
267.5743508313
 20
163.9368827543
 30
0.0
 11
273.5239453936
 21
97.6705335894
 31
0.0
  0
LWPOLYLINE
  5
353
330
1B
100
AcDbEntity
 67
     1
  8
0
  6
Continuous
 62
     7
370
    25
100
AcDbPolyline
 90
       36
 70
   128
 43
0.0
 10
226.7101728804
 20
182.6215474768
 10
226.7186060146
 20
182.267839019
 10
226.6772380487
 20
181.9576017225
 10
226.5873985832
 20
181.7008068692
 10
226.4519751323
 20
181.5057080571
 10
226.2753203172
 20
181.3785759225
 10
226.0631119691
 20
181.3234965967
 10
225.8221706389
 20
181.3422403747
 10
225.560240379
 20
181.434204816
 10
225.2857398438
 20
181.5964341078
 10
225.007491706
 20
181.8237140671
 10
224.73443909
 20
182.1087397291
 10
224.4753581314
 20
182.4423501345
 10
224.2385759054
 20
182.8138227703
 10
224.0317027875
 20
183.2112182004
 10
223.8613878501
 20
183.6217638087
 10
223.7331051553
 20
184.0322643215
 10
223.6509778144
 20
184.4295259146
 10
223.6176454679
 20
184.8007802735
 10
223.6341794447
 20
185.1340949777
 10
223.7000483292
 20
185.4187570183
 10
223.8131350412
 20
185.645617123
 10
223.9698048809
 20
185.8073838216
 10
224.1650223506
 20
185.8988577991
 10
224.3925130003
 20
185.9170990068
 10
224.6449650932
 20
185.861521157
 10
224.9142646115
 20
185.7339105678
 10
225.1917560469
 20
185.5383687484
 10
225.4685205965
 20
185.2811805737
 10
225.7356628199
 20
184.9706122834
 10
225.9845965462
 20
184.6166457978
 10
226.2073208406
 20
184.230657891
 10
226.3966771612
 20
183.8250545319
 10
226.5465794398
 20
183.4128721463
 10
226.652209694
 20
183.0073586151
 10
226.7101728804
 20
182.6215474768
  0
LWPOLYLINE
  5
354
330
1B
100
AcDbEntity
 67
     1
  8
0
  6
Continuous
 62
     7
370
    25
100
AcDbPolyline
 90
       36
 70
   128
 43
0.0
 10
263.694952677
 20
158.6500289274
 10
263.7033858112
 20
158.2963204696
 10
263.6620178453
 20
157.9860831731
 10
263.5721783797
 20
157.7292883198
 10
263.4367549289
 20
157.5341895077
 10
263.2601001138
 20
157.407057373
 10
263.0478917657
 20
157.3519780472
 10
262.8069504354
 20
157.3707218252
 10
262.5450201756
 20
157.4626862665
 10
262.2705196403
 20
157.6249155583
 10
261.9922715026
 20
157.8521955176
 10
261.7192188866
 20
158.1372211796
 10
261.460137928
 20
158.470831585
 10
261.223355702
 20
158.8423042208
 10
261.0164825841
 20
159.2396996509
 10
260.8461676467
 20
159.6502452592
 10
260.7178849518
 20
160.060745772
 10
260.635757611
 20
160.4580073651
 10
260.6024252644
 20
160.829261724
 10
260.6189592412
 20
161.1625764282
 10
260.6848281257
 20
161.4472384688
 10
260.7979148378
 20
161.6740985736
 10
260.9545846775
 20
161.8358652721
 10
261.1498021472
 20
161.9273392497
 10
261.3772927969
 20
161.9455804573
 10
261.6297448898
 20
161.8900026076
 10
261.8990444081
 20
161.7623920183
 10
262.1765358435
 20
161.5668501989
 10
262.4533003931
 20
161.3096620243
 10
262.7204426165
 20
160.9990937339
 10
262.9693763428
 20
160.6451272483
 10
263.1921006372
 20
160.2591393415
 10
263.3814569577
 20
159.8535359825
 10
263.5313592364
 20
159.4413535968
 10
263.6369894906
 20
159.0358400656
 10
263.694952677
 20
158.6500289274
  0
LWPOLYLINE
  5
355
330
1B
100
AcDbEntity
 67
     1
  8
0
  6
Continuous
 62
     7
370
    25
100
AcDbPolyline
 90
       36
 70
   128
 43
0.0
 10
268.1571485987
 20
108.9502670537
 10
268.1655817329
 20
108.5965585959
 10
268.124213767
 20
108.2863212994
 10
268.0343743014
 20
108.0295264461
 10
267.8989508506
 20
107.834427634
 10
267.7222960355
 20
107.7072954993
 10
267.5100876874
 20
107.6522161736
 10
267.2691463571
 20
107.6709599516
 10
267.0072160973
 20
107.7629243929
 10
266.732715562
 20
107.9251536846
 10
266.4544674243
 20
108.152433644
 10
266.1814148083
 20
108.437459306
 10
265.9223338497
 20
108.7710697114
 10
265.6855516237
 20
109.1425423472
 10
265.4786785058
 20
109.5399377773
 10
265.3083635684
 20
109.9504833856
 10
265.1800808735
 20
110.3609838984
 10
265.0979535327
 20
110.7582454915
 10
265.0646211861
 20
111.1294998504
 10
265.0811551629
 20
111.4628145546
 10
265.1470240474
 20
111.7474765951
 10
265.2601107595
 20
111.9743366999
 10
265.4167805992
 20
112.1361033985
 10
265.6119980689
 20
112.227577376
 10
265.8394887186
 20
112.2458185836
 10
266.0919408115
 20
112.1902407339
 10
266.3612403298
 20
112.0626301447
 10
266.6387317652
 20
111.8670883252
 10
266.9154963148
 20
111.6099001506
 10
267.1826385382
 20
111.2993318603
 10
267.4315722645
 20
110.9453653747
 10
267.6542965589
 20
110.5593774679
 10
267.8436528794
 20
110.1537741088
 10
267.9935551581
 20
109.7415917232
 10
268.0991854123
 20
109.3360781919
 10
268.1571485987
 20
108.9502670537
  0
LWPOLYLINE
  5
356
330
1B
100
AcDbEntity
 67
     1
  8
0
  6
Continuous
 62
     7
370
    25
100
AcDbPolyline
 90
       36
 70
   128
 43
0.0
 10
231.1723688021
 20
132.9217856032
 10
231.1808019363
 20
132.5680771454
 10
231.1394339704
 20
132.2578398489
 10
231.0495945049
 20
132.0010449956
 10
230.914171054
 20
131.8059461835
 10
230.7375162389
 20
131.6788140488
 10
230.5253078908
 20
131.623734723
 10
230.2843665606
 20
131.642478501
 10
230.0224363008
 20
131.7344429423
 10
229.7479357655
 20
131.8966722341
 10
229.4696876278
 20
132.1239521934
 10
229.1966350117
 20
132.4089778554
 10
228.9375540531
 20
132.7425882608
 10
228.7007718271
 20
133.1140608966
 10
228.4938987092
 20
133.5114563267
 10
228.3235837718
 20
133.922001935
 10
228.195301077
 20
134.3325024478
 10
228.1131737361
 20
134.7297640409
 10
228.0798413896
 20
135.1010183998
 10
228.0963753664
 20
135.434333104
 10
228.1622442509
 20
135.7189951446
 10
228.2753309629
 20
135.9458552494
 10
228.4320008026
 20
136.1076219479
 10
228.6272182723
 20
136.1990959255
 10
228.854708922
 20
136.2173371331
 10
229.1071610149
 20
136.1617592834
 10
229.3764605332
 20
136.0341486941
 10
229.6539519686
 20
135.8386068747
 10
229.9307165182
 20
135.5814187001
 10
230.1978587416
 20
135.2708504097
 10
230.4467924679
 20
134.9168839241
 10
230.6695167624
 20
134.5308960173
 10
230.8588730829
 20
134.1252926583
 10
231.0087753615
 20
133.7131102726
 10
231.1144056157
 20
133.3075967414
 10
231.1723688021
 20
132.9217856032
  0
LWPOLYLINE
  5
357
330
1B
100
AcDbEntity
 67
     1
  8
0
  6
Continuous
 62
     7
370
    25
100
AcDbPolyline
 90
      115
 70
   128
 43
0.0
 10
230.0138294554
 20
157.0764925021
 10
230.1434765987
 20
155.885414962
 10
230.320953398
 20
154.666698912
 10
230.545720862
 20
153.4240455528
 10
230.8170963793
 20
152.1612287817
 10
231.1342557915
 20
150.8820837318
 10
231.4962358957
 20
149.5904951245
 10
231.9019373703
 20
148.290385472
 10
232.3501281133
 20
146.9857031646
 10
232.8394469842
 20
145.6804104796
 10
233.3684079375
 20
144.3784715479
 10
233.9354045362
 20
143.0838403154
 10
234.5387148304
 20
141.8004485344
 10
235.1765065865
 20
140.5321938237
 10
235.8468428518
 20
139.2829278311
 10
236.5476878372
 20
138.0564445364
 10
237.2769130996
 20
136.8564687291
 10
238.0323040056
 20
135.6866446962
 10
238.811566458
 20
134.5505251549
 10
239.6123338624
 20
133.4515604628
 10
240.4321743144
 20
132.3930881397
 10
241.2685979855
 20
131.3783227312
 10
242.1190646846
 20
130.4103460465
 10
242.9809915722
 20
129.4920977989
 10
243.8517610046
 20
128.6263666782
 10
244.7287284838
 20
127.8157818814
 10
245.6092306884
 20
127.0628051279
 10
246.490593562
 20
126.3697231833
 10
247.3701404346
 20
125.7386409146
 10
248.2452001512
 20
125.1714748981
 10
249.1131151843
 20
124.6699475982
 10
249.9712497045
 20
124.2355821369
 10
250.8169975853
 20
123.8696976678
 10
251.6477903183
 20
123.57340537
 10
252.4611048132
 20
123.3476050735
 10
253.2544710607
 20
123.1929825264
 10
254.0254796335
 20
123.1100073123
 10
254.771789004
 20
123.0989314241
 10
255.4911326551
 20
123.1597884989
 10
256.1813259637
 20
123.2923937159
 10
256.8402728356
 20
123.4963443574
 10
257.4659720706
 20
123.7710210319
 10
258.0565234409
 20
124.1155895554
 10
258.6101334612
 20
124.5290034846
 10
259.1251208362
 20
125.0100072951
 10
259.5999215661
 20
125.557140194
 10
260.0330936967
 20
126.1687405568
 10
260.4233216985
 20
126.8429509732
 10
260.7694204618
 20
127.5777238883
 10
261.0703388962
 20
128.370827821
 10
261.3251631221
 20
129.2198541407
 10
261.5331192469
 20
130.1222243823
 10
261.6935757145
 20
131.0751980771
 10
261.806045224
 20
132.0758810753
 10
261.8701862092
 20
133.1212343355
 10
261.885803876
 20
134.2080831542
 10
261.852850794
 20
135.3331268074
 10
261.7714270407
 20
136.4929485743
 10
261.6417798974
 20
137.6840261144
 10
261.4643030981
 20
138.9027421644
 10
261.2395356341
 20
140.1453955236
 10
260.9681601168
 20
141.4082122947
 10
260.6510007047
 20
142.6873573446
 10
260.2890206004
 20
143.9789459519
 10
259.8833191258
 20
145.2790556043
 10
259.4351283828
 20
146.5837379117
 10
258.945809512
 20
147.8890305967
 10
258.4168485586
 20
149.1909695284
 10
257.8498519599
 20
150.485600761
 10
257.2465416657
 20
151.7689925419
 10
256.6087499096
 20
153.0372472527
 10
255.9384136443
 20
154.2865132452
 10
255.2375686589
 20
155.5129965399
 10
254.5083433966
 20
156.7129723473
 10
253.7529524905
 20
157.8827963802
 10
252.9736900381
 20
159.0189159215
 10
252.1729226337
 20
160.1178806135
 10
251.3530821817
 20
161.1763529366
 10
250.5166585106
 20
162.1911183451
 10
249.6661918115
 20
163.1590950299
 10
248.804264924
 20
164.0773432775
 10
247.9334954915
 20
164.9430743981
 10
247.0565280123
 20
165.7536591949
 10
246.1760258077
 20
166.5066359485
 10
245.2946629341
 20
167.1997178931
 10
244.4151160615
 20
167.8308001617
 10
243.5400563449
 20
168.3979661783
 10
242.6721413118
 20
168.8994934782
 10
241.8140067916
 20
169.3338589395
 10
240.9682589108
 20
169.6997434086
 10
240.1374661778
 20
169.9960357063
 10
239.3241516829
 20
170.2218360028
 10
238.5307854354
 20
170.3764585499
 10
237.7597768626
 20
170.4594337641
 10
237.0134674921
 20
170.4705096523
 10
236.294123841
 20
170.4096525774
 10
235.6039305324
 20
170.2770473604
 10
234.9449836605
 20
170.073096719
 10
234.3192844255
 20
169.7984200445
 10
233.7287330552
 20
169.453851521
 10
233.1751230349
 20
169.0404375917
 10
232.6601356599
 20
168.5594337812
 10
232.18533493
 20
168.0123008823
 10
231.7521627994
 20
167.4007005196
 10
231.3619347976
 20
166.7264901032
 10
231.0158360343
 20
165.9917171881
 10
230.7149175999
 20
165.1986132554
 10
230.460093374
 20
164.3495869357
 10
230.2521372492
 20
163.4472166941
 10
230.0916807816
 20
162.4942429993
 10
229.9792112721
 20
161.4935600011
 10
229.9150702869
 20
160.4482067409
 10
229.8994526201
 20
159.3613579221
 10
229.9324057021
 20
158.236314269
 10
230.0138294554
 20
157.0764925021
  0
LWPOLYLINE
  5
358
330
1B
100
AcDbEntity
 67
     1
  8
0
  6
Continuous
 62
     7
370
    25
100
AcDbPolyline
 90
       43
 70
   128
 43
0.0
 10
251.6358832407
 20
123.5771933136
 10
251.6635012321
 20
123.6578671034
 10
251.9183254581
 20
124.5068934231
 10
252.1262815828
 20
125.4092636647
 10
252.2867380504
 20
126.3622373595
 10
252.3992075599
 20
127.3629203577
 10
252.4633485451
 20
128.4082736179
 10
252.4789662119
 20
129.4951224367
 10
252.4460131299
 20
130.6201660898
 10
252.3645893766
 20
131.7799878567
 10
252.2349422333
 20
132.9710653968
 10
252.057465434
 20
134.1897814468
 10
251.83269797
 20
135.432434806
 10
251.5613224527
 20
136.6952515771
 10
251.2441630406
 20
137.974396627
 10
250.8821829364
 20
139.2659852343
 10
250.4764814617
 20
140.5660948868
 10
250.0282907187
 20
141.8707771941
 10
249.5389718479
 20
143.1760698792
 10
249.0100108946
 20
144.4780088108
 10
248.4430142958
 20
145.7726400434
 10
247.8397040016
 20
147.0560318244
 10
247.2019122456
 20
148.3242865351
 10
246.5315759802
 20
149.5735525277
 10
245.8307309948
 20
150.8000358223
 10
245.1015057325
 20
152.0000116297
 10
244.3461148264
 20
153.1698356626
 10
243.566852374
 20
154.3059552039
 10
242.7660849696
 20
155.4049198959
 10
241.9462445176
 20
156.4633922191
 10
241.1098208465
 20
157.4781576276
 10
240.2593541475
 20
158.4461343123
 10
239.3974272599
 20
159.3643825599
 10
238.5266578274
 20
160.2301136806
 10
237.6496903482
 20
161.0406984774
 10
236.7691881437
 20
161.7936752309
 10
235.8878252701
 20
162.4867571755
 10
235.0082783975
 20
163.1178394442
 10
234.1332186808
 20
163.6850054607
 10
233.2653036477
 20
164.1865327606
 10
232.4071691276
 20
164.6208982219
 10
231.5614212468
 20
164.986782691
 10
230.7425355913
 20
165.2792870451
  0
LWPOLYLINE
  5
359
330
1B
100
AcDbEntity
 67
     1
  8
0
  6
Continuous
 62
     7
370
    25
100
AcDbPolyline
 90
       13
 70
   128
 43
0.0
 10
214.3772982916
 20
158.833520632
 10
214.4475393493
 20
158.4218657716
 10
214.5797484187
 20
158.0522606219
 10
214.7706700739
 20
157.7338060886
 10
215.0156031901
 20
157.4743435789
 10
215.308516701
 20
157.2802619211
 10
215.6421981039
 20
157.1563400496
 10
216.0084310553
 20
157.1056293322
 10
216.3981976843
 20
157.1293784352
 10
216.8019006431
 20
157.2270025766
 10
217.209599425
 20
157.3960979262
 10
217.6112551328
 20
157.6325007953
 10
217.9119003491
 20
157.8582138146
  0
LWPOLYLINE
  5
35A
330
1B
100
AcDbEntity
 67
     1
  8
0
  6
Continuous
 62
     7
370
    25
100
AcDbPolyline
 90
       25
 70
   128
 43
0.0
 10
219.4245454363
 20
160.1920186316
 10
219.5002872607
 20
160.5175212228
 10
219.5576024848
 20
160.9820807643
 10
219.5510590069
 20
161.4256490266
 10
219.4808179492
 20
161.837303887
 10
219.3486088798
 20
162.2069090366
 10
219.1576872246
 20
162.52536357
 10
218.9127541084
 20
162.7848260797
 10
218.6198405975
 20
162.9789077375
 10
218.2861591946
 20
163.102829609
 10
217.9199262433
 20
163.1535403263
 10
217.5301596142
 20
163.1297912234
 10
217.1264566554
 20
163.032167082
 10
216.7187578736
 20
162.8630717323
 10
216.3171021657
 20
162.6266688632
 10
215.9313796284
 20
162.3287794979
 10
215.5710880306
 20
161.9767386611
 10
215.2450989473
 20
161.5792147665
 10
214.9614393115
 20
161.1459961719
 10
214.727093765
 20
160.6877501568
 10
214.5478326727
 20
160.2157602588
 10
214.4280700378
 20
159.7416484358
 10
214.3707548138
 20
159.2770888943
 10
214.3772982916
 20
158.833520632
 10
214.3772982916
 20
158.833520632
  0
LWPOLYLINE
  5
35B
330
1B
100
AcDbEntity
 67
     1
  8
0
  6
Continuous
 62
     7
370
    25
100
AcDbPolyline
 90
       22
 70
   128
 43
0.0
 10
241.5250673871
 20
110.5788319548
 10
241.8751293603
 20
110.3885402134
 10
242.2802692257
 20
110.234847488
 10
242.7305110952
 20
110.1215382038
 10
243.2147685198
 20
110.0514024114
 10
243.7211174745
 20
110.0261670867
 10
244.2370899675
 20
110.0464536071
 10
244.7499810436
 20
110.1117624513
 10
245.2471616224
 20
110.2204854987
 10
245.716389468
 20
110.369945627
 10
246.1461106335
 20
110.5564626319
 10
246.5257439578
 20
110.7754438457
 10
246.8459416083
 20
111.0214972242
 10
247.0988192563
 20
111.2885641166
 10
247.2781502148
 20
111.5700684496
 10
247.3795187604
 20
111.8590786522
 10
247.4004288633
 20
112.1484783343
 10
247.3403656471
 20
112.431141515
 10
247.2008080677
 20
112.7001080889
 10
246.9851924958
 20
112.9487552061
 10
246.6988281024
 20
113.1709603495
 10
246.6952613524
 20
113.1732675627
  0
ARC
  5
35C
330
1B
100
AcDbEntity
 67
     1
  8
0
  6
Continuous
 62
     7
370
    25
100
AcDbCircle
 10
242.0856206723
 20
111.6932408661
 30
0.0
 40
1.247448278373812
100
AcDbArc
 50
126.7827707731
 51
243.2973741337
  0
LINE
  5
35D
330
1B
100
AcDbEntity
 67
     1
  8
0
  6
Continuous
 62
     7
370
    25
100
AcDbLine
 10
209.8889836021
 20
150.7848731333
 30
0.0
 11
212.3701935617
 21
152.0279949441
 31
0.0
  0
LINE
  5
35E
330
1B
100
AcDbEntity
 67
     1
  8
0
  6
Continuous
 62
     7
370
    25
100
AcDbLine
 10
209.8889836021
 20
150.7848731333
 30
0.0
 11
207.4233316157
 21
152.3829743699
 31
0.0
  0
LINE
  5
35F
330
1B
100
AcDbEntity
 67
     1
  8
0
  6
Continuous
 62
     7
370
    25
100
AcDbLine
 10
206.9087797962
 20
176.3616900305
 30
0.0
 11
210.3878988925
 21
174.1067146485
 31
0.0
  0
LINE
  5
360
330
1B
100
AcDbEntity
 67
     1
  8
0
  6
Continuous
 62
     7
370
    25
100
AcDbLine
 10
250.7753806875
 20
101.6049532004
 30
0.0
 11
251.1188872291
 21
97.7789909125
 31
0.0
  0
LWPOLYLINE
  5
361
330
1B
100
AcDbEntity
 67
     1
  8
0
  6
Continuous
 62
     7
370
    18
100
AcDbPolyline
 90
       38
 70
   128
 43
0.0
 10
246.6295957565
 20
109.6969643603
 10
246.0642714304
 20
109.454453516
 10
245.4442170207
 20
109.26489373
 10
244.7873332908
 20
109.1337382923
 10
244.1125175897
 20
109.0647603061
 10
243.4391831365
 20
109.0599441424
 10
242.7867005374
 20
109.1194283534
 10
242.1738405289
 20
109.2415016868
 10
241.6182339776
 20
109.4226523149
 10
241.1358646723
 20
109.6576688641
 10
240.7406094998
 20
109.9397903361
 10
240.4438392317
 20
110.2609006098
 10
240.2540914082
 20
110.6117619272
 10
240.1768247289
 20
110.9822806472
 10
240.2142620153
 20
111.3617976207
 10
240.365326265
 20
111.7393948353
 10
240.6256716344
 20
112.1042095068
 10
240.9878084614
 20
112.4457465812
 10
241.4413187288
 20
112.7541806587
 10
241.9731557717
 20
113.0206386525
 10
242.568019607
 20
113.2374550512
 10
243.208797085
 20
113.3983924418
 10
243.8770542044
 20
113.4988209486
 10
244.5535664246
 20
113.5358514263
 10
245.2188717207
 20
113.5084185755
 10
245.8538304707
 20
113.4173115893
 10
246.4401760673
 20
113.2651514499
 10
246.9610404154
 20
113.0563155275
 10
247.4014391959
 20
112.7968116512
 10
247.7487029379
 20
112.4941052752
 10
247.9928414956
 20
112.1569047107
 10
248.1268314473
 20
111.7949106041
 10
248.1468181461
 20
111.4185368666
 10
248.0522266109
 20
111.0386110856
 10
247.8457780681
 20
110.6660630339
 10
247.5334116664
 20
110.3116102407
 10
247.1241136183
 20
109.9854496676
 10
246.6296586836
 20
109.6969643603
  0
LWPOLYLINE
  5
362
330
1B
100
AcDbEntity
 67
     1
  8
0
  6
Continuous
 62
     7
370
    18
100
AcDbPolyline
 90
       38
 70
   128
 43
0.0
 10
216.8301343918
 20
157.0959350875
 10
216.2959692107
 20
156.878096067
 10
215.7685791549
 20
156.7618419893
 10
215.263171164
 20
156.7505172725
 10
214.7942849057
 20
156.844447708
 10
214.3754093839
 20
157.0409310883
 10
214.0185948848
 20
157.3343149443
 10
213.7341063119
 20
157.7161591565
 10
213.5301278834
 20
158.1754787622
 10
213.4125276874
 20
158.6990599726
 10
213.3846888674
 20
159.2718403097
 10
213.4474122954
 20
159.8773419259
 10
213.5988935328
 20
160.4981456421
 10
213.8347747401
 20
161.1163920658
 10
214.1482700445
 20
161.7142953731
 10
214.5303607567
 20
162.2746549742
 10
214.9700548228
 20
162.7813503439
 10
215.4547030449
 20
163.2198047787
 10
215.9703629762
 20
163.5774047429
 10
216.5022000191
 20
163.8438627367
 10
217.0349141905
 20
164.0115132487
 10
217.5531802734
 20
164.0755332789
 10
218.0420886962
 20
164.0340810875
 10
218.4875744537
 20
163.8883491787
 10
218.8768217319
 20
163.6425299942
 10
219.1986325953
 20
163.3036953042
 10
219.4437491311
 20
162.881592766
 10
219.605119783
 20
162.3883655011
 10
219.678102211
 20
161.8382027598
 10
219.6605968437
 20
161.2469317225
 10
219.5531072786
 20
160.6315621804
 10
219.3587257948
 20
160.0097971949
 10
219.0830443935
 20
159.3995238126
 10
218.7339939269
 20
158.8182984875
 10
218.3216159413
 20
158.2828420141
 10
217.8577738006
 20
157.8085585
 10
217.3558113986
 20
157.4090922186
 10
216.8301692797
 20
157.0959350875
  0
ENDSEC
  0
SECTION
  2
OBJECTS
  0
DICTIONARY
  5
C
330
0
100
AcDbDictionary
281
     1
  3
ACAD_GROUP
350
D
  3
ACAD_LAYOUT
350
1A
  3
ACAD_MLINESTYLE
350
17
  3
ACAD_PLOTSETTINGS
350
19
  3
ACAD_PLOTSTYLENAME
350
E
  3
ACAD_SCALELIST
350
47
  0
DICTIONARY
  5
D
102
{ACAD_REACTORS
330
C
102
}
330
C
100
AcDbDictionary
281
     1
  0
DICTIONARY
  5
1A
102
{ACAD_REACTORS
330
C
102
}
330
C
100
AcDbDictionary
281
     1
  3
Model
350
22
  3
Sheet2
350
1E
  0
DICTIONARY
  5
17
102
{ACAD_REACTORS
330
C
102
}
330
C
100
AcDbDictionary
281
     1
  3
Standard
350
18
  0
DICTIONARY
  5
19
102
{ACAD_REACTORS
330
C
102
}
330
C
100
AcDbDictionary
281
     1
  0
ACDBDICTIONARYWDFLT
  5
E
102
{ACAD_REACTORS
330
C
102
}
330
C
100
AcDbDictionary
281
     1
  3
Normal
350
F
100
AcDbDictionaryWithDefault
340
F
  0
DICTIONARY
  5
47
102
{ACAD_REACTORS
330
C
102
}
330
C
100
AcDbDictionary
281
     1
  3
A0
350
48
  3
A1
350
49
  3
A2
350
4A
  3
A3
350
4B
  3
A4
350
4C
  3
A5
350
4D
  3
A6
350
4E
  3
A7
350
4F
  3
A8
350
50
  3
A9
350
51
  3
B0
350
52
  3
B1
350
53
  3
B2
350
54
  3
B3
350
55
  3
B4
350
56
  3
B5
350
57
  3
B6
350
58
  3
B7
350
59
  3
B8
350
5A
  3
B9
350
5B
  3
C0
350
5C
  3
C1
350
5D
  3
C2
350
5E
  3
C3
350
5F
  3
C4
350
60
  3
C5
350
61
  3
C6
350
62
  3
C7
350
63
  3
C8
350
64
  3
C9
350
65
  3
D0
350
66
  3
D1
350
67
  3
D2
350
68
  0
LAYOUT
  5
22
102
{ACAD_REACTORS
330
1A
102
}
330
1A
100
AcDbPlotSettings
  1

  2
none_device
  4
Letter_(8.50_x_11.00_Inches)
  6

 40
6.35
 41
6.35
 42
6.35000508
 43
6.35000508
 44
215.9
 45
279.4
 46
0.0
 47
0.0
 48
0.0
 49
0.0
140
0.0
141
0.0
142
1.0
143
1.0
 70
  1712
 72
     1
 73
     0
 74
     0
  7

 75
     0
147
1.0
148
0.0
149
0.0
100
AcDbLayout
  1
Model
 70
     1
 71
     0
 10
0.0
 20
0.0
 11
297.0
 21
210.0
 12
0.0
 22
0.0
 32
0.0
 14
0.0
 24
0.0
 34
0.0
 15
297.0
 25
210.0
 35
0.0
146
0.0
 13
0.0
 23
0.0
 33
0.0
 16
1.0
 26
0.0
 36
0.0
 17
0.0
 27
1.0
 37
0.0
 76
     0
330
1F
331
29
  0
LAYOUT
  5
1E
102
{ACAD_REACTORS
330
1A
102
}
330
1A
100
AcDbPlotSettings
  1

  2
none_device
  4
ISO_A4_(297.00_x_210.00_MM)
  6

 40
7.5
 41
20.0
 42
7.5
 43
20.0
 44
297.0
 45
210.0
 46
0.0
 47
0.0
 48
0.0
 49
0.0
140
0.0
141
0.0
142
1.0
143
1.0
 70
  4832
 72
     1
 73
     0
 74
     1
  7

 75
     0
147
1.0
148
0.0
149
0.0
100
AcDbLayout
  1
Sheet2
 70
     1
 71
     1
 10
0.0
 20
0.0
 11
297.0
 21
210.0
 12
0.0
 22
0.0
 32
0.0
 14
0.0
 24
0.0
 34
0.0
 15
297.0
 25
210.0
 35
0.0
146
0.0
 13
0.0
 23
0.0
 33
0.0
 16
1.0
 26
0.0
 36
0.0
 17
0.0
 27
1.0
 37
0.0
 76
     0
330
1B
331
25F
  0
MLINESTYLE
  5
18
102
{ACAD_REACTORS
330
17
102
}
330
17
100
AcDbMlineStyle
  2
Standard
 70
     0
  3

 62
   256
 51
90.0
 52
90.0
 71
     2
 49
0.5
 62
   256
  6
BYLAYER
 49
-0.5
 62
   256
  6
BYLAYER
  0
ACDBPLACEHOLDER
  5
F
102
{ACAD_REACTORS
330
E
102
}
330
E
  0
SCALE
  5
48
102
{ACAD_REACTORS
330
47
102
}
330
47
100
AcDbScale
 70
     0
300
1:1
140
1.0
141
1.0
290
     1
  0
SCALE
  5
49
102
{ACAD_REACTORS
330
47
102
}
330
47
100
AcDbScale
 70
     0
300
1:2
140
1.0
141
2.0
290
     0
  0
SCALE
  5
4A
102
{ACAD_REACTORS
330
47
102
}
330
47
100
AcDbScale
 70
     0
300
1:4
140
1.0
141
4.0
290
     0
  0
SCALE
  5
4B
102
{ACAD_REACTORS
330
47
102
}
330
47
100
AcDbScale
 70
     0
300
1:5
140
1.0
141
5.0
290
     0
  0
SCALE
  5
4C
102
{ACAD_REACTORS
330
47
102
}
330
47
100
AcDbScale
 70
     0
300
1:8
140
1.0
141
8.0
290
     0
  0
SCALE
  5
4D
102
{ACAD_REACTORS
330
47
102
}
330
47
100
AcDbScale
 70
     0
300
1:10
140
1.0
141
10.0
290
     0
  0
SCALE
  5
4E
102
{ACAD_REACTORS
330
47
102
}
330
47
100
AcDbScale
 70
     0
300
1:16
140
1.0
141
16.0
290
     0
  0
SCALE
  5
4F
102
{ACAD_REACTORS
330
47
102
}
330
47
100
AcDbScale
 70
     0
300
1:20
140
1.0
141
20.0
290
     0
  0
SCALE
  5
50
102
{ACAD_REACTORS
330
47
102
}
330
47
100
AcDbScale
 70
     0
300
1:30
140
1.0
141
30.0
290
     0
  0
SCALE
  5
51
102
{ACAD_REACTORS
330
47
102
}
330
47
100
AcDbScale
 70
     0
300
1:40
140
1.0
141
40.0
290
     0
  0
SCALE
  5
52
102
{ACAD_REACTORS
330
47
102
}
330
47
100
AcDbScale
 70
     0
300
1:50
140
1.0
141
50.0
290
     0
  0
SCALE
  5
53
102
{ACAD_REACTORS
330
47
102
}
330
47
100
AcDbScale
 70
     0
300
1:100
140
1.0
141
100.0
290
     0
  0
SCALE
  5
54
102
{ACAD_REACTORS
330
47
102
}
330
47
100
AcDbScale
 70
     0
300
2:1
140
2.0
141
1.0
290
     0
  0
SCALE
  5
55
102
{ACAD_REACTORS
330
47
102
}
330
47
100
AcDbScale
 70
     0
300
4:1
140
4.0
141
1.0
290
     0
  0
SCALE
  5
56
102
{ACAD_REACTORS
330
47
102
}
330
47
100
AcDbScale
 70
     0
300
8:1
140
8.0
141
1.0
290
     0
  0
SCALE
  5
57
102
{ACAD_REACTORS
330
47
102
}
330
47
100
AcDbScale
 70
     0
300
10:1
140
10.0
141
1.0
290
     0
  0
SCALE
  5
58
102
{ACAD_REACTORS
330
47
102
}
330
47
100
AcDbScale
 70
     0
300
100:1
140
100.0
141
1.0
290
     0
  0
SCALE
  5
59
102
{ACAD_REACTORS
330
47
102
}
330
47
100
AcDbScale
 70
     0
300
1/128" = 1'-0"
140
0.0078125
141
12.0
290
     0
  0
SCALE
  5
5A
102
{ACAD_REACTORS
330
47
102
}
330
47
100
AcDbScale
 70
     0
300
1/64" = 1'-0"
140
0.015625
141
12.0
290
     0
  0
SCALE
  5
5B
102
{ACAD_REACTORS
330
47
102
}
330
47
100
AcDbScale
 70
     0
300
1/32" = 1'-0"
140
0.03125
141
12.0
290
     0
  0
SCALE
  5
5C
102
{ACAD_REACTORS
330
47
102
}
330
47
100
AcDbScale
 70
     0
300
1/16" = 1'-0"
140
0.0625
141
12.0
290
     0
  0
SCALE
  5
5D
102
{ACAD_REACTORS
330
47
102
}
330
47
100
AcDbScale
 70
     0
300
3/32" = 1'-0"
140
0.09375
141
12.0
290
     0
  0
SCALE
  5
5E
102
{ACAD_REACTORS
330
47
102
}
330
47
100
AcDbScale
 70
     0
300
1/8" = 1'-0"
140
0.125
141
12.0
290
     0
  0
SCALE
  5
5F
102
{ACAD_REACTORS
330
47
102
}
330
47
100
AcDbScale
 70
     0
300
3/16" = 1'-0"
140
0.1875
141
12.0
290
     0
  0
SCALE
  5
60
102
{ACAD_REACTORS
330
47
102
}
330
47
100
AcDbScale
 70
     0
300
1/4" = 1'-0"
140
0.25
141
12.0
290
     0
  0
SCALE
  5
61
102
{ACAD_REACTORS
330
47
102
}
330
47
100
AcDbScale
 70
     0
300
3/8" = 1'-0"
140
0.375
141
12.0
290
     0
  0
SCALE
  5
62
102
{ACAD_REACTORS
330
47
102
}
330
47
100
AcDbScale
 70
     0
300
1/2" = 1'-0"
140
0.5
141
12.0
290
     0
  0
SCALE
  5
63
102
{ACAD_REACTORS
330
47
102
}
330
47
100
AcDbScale
 70
     0
300
3/4" = 1'-0"
140
0.75
141
12.0
290
     0
  0
SCALE
  5
64
102
{ACAD_REACTORS
330
47
102
}
330
47
100
AcDbScale
 70
     0
300
1" = 1'-0"
140
1.0
141
12.0
290
     0
  0
SCALE
  5
65
102
{ACAD_REACTORS
330
47
102
}
330
47
100
AcDbScale
 70
     0
300
1-1/2" = 1'-0"
140
1.5
141
12.0
290
     0
  0
SCALE
  5
66
102
{ACAD_REACTORS
330
47
102
}
330
47
100
AcDbScale
 70
     0
300
3" = 1'-0"
140
3.0
141
12.0
290
     0
  0
SCALE
  5
67
102
{ACAD_REACTORS
330
47
102
}
330
47
100
AcDbScale
 70
     0
300
6" = 1'-0"
140
6.0
141
12.0
290
     0
  0
SCALE
  5
68
102
{ACAD_REACTORS
330
47
102
}
330
47
100
AcDbScale
 70
     0
300
1'-0" = 1'-0"
140
12.0
141
12.0
290
     0
  0
ENDSEC
  0
EOF
